<svg width="72" height="72" viewBox="0 0 72 72" fill="none" xmlns="http://www.w3.org/2000/svg">
<rect width="72" height="72" fill="#F5F5F5"/>
<rect width="1440" height="12112" transform="translate(-155 -2334)" fill="white"/>
<rect x="-23.5" y="-23.5" width="359" height="359" rx="3.5" fill="white" stroke="#737373"/>
<g clip-path="url(#clip0_1_114)">
<path fill-rule="evenodd" clip-rule="evenodd" d="M8.60552 14.4239C13.1053 8.34221 19.5656 4.87509 26.8904 2.97023C35.865 0.636383 45.4707 -2.12657 53.3367 2.79143C63.1027 8.89733 72.5038 19.1081 70.9397 30.5108C69.4137 41.6352 55.6478 44.6488 46.6698 51.3926C36.4928 59.037 28.7076 74.8314 16.4257 71.4586C4.09863 68.0734 2.18942 51.3601 0.453698 38.701C-0.766653 29.8006 3.26385 21.6435 8.60552 14.4239Z" fill="#B3E3FF" fill-opacity="0.3"/>
<mask id="mask0_1_114" style="mask-type:luminance" maskUnits="userSpaceOnUse" x="25" y="54" width="3" height="3">
<path d="M25.6953 54.8115L25.8141 55.8979C25.8141 55.8979 26.5551 56.2499 27.0672 55.8664L26.7702 54.6541L25.6953 54.8115Z" fill="white"/>
</mask>
<g mask="url(#mask0_1_114)">
<path d="M25.6953 54.8115L25.8141 55.8979C25.8141 55.8979 26.5551 56.2499 27.0672 55.8664L26.7702 54.6541L25.6953 54.8115Z" fill="url(#paint0_linear_1_114)"/>
</g>
<mask id="mask1_1_114" style="mask-type:luminance" maskUnits="userSpaceOnUse" x="22" y="34" width="5" height="22">
<path d="M25.9864 34.4115C25.9275 34.6942 25.5506 48.5502 26.9803 54.7746C27.0033 54.8759 26.9506 54.9798 26.8533 55.0185C26.6244 55.1092 26.1753 55.2396 25.6381 55.2523C25.4722 55.2564 25.3242 55.1474 25.2787 54.988C24.867 53.5434 22.896 46.3045 22.6963 39.4058C22.4729 31.6971 22.6989 39.1434 22.6989 39.1434L22.919 34.382L25.9864 34.4115Z" fill="white"/>
</mask>
<g mask="url(#mask1_1_114)">
<path d="M25.9864 34.4115C25.9275 34.6942 25.5506 48.5502 26.9803 54.7746C27.0033 54.8759 26.9506 54.9798 26.8533 55.0185C26.6244 55.1092 26.1753 55.2396 25.6381 55.2523C25.4722 55.2564 25.3242 55.1474 25.2787 54.988C24.867 53.5434 22.896 46.3045 22.6963 39.4058C22.4729 31.6971 22.6989 39.1434 22.6989 39.1434L22.919 34.382L25.9864 34.4115Z" fill="url(#paint1_linear_1_114)"/>
</g>
<mask id="mask2_1_114" style="mask-type:luminance" maskUnits="userSpaceOnUse" x="20" y="55" width="3" height="3">
<path d="M20.9287 55.7724C20.9287 55.7724 20.6679 56.2283 20.4079 57.4431C20.361 57.6621 20.5134 57.874 20.7375 57.898C21.1342 57.9408 21.7448 57.9963 22.2345 57.9978C22.4602 57.9983 22.6384 57.8048 22.6133 57.5817C22.5631 57.1365 22.4012 56.4061 21.8847 55.833L20.9287 55.7724Z" fill="white"/>
</mask>
<g mask="url(#mask2_1_114)">
<path d="M20.9287 55.7724C20.9287 55.7724 20.6679 56.2283 20.4079 57.4431C20.361 57.6621 20.5134 57.874 20.7375 57.898C21.1342 57.9408 21.7448 57.9963 22.2345 57.9978C22.4602 57.9983 22.6384 57.8048 22.6133 57.5817C22.5631 57.1365 22.4012 56.4061 21.8847 55.833L20.9287 55.7724Z" fill="url(#paint2_linear_1_114)"/>
</g>
<mask id="mask3_1_114" style="mask-type:luminance" maskUnits="userSpaceOnUse" x="20" y="54" width="2" height="3">
<path d="M20.7178 54.3752L21.0044 56.0189C21.0044 56.0189 21.3014 56.243 21.8945 56.0887L21.7671 54.3212L20.7178 54.3752Z" fill="white"/>
</mask>
<g mask="url(#mask3_1_114)">
<path d="M20.7178 54.3752L21.0044 56.0189C21.0044 56.0189 21.3014 56.243 21.8945 56.0887L21.7671 54.3212L20.7178 54.3752Z" fill="url(#paint3_linear_1_114)"/>
</g>
<mask id="mask4_1_114" style="mask-type:luminance" maskUnits="userSpaceOnUse" x="19" y="34" width="8" height="22">
<path d="M20.0902 34.7812C18.8021 42.0812 20.1811 52.8551 20.6608 54.9659C20.6901 55.0948 20.7938 55.1946 20.925 55.2175C21.1477 55.2562 21.5148 55.2899 21.878 55.189C22.0031 55.1539 22.0918 55.0428 22.0981 54.9139C22.1816 53.2117 22.1611 42.7582 23.3358 38.6385C23.3952 38.4297 23.5252 38.2483 23.7045 38.1241L25.9222 36.5873L26.1153 34.0711L20.0902 34.7812Z" fill="white"/>
</mask>
<g mask="url(#mask4_1_114)">
<path d="M20.0902 34.7812C18.8021 42.0812 20.1811 52.8551 20.6608 54.9659C20.6901 55.0948 20.7938 55.1946 20.925 55.2175C21.1477 55.2562 21.5148 55.2899 21.878 55.189C22.0031 55.1539 22.0918 55.0428 22.0981 54.9139C22.1816 53.2117 22.1611 42.7582 23.3358 38.6385C23.3952 38.4297 23.5252 38.2483 23.7045 38.1241L25.9222 36.5873L26.1153 34.0711L20.0902 34.7812Z" fill="url(#paint4_linear_1_114)"/>
</g>
<mask id="mask5_1_114" style="mask-type:luminance" maskUnits="userSpaceOnUse" x="19" y="20" width="15" height="16">
<path d="M27.9788 21C24.3293 20.9054 20.2919 21.8805 20.2919 21.8805C19.1433 28.185 19.9712 35.4773 19.9712 35.4773C22.79 36.2414 25.9889 35.0836 25.9889 35.0836C26.4841 32.4487 28.7464 25.0411 28.7464 25.0411C30.532 24.8379 32.0063 24.34 33.2224 23.6749C32.3099 22.6021 31.888 21.244 31.7067 20.4418C30.4122 20.8285 29.1043 21.0293 27.9788 21Z" fill="white"/>
</mask>
<g mask="url(#mask5_1_114)">
<path d="M27.9788 21C24.3293 20.9054 20.2919 21.8805 20.2919 21.8805C19.1433 28.185 19.9712 35.4773 19.9712 35.4773C22.79 36.2414 25.9889 35.0836 25.9889 35.0836C26.4841 32.4487 28.7464 25.0411 28.7464 25.0411C30.532 24.8379 32.0063 24.34 33.2224 23.6749C32.3099 22.6021 31.888 21.244 31.7067 20.4418C30.4122 20.8285 29.1043 21.0293 27.9788 21Z" fill="url(#paint5_linear_1_114)"/>
</g>
<mask id="mask6_1_114" style="mask-type:luminance" maskUnits="userSpaceOnUse" x="31" y="15" width="8" height="9">
<path d="M38.815 15.7551C38.4606 15.3206 38.0043 15.5203 38.0043 15.5203C37.4457 17.7721 34.6119 19.5753 31.71 20.4423C31.8912 21.2445 32.3132 22.6026 33.2257 23.6754C38.0535 21.0353 38.815 15.7551 38.815 15.7551Z" fill="white"/>
</mask>
<g mask="url(#mask6_1_114)">
<path d="M38.815 15.7551C38.4606 15.3206 38.0043 15.5203 38.0043 15.5203C37.4457 17.7721 34.6119 19.5753 31.71 20.4423C31.8912 21.2445 32.3132 22.6026 33.2257 23.6754C38.0535 21.0353 38.815 15.7551 38.815 15.7551Z" fill="url(#paint6_linear_1_114)"/>
</g>
<mask id="mask7_1_114" style="mask-type:luminance" maskUnits="userSpaceOnUse" x="38" y="12" width="3" height="4">
<path d="M38.7277 15.8635C38.7641 15.9827 38.3278 16.1592 38.0764 15.6715C38.0697 15.4387 37.9371 14.4414 38.0789 14.2529C38.8327 13.251 40.287 12 40.287 12C40.5287 12.2415 40.3254 12.4748 40.3254 12.4748L39.6187 13.1935C39.7626 13.4578 39.9393 13.6814 40.0197 14.0008C40.0806 14.2422 40.0396 14.4995 39.9152 14.7175C39.7903 14.9365 39.6197 15.2212 39.4589 15.4433C39.1553 15.8645 38.7277 15.8635 38.7277 15.8635Z" fill="white"/>
</mask>
<g mask="url(#mask7_1_114)">
<path d="M38.7277 15.8635C38.7641 15.9827 38.3278 16.1592 38.0764 15.6715C38.0697 15.4387 37.9371 14.4414 38.0789 14.2529C38.8327 13.251 40.287 12 40.287 12C40.5287 12.2415 40.3254 12.4748 40.3254 12.4748L39.6187 13.1935C39.7626 13.4578 39.9393 13.6814 40.0197 14.0008C40.0806 14.2422 40.0396 14.4995 39.9152 14.7175C39.7903 14.9365 39.6197 15.2212 39.4589 15.4433C39.1553 15.8645 38.7277 15.8635 38.7277 15.8635Z" fill="url(#paint7_linear_1_114)"/>
</g>
<mask id="mask8_1_114" style="mask-type:luminance" maskUnits="userSpaceOnUse" x="38" y="13" width="2" height="3">
<path d="M39.3007 13.6611L38.6575 14.1923L38.4521 14.7261L39.0149 15.3588C39.0149 15.3588 39.2162 14.2983 39.3606 14.0696C39.505 13.8414 39.4323 13.7293 39.3007 13.6611Z" fill="white"/>
</mask>
<g mask="url(#mask8_1_114)">
<path d="M39.3007 13.6611L38.6575 14.1923L38.4521 14.7261L39.0149 15.3588C39.0149 15.3588 39.2162 14.2983 39.3606 14.0696C39.505 13.8414 39.4323 13.7293 39.3007 13.6611Z" fill="url(#paint8_linear_1_114)"/>
</g>
<mask id="mask9_1_114" style="mask-type:luminance" maskUnits="userSpaceOnUse" x="16" y="21" width="6" height="7">
<path d="M21.6609 25.4095L20.2946 21.8806C20.2946 21.8806 16.8631 24.1525 16.2744 27.0687C16.9181 27.122 18.0888 27.2998 19.2307 27.887C19.4961 26.5099 21.6609 25.4095 21.6609 25.4095Z" fill="white"/>
</mask>
<g mask="url(#mask9_1_114)">
<path d="M21.6609 25.4095L20.2946 21.8806C20.2946 21.8806 16.8631 24.1525 16.2744 27.0687C16.9181 27.122 18.0888 27.2998 19.2307 27.887C19.4961 26.5099 21.6609 25.4095 21.6609 25.4095Z" fill="url(#paint9_linear_1_114)"/>
</g>
<mask id="mask10_1_114" style="mask-type:luminance" maskUnits="userSpaceOnUse" x="16" y="27" width="10" height="5">
<path d="M24.6091 28.746C24.6091 28.746 20.7607 30.8615 19.4867 29.0117C19.2222 28.6276 19.1617 28.2479 19.2313 27.887C18.0894 27.2998 16.9187 27.1221 16.275 27.0688C16.0975 27.9479 16.1779 28.8855 16.6891 29.8372C18.9121 33.9755 25.1068 29.6895 25.1068 29.6895L24.6091 28.746Z" fill="white"/>
</mask>
<g mask="url(#mask10_1_114)">
<path d="M24.6091 28.746C24.6091 28.746 20.7607 30.8615 19.4867 29.0117C19.2222 28.6276 19.1617 28.2479 19.2313 27.887C18.0894 27.2998 16.9187 27.1221 16.275 27.0688C16.0975 27.9479 16.1779 28.8855 16.6891 29.8372C18.9121 33.9755 25.1068 29.6895 25.1068 29.6895L24.6091 28.746Z" fill="url(#paint10_linear_1_114)"/>
</g>
<mask id="mask11_1_114" style="mask-type:luminance" maskUnits="userSpaceOnUse" x="23" y="18" width="4" height="4">
<path d="M24.3093 18.0178L23.1156 21.3477C23.0957 21.4028 23.1182 21.4644 23.1694 21.4932C23.4843 21.6703 24.6201 22.1844 26.0027 21.3306C26.1471 21.2416 26.2459 21.0953 26.269 20.9282L26.673 18.0403L24.3093 18.0178Z" fill="white"/>
</mask>
<g mask="url(#mask11_1_114)">
<path d="M24.3093 18.0178L23.1156 21.3477C23.0957 21.4028 23.1182 21.4644 23.1694 21.4932C23.4843 21.6703 24.6201 22.1844 26.0027 21.3306C26.1471 21.2416 26.2459 21.0953 26.269 20.9282L26.673 18.0403L24.3093 18.0178Z" fill="url(#paint11_linear_1_114)"/>
</g>
<mask id="mask12_1_114" style="mask-type:luminance" maskUnits="userSpaceOnUse" x="23" y="14" width="5" height="6">
<path d="M26.8692 14.9482C26.8692 14.9482 28.1217 17.348 27.9491 18.3111C27.7766 19.2742 26.1963 19.1899 24.824 18.3934L23.8838 15.8059L26.8692 14.9482Z" fill="white"/>
</mask>
<g mask="url(#mask12_1_114)">
<path d="M26.8692 14.9482C26.8692 14.9482 28.1217 17.348 27.9491 18.3111C27.7766 19.2742 26.1963 19.1899 24.824 18.3934L23.8838 15.8059L26.8692 14.9482Z" fill="url(#paint12_linear_1_114)"/>
</g>
<mask id="mask13_1_114" style="mask-type:luminance" maskUnits="userSpaceOnUse" x="22" y="13" width="6" height="6">
<path d="M24.895 17.1274C24.9514 17.1032 24.9724 17.0351 24.9396 16.9837C24.8387 16.8275 24.6503 16.5089 24.5919 16.231C24.5919 16.231 24.364 16.0828 25.1787 15.8972C25.9929 15.7113 27.2081 15.4225 27.4697 14.7364C27.7242 14.0682 27.0877 12.3745 26.0339 13.7091C25.9934 13.76 25.9161 13.76 25.8772 13.7086C25.7082 13.486 25.2642 13.023 24.6385 13.295C24.0527 13.5496 23.983 13.9744 23.9892 14.1884C23.9907 14.2515 23.9339 14.2999 23.8714 14.2877C23.5775 14.2291 22.8703 14.1741 22.5332 14.8928C22.2555 15.4847 22.4291 15.8229 22.5887 15.9889C22.6399 16.0429 22.6163 16.1306 22.5447 16.1517C22.3504 16.2089 22.0987 16.3699 22.1194 16.8216C22.148 17.4461 22.8503 17.3978 23.0501 17.3712C23.0828 17.3669 23.1156 17.3784 23.1376 17.403C23.3071 17.5931 24.0711 18.4009 24.9053 18.5053C24.9775 18.5144 25.0343 18.4439 25.0113 18.3752L24.66 17.3267C24.6436 17.278 24.6677 17.225 24.7148 17.2046L24.895 17.1274Z" fill="white"/>
</mask>
<g mask="url(#mask13_1_114)">
<path d="M24.895 17.1274C24.9514 17.1032 24.9724 17.0351 24.9396 16.9837C24.8387 16.8275 24.6503 16.5089 24.5919 16.231C24.5919 16.231 24.364 16.0828 25.1787 15.8972C25.9929 15.7113 27.2081 15.4225 27.4697 14.7364C27.7242 14.0682 27.0877 12.3745 26.0339 13.7091C25.9934 13.76 25.9161 13.76 25.8772 13.7086C25.7082 13.486 25.2642 13.023 24.6385 13.295C24.0527 13.5496 23.983 13.9744 23.9892 14.1884C23.9907 14.2515 23.9339 14.2999 23.8714 14.2877C23.5775 14.2291 22.8703 14.1741 22.5332 14.8928C22.2555 15.4847 22.4291 15.8229 22.5887 15.9889C22.6399 16.0429 22.6163 16.1306 22.5447 16.1517C22.3504 16.2089 22.0987 16.3699 22.1194 16.8216C22.148 17.4461 22.8503 17.3978 23.0501 17.3712C23.0828 17.3669 23.1156 17.3784 23.1376 17.403C23.3071 17.5931 24.0711 18.4009 24.9053 18.5053C24.9775 18.5144 25.0343 18.4439 25.0113 18.3752L24.66 17.3267C24.6436 17.278 24.6677 17.225 24.7148 17.2046L24.895 17.1274Z" fill="url(#paint13_linear_1_114)"/>
</g>
<mask id="mask14_1_114" style="mask-type:luminance" maskUnits="userSpaceOnUse" x="24" y="16" width="2" height="2">
<path d="M25.0454 17.277C25.0454 17.277 24.1431 16.6487 24.0714 17.17C24.0003 17.6911 24.8821 17.9336 25.3219 17.7432L25.0454 17.277Z" fill="white"/>
</mask>
<g mask="url(#mask14_1_114)">
<path d="M25.0454 17.277C25.0454 17.277 24.1431 16.6487 24.0714 17.17C24.0003 17.6911 24.8821 17.9336 25.3219 17.7432L25.0454 17.277Z" fill="url(#paint14_linear_1_114)"/>
</g>
<mask id="mask15_1_114" style="mask-type:luminance" maskUnits="userSpaceOnUse" x="23" y="24" width="11" height="9">
<path d="M23.8238 32.0893L25.9202 24.8069C25.9443 24.7242 26.015 24.6639 26.101 24.654C26.481 24.6099 27.5814 24.4861 28.8524 24.3792C30.3829 24.2504 32.1603 24.1461 33.2229 24.2348C33.3739 24.2474 33.4651 24.4064 33.398 24.5414C32.7938 25.757 30.3092 30.7018 29.0649 32.3216C29.0234 32.3753 28.9599 32.4067 28.8918 32.406L24.0281 32.361C23.8863 32.3597 23.7849 32.2247 23.8238 32.0893Z" fill="white"/>
</mask>
<g mask="url(#mask15_1_114)">
<path d="M23.8238 32.0893L25.9202 24.8069C25.9443 24.7242 26.015 24.6639 26.101 24.654C26.481 24.6099 27.5814 24.4861 28.8524 24.3792C30.3829 24.2504 32.1603 24.1461 33.2229 24.2348C33.3739 24.2474 33.4651 24.4064 33.398 24.5414C32.7938 25.757 30.3092 30.7018 29.0649 32.3216C29.0234 32.3753 28.9599 32.4067 28.8918 32.406L24.0281 32.361C23.8863 32.3597 23.7849 32.2247 23.8238 32.0893Z" fill="url(#paint15_linear_1_114)"/>
</g>
<mask id="mask16_1_114" style="mask-type:luminance" maskUnits="userSpaceOnUse" x="24" y="27" width="3" height="4">
<path d="M24.3369 30.3293C24.3369 30.3293 24.045 29.1348 24.1628 28.7111C24.2805 28.2873 24.5089 27.7424 25.2699 27.8635C26.0303 27.9845 26.928 28.3033 26.928 28.3033C26.928 28.3033 26.8824 28.8553 26.3042 28.6773L26.6627 28.9532C26.6627 28.9532 26.6115 29.3952 26.1235 29.1591L26.4568 29.525C26.4568 29.525 26.2469 29.888 25.8874 29.6552C25.5285 29.4224 25.3559 30.4731 24.3369 30.3293Z" fill="white"/>
</mask>
<g mask="url(#mask16_1_114)">
<path d="M24.3369 30.3293C24.3369 30.3293 24.045 29.1348 24.1628 28.7111C24.2805 28.2873 24.5089 27.7424 25.2699 27.8635C26.0303 27.9845 26.928 28.3033 26.928 28.3033C26.928 28.3033 26.8824 28.8553 26.3042 28.6773L26.6627 28.9532C26.6627 28.9532 26.6115 29.3952 26.1235 29.1591L26.4568 29.525C26.4568 29.525 26.2469 29.888 25.8874 29.6552C25.5285 29.4224 25.3559 30.4731 24.3369 30.3293Z" fill="url(#paint16_linear_1_114)"/>
</g>
<path d="M28.7109 26.5531C28.7109 26.8913 28.9864 27.1653 29.3264 27.1653C29.6659 27.1653 29.9414 26.8913 29.9414 26.5531C29.9414 26.215 29.6659 25.941 29.3264 25.941C28.9864 25.941 28.7109 26.215 28.7109 26.5531Z" fill="#7D97F4"/>
<path d="M26.1335 26.9495L26.0234 26.9172L26.45 25.477C26.5171 25.2511 26.7004 25.0815 26.9283 25.0342C28.2791 24.7538 31.9542 24.6947 31.9911 24.6941L31.9927 24.8081C31.9558 24.8086 28.2919 24.8676 26.9518 25.1457C26.7654 25.1844 26.6154 25.3237 26.5601 25.5093L26.1335 26.9495Z" fill="#7D97F4"/>
<path d="M1.34383 47.3367C1.12041 47.6658 0.232172 55.113 0.0931954 57.8636C0.0837733 58.0495 0.233349 58.2048 0.420614 58.2048C0.58207 58.2048 0.719458 58.0877 0.744396 57.9293L2.36894 47.5736L1.34383 47.3367Z" fill="#7D97F4"/>
<path d="M8.48703 47.3367C8.7105 47.6658 9.59869 55.113 9.73766 57.8636C9.74708 58.0495 9.59751 58.2048 9.41024 58.2048C9.24884 58.2048 9.1114 58.0877 9.08651 57.9293L7.46191 47.5736L8.48703 47.3367Z" fill="#7D97F4"/>
<path d="M0.000760057 46.7556L4.24572e-05 46.8366C-0.00533429 47.4208 0.500644 47.9001 1.13428 47.9108L8.64335 48.0382C9.26782 48.0483 9.78834 47.5996 9.81866 47.0245L9.8226 46.9502C9.85419 46.3502 9.34207 45.8449 8.69077 45.8332L1.17857 45.6992C0.535566 45.688 0.00618801 46.1627 0.000760057 46.7556Z" fill="#7D97F4"/>
<mask id="mask17_1_114" style="mask-type:luminance" maskUnits="userSpaceOnUse" x="13" y="57" width="7" height="1">
<path d="M15.8242 57.5931C14.4894 57.5931 13.8988 57.4795 13.6348 57.3751C13.6861 57.5936 13.8813 57.7657 14.128 57.7657H18.8503C19.0093 57.7657 19.1097 57.614 19.0717 57.4769C18.5334 57.5202 17.3901 57.5931 15.8242 57.5931Z" fill="white"/>
</mask>
<g mask="url(#mask17_1_114)">
<path d="M15.8242 57.5931C14.4894 57.5931 13.8988 57.4795 13.6348 57.3751C13.6861 57.5936 13.8813 57.7657 14.128 57.7657H18.8503C19.0093 57.7657 19.1097 57.614 19.0717 57.4769C18.5334 57.5202 17.3901 57.5931 15.8242 57.5931Z" fill="url(#paint17_linear_1_114)"/>
</g>
<mask id="mask18_1_114" style="mask-type:luminance" maskUnits="userSpaceOnUse" x="13" y="56" width="7" height="2">
<path d="M19.0666 57.4773C19.059 57.4497 19.0477 57.4222 19.028 57.3973C18.6683 56.9404 17.9457 56.2232 16.9627 56.237C15.5228 56.2573 15.0207 56.4127 13.9017 56.2456L13.6377 57.1161C13.6108 57.2047 13.6103 57.2934 13.6297 57.3754C13.8937 57.4798 14.4844 57.5934 15.8192 57.5934C17.3851 57.5934 18.5284 57.5205 19.0666 57.4773Z" fill="white"/>
</mask>
<g mask="url(#mask18_1_114)">
<path d="M19.0666 57.4773C19.059 57.4497 19.0477 57.4222 19.028 57.3973C18.6683 56.9404 17.9457 56.2232 16.9627 56.237C15.5228 56.2573 15.0207 56.4127 13.9017 56.2456L13.6377 57.1161C13.6108 57.2047 13.6103 57.2934 13.6297 57.3754C13.8937 57.4798 14.4844 57.5934 15.8192 57.5934C17.3851 57.5934 18.5284 57.5205 19.0666 57.4773Z" fill="url(#paint18_linear_1_114)"/>
</g>
<mask id="mask19_1_114" style="mask-type:luminance" maskUnits="userSpaceOnUse" x="13" y="55" width="3" height="2">
<path d="M14.2283 55.3077L13.9043 56.4038C13.9043 56.4038 14.6222 56.7288 15.2536 56.468L15.3775 55.5181L14.2283 55.3077Z" fill="white"/>
</mask>
<g mask="url(#mask19_1_114)">
<path d="M14.2283 55.3077L13.9043 56.4038C13.9043 56.4038 14.6222 56.7288 15.2536 56.468L15.3775 55.5181L14.2283 55.3077Z" fill="url(#paint19_linear_1_114)"/>
</g>
<mask id="mask20_1_114" style="mask-type:luminance" maskUnits="userSpaceOnUse" x="22" y="54" width="5" height="5">
<path d="M24.01 56.9031C22.9695 57.7344 22.4379 58.0141 22.167 58.0981C22.3436 58.2356 22.6039 58.2473 22.7959 58.0935L26.4772 55.1515C26.6011 55.0521 26.5847 54.8723 26.469 54.7898C26.0762 55.1586 25.2308 55.9272 24.01 56.9031Z" fill="white"/>
</mask>
<g mask="url(#mask20_1_114)">
<path d="M24.01 56.9031C22.9695 57.7344 22.4379 58.0141 22.167 58.0981C22.3436 58.2356 22.6039 58.2473 22.7959 58.0935L26.4772 55.1515C26.6011 55.0521 26.5847 54.8723 26.469 54.7898C26.0762 55.1586 25.2308 55.9272 24.01 56.9031Z" fill="url(#paint20_linear_1_114)"/>
</g>
<mask id="mask21_1_114" style="mask-type:luminance" maskUnits="userSpaceOnUse" x="21" y="54" width="6" height="5">
<path d="M26.4672 54.7899C26.4436 54.7731 26.418 54.7588 26.3868 54.7517C25.8204 54.6213 24.807 54.5153 24.0497 55.1383C22.94 56.051 22.6456 56.4845 21.6689 57.0519L22.0086 57.8919C22.0433 57.9774 22.0984 58.0462 22.1651 58.0981C22.4361 58.0141 22.9677 57.7345 24.0082 56.9032C25.229 55.9273 26.0744 55.1587 26.4672 54.7899Z" fill="white"/>
</mask>
<g mask="url(#mask21_1_114)">
<path d="M26.4672 54.7899C26.4436 54.7731 26.418 54.7588 26.3868 54.7517C25.8204 54.6213 24.807 54.5153 24.0497 55.1383C22.94 56.051 22.6456 56.4845 21.6689 57.0519L22.0086 57.8919C22.0433 57.9774 22.0984 58.0462 22.1651 58.0981C22.4361 58.0141 22.9677 57.7345 24.0082 56.9032C25.229 55.9273 26.0744 55.1587 26.4672 54.7899Z" fill="url(#paint21_linear_1_114)"/>
</g>
<mask id="mask22_1_114" style="mask-type:luminance" maskUnits="userSpaceOnUse" x="5" y="42" width="13" height="14">
<path d="M7.29243 42.818C7.29243 42.818 15.2842 43.4674 16.9236 44.235C18.563 45.0026 15.5857 55.7617 15.5857 55.7617C15.5857 55.7617 15.1394 55.9757 14.1463 55.6685C14.1463 55.6685 15.1647 47.7287 14.4069 46.0066L5.75391 44.5992L7.29243 42.818Z" fill="white"/>
</mask>
<g mask="url(#mask22_1_114)">
<path d="M7.29243 42.818C7.29243 42.818 15.2842 43.4674 16.9236 44.235C18.563 45.0026 15.5857 55.7617 15.5857 55.7617C15.5857 55.7617 15.1394 55.9757 14.1463 55.6685C14.1463 55.6685 15.1647 47.7287 14.4069 46.0066L5.75391 44.5992L7.29243 42.818Z" fill="url(#paint22_linear_1_114)"/>
</g>
<mask id="mask23_1_114" style="mask-type:luminance" maskUnits="userSpaceOnUse" x="20" y="55" width="3" height="3">
<path d="M20.8818 55.5407C20.956 55.608 21.6759 57.052 21.6759 57.052C21.6759 57.052 22.4772 56.8798 22.6407 56.3751L21.9196 55.0716L20.8818 55.5407Z" fill="white"/>
</mask>
<g mask="url(#mask23_1_114)">
<path d="M20.8818 55.5407C20.956 55.608 21.6759 57.052 21.6759 57.052C21.6759 57.052 22.4772 56.8798 22.6407 56.3751L21.9196 55.0716L20.8818 55.5407Z" fill="url(#paint23_linear_1_114)"/>
</g>
<mask id="mask24_1_114" style="mask-type:luminance" maskUnits="userSpaceOnUse" x="2" y="42" width="21" height="14">
<path d="M2.47764 42.7511C2.47764 42.7511 2.21721 43.3745 2.22786 44.2027C2.2425 45.3483 3.16843 46.2779 4.31875 46.3349L13.7663 46.7633C13.9658 46.7724 14.1346 46.91 14.1846 47.102C14.4066 47.9562 15.4917 50.5794 20.7962 55.8135C20.9373 55.9526 21.1571 55.9765 21.3252 55.8705L22.0803 55.3963C22.1596 55.3464 22.1849 55.243 22.1375 55.1625L16.6367 45.8189C16.3478 45.3447 15.8833 45.0019 15.3432 44.8649L7.29096 42.8173L2.47764 42.7511Z" fill="white"/>
</mask>
<g mask="url(#mask24_1_114)">
<path d="M2.47764 42.7511C2.47764 42.7511 2.21721 43.3745 2.22786 44.2027C2.2425 45.3483 3.16843 46.2779 4.31875 46.3349L13.7663 46.7633C13.9658 46.7724 14.1346 46.91 14.1846 47.102C14.4066 47.9562 15.4917 50.5794 20.7962 55.8135C20.9373 55.9526 21.1571 55.9765 21.3252 55.8705L22.0803 55.3963C22.1596 55.3464 22.1849 55.243 22.1375 55.1625L16.6367 45.8189C16.3478 45.3447 15.8833 45.0019 15.3432 44.8649L7.29096 42.8173L2.47764 42.7511Z" fill="url(#paint24_linear_1_114)"/>
</g>
<mask id="mask25_1_114" style="mask-type:luminance" maskUnits="userSpaceOnUse" x="9" y="28" width="5" height="4">
<path d="M11.79 28.1559C11.79 28.1559 10.778 29.9358 9.74609 30.7981L11.8789 31.9818C11.8789 31.9818 12.3595 30.0975 13.4575 29.5457L11.79 28.1559Z" fill="white"/>
</mask>
<g mask="url(#mask25_1_114)">
<path d="M11.79 28.1559C11.79 28.1559 10.778 29.9358 9.74609 30.7981L11.8789 31.9818C11.8789 31.9818 12.3595 30.0975 13.4575 29.5457L11.79 28.1559Z" fill="url(#paint25_linear_1_114)"/>
</g>
<mask id="mask26_1_114" style="mask-type:luminance" maskUnits="userSpaceOnUse" x="2" y="30" width="18" height="14">
<path d="M2.31055 42.8179C2.31055 42.8179 4.86102 43.4363 7.29546 42.8179C7.29546 42.8179 10.702 38.2633 12.0198 37.0235C12.0198 37.0235 14.122 40.3231 18.801 40.7907L19.0619 40.2106C19.0619 40.2106 15.337 38.5022 14.1902 35.878C13.0435 33.2536 12.5829 32.1342 11.5396 31.4495C10.8899 31.023 10.5008 30.7317 10.2998 30.5727C10.1897 30.4856 10.0378 30.4757 9.91768 30.5485C8.81053 31.2196 3.60076 34.7686 2.31055 42.8179Z" fill="white"/>
</mask>
<g mask="url(#mask26_1_114)">
<path d="M2.31055 42.8179C2.31055 42.8179 4.86102 43.4363 7.29546 42.8179C7.29546 42.8179 10.702 38.2633 12.0198 37.0235C12.0198 37.0235 14.122 40.3231 18.801 40.7907L19.0619 40.2106C19.0619 40.2106 15.337 38.5022 14.1902 35.878C13.0435 33.2536 12.5829 32.1342 11.5396 31.4495C10.8899 31.023 10.5008 30.7317 10.2998 30.5727C10.1897 30.4856 10.0378 30.4757 9.91768 30.5485C8.81053 31.2196 3.60076 34.7686 2.31055 42.8179Z" fill="url(#paint26_linear_1_114)"/>
</g>
<mask id="mask27_1_114" style="mask-type:luminance" maskUnits="userSpaceOnUse" x="10" y="34" width="3" height="4">
<path d="M11.8771 37.0524C11.7999 37.0524 11.7236 37.0177 11.6729 36.952C10.8527 35.888 10.3956 34.7149 10.3765 34.6655C10.3256 34.5341 10.3918 34.3859 10.5244 34.3355C10.6568 34.285 10.8054 34.3507 10.8564 34.4827C10.8608 34.4939 11.3074 35.6379 12.0809 36.6413C12.1672 36.7534 12.1459 36.9138 12.0333 36.9994C11.9866 37.0351 11.9316 37.0524 11.8771 37.0524Z" fill="white"/>
</mask>
<g mask="url(#mask27_1_114)">
<path d="M11.8771 37.0524C11.7999 37.0524 11.7236 37.0177 11.6729 36.952C10.8527 35.888 10.3956 34.7149 10.3765 34.6655C10.3256 34.5341 10.3918 34.3859 10.5244 34.3355C10.6568 34.285 10.8054 34.3507 10.8564 34.4827C10.8608 34.4939 11.3074 35.6379 12.0809 36.6413C12.1672 36.7534 12.1459 36.9138 12.0333 36.9994C11.9866 37.0351 11.9316 37.0524 11.8771 37.0524Z" fill="url(#paint27_linear_1_114)"/>
</g>
<mask id="mask28_1_114" style="mask-type:luminance" maskUnits="userSpaceOnUse" x="18" y="39" width="5" height="2">
<path d="M18.5186 39.9075L19.0452 39.768L20.6443 39.3997C20.8368 39.3554 21.0391 39.389 21.2064 39.4939L22.5811 40.3542L18.7843 40.3481L18.5186 39.9075Z" fill="white"/>
</mask>
<g mask="url(#mask28_1_114)">
<path d="M18.5186 39.9075L19.0452 39.768L20.6443 39.3997C20.8368 39.3554 21.0391 39.389 21.2064 39.4939L22.5811 40.3542L18.7843 40.3481L18.5186 39.9075Z" fill="url(#paint28_linear_1_114)"/>
</g>
<mask id="mask29_1_114" style="mask-type:luminance" maskUnits="userSpaceOnUse" x="10" y="25" width="5" height="5">
<path d="M13.4008 25.4872C13.4008 25.4872 14.3844 27.1135 14.555 28.0124C14.7257 28.9113 14.9997 29.4732 13.9712 29.7934C12.9427 30.1137 11.9869 29.7084 11.387 28.8693C11.387 28.8693 10.4502 27.578 10.5437 26.9867C10.6372 26.3953 13.4008 25.4872 13.4008 25.4872Z" fill="white"/>
</mask>
<g mask="url(#mask29_1_114)">
<path d="M13.4008 25.4872C13.4008 25.4872 14.3844 27.1135 14.555 28.0124C14.7257 28.9113 14.9997 29.4732 13.9712 29.7934C12.9427 30.1137 11.9869 29.7084 11.387 28.8693C11.387 28.8693 10.4502 27.578 10.5437 26.9867C10.6372 26.3953 13.4008 25.4872 13.4008 25.4872Z" fill="url(#paint29_linear_1_114)"/>
</g>
<mask id="mask30_1_114" style="mask-type:luminance" maskUnits="userSpaceOnUse" x="9" y="23" width="6" height="7">
<path d="M11.6604 28.1731L11.7935 28.1557C11.7935 28.1557 11.097 27.1089 11.5527 26.8492C12.0085 26.5896 13.8655 25.9523 14.188 25.2249C14.4989 24.5235 14.0339 23.7312 13.4732 23.5658C13.4377 23.5554 13.4002 23.5762 13.3874 23.6108L13.3545 23.6991C13.3319 23.7596 13.2468 23.762 13.2208 23.7029C13.1961 23.6469 13.1154 23.6445 13.09 23.7002C12.9906 23.9182 12.6928 24.2904 11.7997 24.5784C10.5325 24.987 9.74313 25.6224 9.84027 26.518C9.84642 26.5748 9.78978 26.6139 9.73735 26.5909C9.63375 26.5453 9.4767 26.5381 9.29435 26.7365C8.97723 27.0815 9.22563 27.8361 10.0918 28.3702C10.1329 28.3956 10.1402 28.4533 10.1034 28.4846C9.97387 28.595 9.79157 28.841 10.3775 29.0603C10.977 29.2847 11.3041 29.2088 11.4249 29.1606C11.4574 29.1476 11.476 29.1141 11.4693 29.0799L11.3154 28.2952C11.3074 28.2546 11.3355 28.2156 11.3767 28.2103L11.6604 28.1731Z" fill="white"/>
</mask>
<g mask="url(#mask30_1_114)">
<path d="M11.6604 28.1731L11.7935 28.1557C11.7935 28.1557 11.097 27.1089 11.5527 26.8492C12.0085 26.5896 13.8655 25.9523 14.188 25.2249C14.4989 24.5235 14.0339 23.7312 13.4732 23.5658C13.4377 23.5554 13.4002 23.5762 13.3874 23.6108L13.3545 23.6991C13.3319 23.7596 13.2468 23.762 13.2208 23.7029C13.1961 23.6469 13.1154 23.6445 13.09 23.7002C12.9906 23.9182 12.6928 24.2904 11.7997 24.5784C10.5325 24.987 9.74313 25.6224 9.84027 26.518C9.84642 26.5748 9.78978 26.6139 9.73735 26.5909C9.63375 26.5453 9.4767 26.5381 9.29435 26.7365C8.97723 27.0815 9.22563 27.8361 10.0918 28.3702C10.1329 28.3956 10.1402 28.4533 10.1034 28.4846C9.97387 28.595 9.79157 28.841 10.3775 29.0603C10.977 29.2847 11.3041 29.2088 11.4249 29.1606C11.4574 29.1476 11.476 29.1141 11.4693 29.0799L11.3154 28.2952C11.3074 28.2546 11.3355 28.2156 11.3767 28.2103L11.6604 28.1731Z" fill="url(#paint30_linear_1_114)"/>
</g>
<mask id="mask31_1_114" style="mask-type:luminance" maskUnits="userSpaceOnUse" x="10" y="27" width="2" height="2">
<path d="M11.7151 28.3343C11.7151 28.3343 11.2811 27.2699 10.8253 27.644C10.3694 28.0181 11.2466 28.8451 11.6515 28.834L11.7151 28.3343Z" fill="white"/>
</mask>
<g mask="url(#mask31_1_114)">
<path d="M11.7151 28.3343C11.7151 28.3343 11.2811 27.2699 10.8253 27.644C10.3694 28.0181 11.2466 28.8451 11.6515 28.834L11.7151 28.3343Z" fill="url(#paint31_linear_1_114)"/>
</g>
<mask id="mask32_1_114" style="mask-type:luminance" maskUnits="userSpaceOnUse" x="16" y="40" width="10" height="2">
<path d="M17.0558 41.0959C17.062 41.0959 17.0682 41.0964 17.0745 41.0964L25.1861 41.0883C25.3868 41.0878 25.5491 40.9263 25.5486 40.7272C25.5486 40.528 25.3853 40.3635 25.1851 40.367L17.0736 40.3752C16.8731 40.3752 16.7107 40.5372 16.7109 40.7363C16.7112 40.9289 16.8639 41.0862 17.0558 41.0959Z" fill="white"/>
</mask>
<g mask="url(#mask32_1_114)">
<path d="M17.0558 41.0959C17.062 41.0959 17.0682 41.0964 17.0745 41.0964L25.1861 41.0883C25.3868 41.0878 25.5491 40.9263 25.5486 40.7272C25.5486 40.528 25.3853 40.3635 25.1851 40.367L17.0736 40.3752C16.8731 40.3752 16.7107 40.5372 16.7109 40.7363C16.7112 40.9289 16.8639 41.0862 17.0558 41.0959Z" fill="url(#paint32_linear_1_114)"/>
</g>
<mask id="mask33_1_114" style="mask-type:luminance" maskUnits="userSpaceOnUse" x="24" y="33" width="6" height="9">
<path d="M28.3188 33.1937C28.3158 33.1992 28.3127 33.2047 28.3101 33.2103L24.8972 40.5301C24.8127 40.7109 24.8916 40.9253 25.0733 41.0094C25.2551 41.0929 25.4738 41.015 25.5547 40.8331L28.9682 33.5135C29.0521 33.3326 28.9733 33.1181 28.792 33.0343C28.6158 32.9531 28.4079 33.0246 28.3188 33.1937Z" fill="white"/>
</mask>
<g mask="url(#mask33_1_114)">
<path d="M28.3188 33.1937C28.3158 33.1992 28.3127 33.2047 28.3101 33.2103L24.8972 40.5301C24.8127 40.7109 24.8916 40.9253 25.0733 41.0094C25.2551 41.0929 25.4738 41.015 25.5547 40.8331L28.9682 33.5135C29.0521 33.3326 28.9733 33.1181 28.792 33.0343C28.6158 32.9531 28.4079 33.0246 28.3188 33.1937Z" fill="url(#paint33_linear_1_114)"/>
</g>
<path d="M49.5632 57.6603H48.707V48.4511H49.5632V57.6603Z" fill="#7D97F4"/>
<path d="M52.8855 57.8381H45.3867C45.3867 57.532 45.6366 57.284 45.9444 57.284H52.3284C52.6361 57.284 52.8855 57.532 52.8855 57.8381Z" fill="#7D97F4"/>
<path d="M53.9981 48.1313C53.9981 48.635 53.5838 49.0471 53.0774 49.0471H45.491C44.9846 49.0471 44.5703 48.635 44.5703 48.1313V47.3031C44.5703 46.7998 44.9846 46.3878 45.491 46.3878H53.0774C53.5838 46.3878 53.9981 46.7998 53.9981 47.3031V48.1313Z" fill="#7D97F4"/>
<mask id="mask34_1_114" style="mask-type:luminance" maskUnits="userSpaceOnUse" x="39" y="42" width="7" height="16">
<path d="M42.8176 42.3105C42.8176 42.3105 41.5456 42.5066 40.1154 43.4575C39.8901 43.6073 39.7666 43.8686 39.8004 44.1355C39.972 45.4853 40.6761 49.853 42.9983 54.1189C43.1207 54.344 43.1555 54.6058 43.1018 54.8559L42.6983 56.7232L41.9501 57.421H43.877L45.1603 53.9671L44.6119 53.7949C44.1863 53.661 43.8945 53.2718 43.8868 52.8282L43.8223 49.1231C43.877 47.4723 42.8048 46.3334 42.8048 46.3334L45.8823 46.1846L42.8176 42.3105Z" fill="white"/>
</mask>
<g mask="url(#mask34_1_114)">
<path d="M42.8176 42.3105C42.8176 42.3105 41.5456 42.5066 40.1154 43.4575C39.8901 43.6073 39.7666 43.8686 39.8004 44.1355C39.972 45.4853 40.6761 49.853 42.9983 54.1189C43.1207 54.344 43.1555 54.6058 43.1018 54.8559L42.6983 56.7232L41.9501 57.421H43.877L45.1603 53.9671L44.6119 53.7949C44.1863 53.661 43.8945 53.2718 43.8868 52.8282L43.8223 49.1231C43.877 47.4723 42.8048 46.3334 42.8048 46.3334L45.8823 46.1846L42.8176 42.3105Z" fill="url(#paint34_linear_1_114)"/>
</g>
<mask id="mask35_1_114" style="mask-type:luminance" maskUnits="userSpaceOnUse" x="41" y="53" width="5" height="6">
<path d="M41.199 57.7583C41.0234 57.9865 43.0875 58.288 44.1306 57.7883C44.1306 57.7883 45.5767 55.2864 45.5767 53.9977C45.5767 53.9977 45.462 53.7354 44.613 53.795C44.613 53.795 44.1275 56.7574 43.615 57.0895C43.1024 57.4211 42.1807 57.1231 42.1807 57.1231C42.1807 57.1231 41.4576 57.4211 41.199 57.7583Z" fill="white"/>
</mask>
<g mask="url(#mask35_1_114)">
<path d="M41.199 57.7583C41.0234 57.9865 43.0875 58.288 44.1306 57.7883C44.1306 57.7883 45.5767 55.2864 45.5767 53.9977C45.5767 53.9977 45.462 53.7354 44.613 53.795C44.613 53.795 44.1275 56.7574 43.615 57.0895C43.1024 57.4211 42.1807 57.1231 42.1807 57.1231C42.1807 57.1231 41.4576 57.4211 41.199 57.7583Z" fill="url(#paint35_linear_1_114)"/>
</g>
<mask id="mask36_1_114" style="mask-type:luminance" maskUnits="userSpaceOnUse" x="32" y="42" width="14" height="16">
<path d="M45.4894 46.3884C45.473 46.3599 42.1758 45.9936 42.1758 45.9936C42.1758 45.9936 42.2838 46.991 41.9464 48.3637C41.6094 49.7364 36.7683 55.6836 36.7683 55.6836L37.2758 57.2845C35.7063 57.828 34.1629 57.9151 32.6436 57.5616L35.7892 55.6836C35.7892 55.6836 38.7331 45.7043 40.5366 43.9241L43.8415 42.7867L45.4894 46.3884Z" fill="white"/>
</mask>
<g mask="url(#mask36_1_114)">
<path d="M45.4894 46.3884C45.473 46.3599 42.1758 45.9936 42.1758 45.9936C42.1758 45.9936 42.2838 46.991 41.9464 48.3637C41.6094 49.7364 36.7683 55.6836 36.7683 55.6836L37.2758 57.2845C35.7063 57.828 34.1629 57.9151 32.6436 57.5616L35.7892 55.6836C35.7892 55.6836 38.7331 45.7043 40.5366 43.9241L43.8415 42.7867L45.4894 46.3884Z" fill="url(#paint36_linear_1_114)"/>
</g>
<mask id="mask37_1_114" style="mask-type:luminance" maskUnits="userSpaceOnUse" x="40" y="40" width="15" height="7">
<path d="M52.887 40.5803C52.887 40.5803 54.7868 43.3909 54.9425 44.673C55.0982 45.955 54.4222 46.4761 52.4287 46.5617C50.4357 46.6478 45.1148 46.6462 45.1148 46.6462L40.5732 42.7858C40.5732 42.7858 43.8828 41.6113 44.743 41.2792C45.6038 40.9465 52.887 40.5803 52.887 40.5803Z" fill="white"/>
</mask>
<g mask="url(#mask37_1_114)">
<path d="M52.8869 40.5803C52.8869 40.5803 54.787 43.391 54.9424 44.673C55.0984 45.955 54.4222 46.4761 52.4288 46.5617C50.4359 46.6478 45.1147 46.6462 45.1147 46.6462L40.5732 42.7858C40.5732 42.7858 43.8825 41.6113 44.7428 41.2791C45.6036 40.9466 52.8869 40.5803 52.8869 40.5803Z" fill="url(#paint37_linear_1_114)"/>
</g>
<mask id="mask38_1_114" style="mask-type:luminance" maskUnits="userSpaceOnUse" x="31" y="56" width="7" height="3">
<path d="M37.0849 56.7446C37.0849 56.7446 37.6313 57.2713 37.2621 57.8571C37.2621 57.8571 32.933 58.6206 31.7578 58.2742C31.7578 58.2742 32.0016 57.7201 33.3253 57.0895L33.2275 57.1638C33.104 57.2581 33.1763 57.4547 33.3319 57.446C34.204 57.3966 36.009 57.2377 37.0849 56.7446Z" fill="white"/>
</mask>
<g mask="url(#mask38_1_114)">
<path d="M37.0849 56.7446C37.0849 56.7446 37.6313 57.2713 37.2621 57.8571C37.2621 57.8571 32.933 58.6206 31.7578 58.2742C31.7578 58.2742 32.0016 57.7201 33.3253 57.0895L33.2275 57.1638C33.104 57.2581 33.1763 57.4547 33.3319 57.446C34.204 57.3966 36.009 57.2377 37.0849 56.7446Z" fill="url(#paint38_linear_1_114)"/>
</g>
<mask id="mask39_1_114" style="mask-type:luminance" maskUnits="userSpaceOnUse" x="43" y="22" width="13" height="13">
<path d="M44.663 22.7575C48.5461 22.1009 50.3742 25.2512 50.2405 25.9131C50.2231 26.0009 50.3061 26.0752 50.3931 26.0519C50.8386 25.9325 51.8238 25.7821 52.4342 26.543C52.9734 27.2148 52.5704 27.8488 52.2417 28.1969C52.1628 28.2808 52.2294 28.4173 52.3441 28.4029C53.1639 28.3 54.9449 28.2753 55.2363 29.9349C55.5082 31.4824 54.4252 31.9189 53.783 32.0419C53.6739 32.0627 53.6489 32.2047 53.7421 32.2637C54.0626 32.4659 54.4339 32.8837 54.2838 33.7082C54.0488 35.0005 51.5017 34.8946 51.2037 34.8778C51.1848 34.8768 51.1674 34.8717 51.151 34.862L47.0708 32.5476C47.039 32.5295 47.017 32.4983 47.0109 32.4625L46.1869 27.7307C46.1803 27.6924 46.1926 27.6533 46.2197 27.6253L43.5595 23.8917C42.5943 23.7504 44.6169 22.7653 44.663 22.7575Z" fill="white"/>
</mask>
<g mask="url(#mask39_1_114)">
<path d="M44.6634 22.7575C48.546 22.1009 50.3743 25.2512 50.2405 25.9131C50.2235 26.001 50.3064 26.0752 50.3934 26.0519C50.8387 25.9325 51.8242 25.7821 52.4343 26.543C52.9734 27.2148 52.5708 27.8488 52.2418 28.1968C52.163 28.2808 52.2294 28.4173 52.3442 28.4029C53.1639 28.2999 54.9453 28.2753 55.2362 29.9349C55.5086 31.4824 54.4253 31.9189 53.7833 32.0419C53.6741 32.0627 53.6489 32.2047 53.7421 32.2637C54.0628 32.4659 54.4341 32.8837 54.2842 33.7083C54.0489 35.0005 51.5019 34.8946 51.2038 34.8778C51.1847 34.8768 51.1677 34.8717 51.1513 34.862L47.0709 32.5477C47.039 32.5295 47.0174 32.4983 47.0112 32.4625L46.1869 27.7308C46.1802 27.6924 46.1926 27.6533 46.2199 27.6253L43.5595 23.8917C42.5942 23.7504 44.6171 22.7653 44.6634 22.7575Z" fill="url(#paint39_linear_1_114)"/>
</g>
<mask id="mask40_1_114" style="mask-type:luminance" maskUnits="userSpaceOnUse" x="43" y="30" width="12" height="11">
<path d="M47.7407 40.2087C47.7407 40.2087 45.5286 38.1132 44.4399 36.7258C43.851 35.9755 43.6662 34.9878 43.9386 34.0756C44.4358 32.4097 45.3191 30.6842 45.4 30.4157C45.5235 30.004 48.0034 30.0212 48.0034 30.0212C48.0034 30.0212 52.8845 33.1721 54.8022 38.5095L52.6484 39.1763C52.6484 39.1763 51.3744 37.0497 50.1152 35.6979C50.1152 35.6979 52.2941 38.561 52.3704 39.733L47.7407 40.2087Z" fill="white"/>
</mask>
<g mask="url(#mask40_1_114)">
<path d="M47.7407 40.2087C47.7407 40.2087 45.5286 38.1132 44.4399 36.7258C43.851 35.9755 43.6662 34.9878 43.9386 34.0756C44.4358 32.4097 45.3191 30.6842 45.4 30.4157C45.5235 30.004 48.0034 30.0212 48.0034 30.0212C48.0034 30.0212 52.8845 33.1721 54.8022 38.5095L52.6484 39.1763C52.6484 39.1763 51.3744 37.0497 50.1152 35.6979C50.1152 35.6979 52.2941 38.561 52.3704 39.733L47.7407 40.2087Z" fill="url(#paint40_linear_1_114)"/>
</g>
<mask id="mask41_1_114" style="mask-type:luminance" maskUnits="userSpaceOnUse" x="45" y="26" width="3" height="5">
<path d="M45.1113 28.115C45.1369 28.2006 45.7847 30.3354 45.8349 30.3797C45.8856 30.424 47.2549 30.4972 47.8996 30.0592L46.3009 26.9489L45.1113 28.115Z" fill="white"/>
</mask>
<g mask="url(#mask41_1_114)">
<path d="M45.1113 28.115C45.1369 28.2006 45.7847 30.3354 45.8349 30.3797C45.8856 30.424 47.2549 30.4972 47.8996 30.0592L46.3009 26.9489L45.1113 28.115Z" fill="url(#paint41_linear_1_114)"/>
</g>
<mask id="mask42_1_114" style="mask-type:luminance" maskUnits="userSpaceOnUse" x="42" y="24" width="5" height="6">
<path d="M42.5103 25.3725C42.5103 25.3725 42.1969 26.5955 43.0629 28.2403C43.9283 29.8852 44.9084 29.8834 45.444 29.357C45.9796 28.8304 46.6402 27.937 46.4835 26.3468C46.3263 24.7565 42.962 23.8167 42.5103 25.3725Z" fill="white"/>
</mask>
<g mask="url(#mask42_1_114)">
<path d="M42.5103 25.3725C42.5103 25.3725 42.1969 26.5955 43.0629 28.2403C43.9283 29.8852 44.9084 29.8834 45.444 29.357C45.9796 28.8304 46.6402 27.937 46.4835 26.3468C46.3263 24.7565 42.962 23.8167 42.5103 25.3725Z" fill="url(#paint42_linear_1_114)"/>
</g>
<mask id="mask43_1_114" style="mask-type:luminance" maskUnits="userSpaceOnUse" x="41" y="23" width="7" height="4">
<path d="M45.2873 26.4332C45.2873 26.4332 43.8514 24.2493 42.5047 25.9681L42.4801 26.5932C42.4801 26.5932 40.9029 26.407 41.1789 24.9683C41.4549 23.5297 42.818 22.6305 44.5734 23.2537C46.3293 23.8769 47.335 24.5159 47.4482 25.7673C47.5619 27.0187 46.5608 26.7443 46.5608 26.7443C46.5608 26.7443 46.2341 25.8631 45.7701 25.7715C45.3057 25.6799 45.4265 26.3671 45.4265 26.3671L45.2873 26.4332Z" fill="white"/>
</mask>
<g mask="url(#mask43_1_114)">
<path d="M45.2873 26.4332C45.2873 26.4332 43.8514 24.2493 42.5047 25.9681L42.4801 26.5932C42.4801 26.5932 40.9029 26.407 41.1789 24.9683C41.4549 23.5297 42.818 22.6305 44.5734 23.2537C46.3293 23.8769 47.335 24.5159 47.4482 25.7673C47.5619 27.0187 46.5608 26.7443 46.5608 26.7443C46.5608 26.7443 46.2341 25.8631 45.7701 25.7715C45.3057 25.6799 45.4265 26.3671 45.4265 26.3671L45.2873 26.4332Z" fill="url(#paint43_linear_1_114)"/>
</g>
<mask id="mask44_1_114" style="mask-type:luminance" maskUnits="userSpaceOnUse" x="45" y="25" width="2" height="3">
<path d="M45.805 26.7598C45.805 26.7598 45.0605 25.6416 45.8234 25.4748C46.5869 25.308 46.4687 26.5646 46.3862 27.0293L45.805 26.7598Z" fill="white"/>
</mask>
<g mask="url(#mask44_1_114)">
<path d="M45.805 26.7598C45.805 26.7598 45.0605 25.6416 45.8234 25.4748C46.5869 25.308 46.4687 26.5646 46.3862 27.0293L45.805 26.7598Z" fill="url(#paint44_linear_1_114)"/>
</g>
<mask id="mask45_1_114" style="mask-type:luminance" maskUnits="userSpaceOnUse" x="43" y="38" width="13" height="4">
<path d="M43.2373 40.3641L44.8626 38.806L47.1111 39.7509C47.1111 39.7509 49.3494 40.0957 50.6301 39.7509C51.9113 39.406 51.9113 39.406 51.9113 39.406L54.8055 38.5096L55.2602 39.7875C55.3754 40.112 55.2597 40.4721 54.9776 40.6718C54.7272 40.8485 54.4337 41.0431 54.2463 41.1246C53.8653 41.2906 44.8498 41.01 44.8498 41.01L43.2373 40.3641Z" fill="white"/>
</mask>
<g mask="url(#mask45_1_114)">
<path d="M43.2383 40.3642L44.8634 38.8061L47.1123 39.751C47.1123 39.751 49.3503 40.0958 50.6308 39.751C51.9124 39.4061 51.9124 39.4061 51.9124 39.4061L54.8066 38.5096L55.2615 39.7876C55.3763 40.1121 55.2609 40.4722 54.9787 40.6719C54.7283 40.8486 54.4347 41.0432 54.2472 41.1247C53.8661 41.2908 44.851 41.0101 44.851 41.0101L43.2383 40.3642Z" fill="url(#paint45_linear_1_114)"/>
</g>
<mask id="mask46_1_114" style="mask-type:luminance" maskUnits="userSpaceOnUse" x="39" y="40" width="11" height="2">
<path d="M49.3917 41.0987C49.3845 41.0987 49.3774 41.0992 49.3697 41.0992L39.9419 41.0891C39.709 41.0885 39.52 40.9006 39.5205 40.6688C39.5205 40.4366 39.7105 40.2451 39.943 40.2491L49.3707 40.2598C49.6042 40.2598 49.7927 40.4478 49.7927 40.6795C49.7922 40.9042 49.6145 41.0875 49.3917 41.0987Z" fill="white"/>
</mask>
<g mask="url(#mask46_1_114)">
<path d="M49.3917 41.0987C49.3845 41.0987 49.3774 41.0992 49.3697 41.0992L39.9419 41.0891C39.709 41.0885 39.52 40.9006 39.5205 40.6688C39.5205 40.4366 39.7105 40.2451 39.943 40.2491L49.3707 40.2598C49.6042 40.2598 49.7927 40.4478 49.7927 40.6795C49.7922 40.9042 49.6145 41.0875 49.3917 41.0987Z" fill="url(#paint46_linear_1_114)"/>
</g>
<mask id="mask47_1_114" style="mask-type:luminance" maskUnits="userSpaceOnUse" x="30" y="32" width="15" height="10">
<path d="M31.4696 32.5844H39.3212C39.9004 32.5844 40.4278 32.9168 40.6746 33.4379L44.3047 41.0941H34.5466C34.1739 41.0941 33.8384 40.8669 33.7012 40.5221L30.8864 33.4373C30.7235 33.028 31.0272 32.5844 31.4696 32.5844Z" fill="white"/>
</mask>
<g mask="url(#mask47_1_114)">
<path d="M31.4696 32.5844H39.3212C39.9004 32.5844 40.4278 32.9168 40.6746 33.4379L44.3047 41.0941H34.5466C34.1739 41.0941 33.8384 40.8669 33.7012 40.5221L30.8864 33.4373C30.7235 33.028 31.0272 32.5844 31.4696 32.5844Z" fill="url(#paint47_linear_1_114)"/>
</g>
<path d="M36.9976 36.5102C37.1676 37.0359 37.0422 37.5468 36.717 37.6507C36.3918 37.7551 35.9904 37.4133 35.8198 36.8871C35.6498 36.3615 35.7758 35.8506 36.101 35.7467C36.4261 35.6423 36.8276 35.9846 36.9976 36.5102Z" fill="#7D97F4"/>
<mask id="mask48_1_114" style="mask-type:luminance" maskUnits="userSpaceOnUse" x="54" y="56" width="6" height="3">
<path d="M59.8319 56.74C59.8319 56.74 59.931 57.2882 59.9698 57.9391C59.9867 58.216 59.7808 58.4571 59.5044 58.4842C58.5419 58.5771 56.3502 58.7498 54.9509 58.548C54.7547 58.5194 54.6771 58.2788 54.8217 58.1439C55.399 57.606 56.7921 56.5607 59.086 56.3318L59.8319 56.74Z" fill="white"/>
</mask>
<g mask="url(#mask48_1_114)">
<path d="M59.832 56.74C59.832 56.74 59.9311 57.2882 59.9697 57.939C59.9866 58.2159 59.7808 58.4571 59.5043 58.4842C58.542 58.5772 56.3505 58.7498 54.9511 58.548C54.7546 58.5194 54.6773 58.2788 54.8215 58.1439C55.399 57.606 56.792 56.5607 59.0863 56.3318L59.832 56.74Z" fill="url(#paint48_linear_1_114)"/>
</g>
<mask id="mask49_1_114" style="mask-type:luminance" maskUnits="userSpaceOnUse" x="58" y="54" width="3" height="3">
<path d="M60.3114 55.5046L59.825 56.698C59.7581 56.8615 59.5921 56.9632 59.4163 56.9448C59.2973 56.932 59.1563 56.9095 59.0189 56.8676C58.744 56.7843 58.5892 56.4931 58.6715 56.2178L59.0388 54.9891L60.3114 55.5046Z" fill="white"/>
</mask>
<g mask="url(#mask49_1_114)">
<path d="M60.3114 55.5046L59.8251 56.698C59.7578 56.8615 59.5923 56.9631 59.4163 56.9448C59.2972 56.932 59.1563 56.9095 59.0186 56.8676C58.7437 56.7843 58.5891 56.4931 58.6716 56.2178L59.0388 54.9891L60.3114 55.5046Z" fill="url(#paint49_linear_1_114)"/>
</g>
<mask id="mask50_1_114" style="mask-type:luminance" maskUnits="userSpaceOnUse" x="67" y="57" width="4" height="3">
<path d="M68.6356 57C68.6356 57 67.6608 57.9973 67.2812 59.277C67.1765 59.6288 67.3977 60 67.7037 60H69.7094C70.0032 60 70.228 59.6769 70.1769 59.3233C70.0492 58.4397 69.6808 57.0037 68.6356 57Z" fill="white"/>
</mask>
<g mask="url(#mask50_1_114)">
<path d="M68.6355 57C68.6355 57 67.6607 57.9973 67.2814 59.277C67.1764 59.6289 67.3973 60 67.7038 60H69.7093C70.003 60 70.2276 59.677 70.1766 59.3233C70.0492 58.4398 69.6807 57.0038 68.6355 57Z" fill="url(#paint50_linear_1_114)"/>
</g>
<mask id="mask51_1_114" style="mask-type:luminance" maskUnits="userSpaceOnUse" x="68" y="56" width="2" height="3">
<path d="M69.8444 56.6293C69.8444 56.6293 69.6472 57.5009 69.496 58.0772C69.4684 58.1814 69.3571 58.2386 69.2554 58.2023C68.9519 58.094 68.7047 58.046 68.5254 58.07C68.4421 58.0813 68.3695 58.0123 68.3685 57.9285L68.3496 56.4807L69.8444 56.6293Z" fill="white"/>
</mask>
<g mask="url(#mask51_1_114)">
<path d="M69.8442 56.6294C69.8442 56.6294 69.647 57.5009 69.4958 58.0772C69.468 58.1814 69.3567 58.2386 69.2551 58.2023C68.9514 58.0941 68.7047 58.046 68.525 58.07C68.4422 58.0813 68.3696 58.0123 68.3684 57.9285L68.3496 56.4807L69.8442 56.6294Z" fill="url(#paint51_linear_1_114)"/>
</g>
<mask id="mask52_1_114" style="mask-type:luminance" maskUnits="userSpaceOnUse" x="58" y="34" width="14" height="23">
<path d="M64.6622 37.0197L58.7334 55.1074C58.7334 55.1074 59.8706 55.8523 60.4127 55.8211L67.4546 41.2851C67.4546 41.2851 68.6869 50.2418 68.0897 56.6718L70.1071 56.826C70.1071 56.826 73.387 40.3931 70.9026 34.7647L64.6622 37.0197Z" fill="white"/>
</mask>
<g mask="url(#mask52_1_114)">
<path d="M64.6602 37.0198L58.7314 55.1075C58.7314 55.1075 59.8687 55.8523 60.4111 55.8212L67.4531 41.2851C67.4531 41.2851 68.6854 50.2419 68.088 56.6718L70.1052 56.826C70.1052 56.826 73.3849 40.3931 70.9006 34.7648L64.6602 37.0198Z" fill="url(#paint52_linear_1_114)"/>
</g>
<mask id="mask53_1_114" style="mask-type:luminance" maskUnits="userSpaceOnUse" x="67" y="39" width="1" height="3">
<path d="M67.414 41.1281L67.4217 41.1275C67.4529 41.1235 67.4753 41.0948 67.4712 41.0632L67.2414 39.2373C67.2373 39.2056 67.2087 39.1836 67.177 39.1872C67.1458 39.1913 67.1233 39.2199 67.1274 39.2516L67.3573 41.0775C67.3609 41.1066 67.3859 41.1281 67.414 41.1281Z" fill="white"/>
</mask>
<g mask="url(#mask53_1_114)">
<path d="M67.4167 41.1279L67.4244 41.1275C67.4557 41.1233 67.4781 41.0948 67.4739 41.0631L67.2443 39.2372C67.2402 39.2055 67.2113 39.1836 67.18 39.1871C67.1487 39.1912 67.1262 39.2198 67.1304 39.2515L67.36 41.0774C67.3636 41.1065 67.3889 41.1279 67.4167 41.1279Z" fill="url(#paint53_linear_1_114)"/>
</g>
<mask id="mask54_1_114" style="mask-type:luminance" maskUnits="userSpaceOnUse" x="57" y="21" width="15" height="17">
<path d="M63.5415 21.1033C63.5415 21.1033 68.3448 21.5299 67.6653 24.9525C67.6653 24.9525 70.3209 29.9495 71.5618 35.8356C71.6026 36.0272 71.4739 36.2142 71.2813 36.2474L63.2814 37.6171C63.0607 37.6544 62.8482 37.5169 62.792 37.3003L60.8808 29.9133L60.1359 33.3478L57.7695 32.7311L59.7615 22.639C59.7615 22.639 60.0394 21.1666 63.5415 21.1033Z" fill="white"/>
</mask>
<g mask="url(#mask54_1_114)">
<path d="M63.5411 21.1032C63.5411 21.1032 68.3445 21.5298 67.665 24.9524C67.665 24.9524 70.3209 29.9494 71.5617 35.8356C71.6024 36.0272 71.4737 36.2142 71.2811 36.2474L63.2814 37.6171C63.0604 37.6544 62.8481 37.5169 62.792 37.3003L60.8809 29.9132L60.1355 33.3477L57.7695 32.7311L59.7613 22.639C59.7613 22.639 60.0395 21.1665 63.5411 21.1032Z" fill="url(#paint54_linear_1_114)"/>
</g>
<path d="M60.8454 29.5833L60.8581 29.5819C60.8905 29.5749 60.9109 29.5432 60.9037 29.511L60.237 26.4492C60.2299 26.4171 60.1985 26.3969 60.1661 26.4037C60.1336 26.4107 60.1138 26.4424 60.1204 26.4745L60.7871 29.5364C60.7931 29.5642 60.8184 29.5833 60.8454 29.5833Z" fill="#7D97F4"/>
<mask id="mask55_1_114" style="mask-type:luminance" maskUnits="userSpaceOnUse" x="59" y="33" width="7" height="7">
<path d="M61.3266 38.6942C61.579 38.5558 61.8738 38.5174 62.1527 38.5869L62.7096 38.7254C62.8276 38.755 62.9451 38.6733 62.9584 38.5522L63.5347 33.4257C64.2545 33.7676 65.2936 33.7267 65.6364 33.7017L64.3107 39.7456H59.6719L61.3266 38.6942Z" fill="white"/>
</mask>
<g mask="url(#mask55_1_114)">
<path d="M61.3263 38.694C61.5788 38.5555 61.8735 38.5172 62.1526 38.5867L62.7097 38.7251C62.8272 38.7548 62.9448 38.673 62.9581 38.552L63.5343 33.4254C64.2547 33.7674 65.2935 33.7265 65.6363 33.7015L64.3108 39.7454H59.6719L61.3263 38.694Z" fill="url(#paint55_linear_1_114)"/>
</g>
<mask id="mask56_1_114" style="mask-type:luminance" maskUnits="userSpaceOnUse" x="49" y="24" width="12" height="11">
<path d="M49 27.5739L49.1405 27.1078C49.2212 26.8397 49.4194 26.6227 49.679 26.5182L52.215 25.4984C52.215 25.4984 52.2533 25.1732 51.6791 24.9522C51.1053 24.7312 51.2392 24.0882 51.2392 24.0882C51.2392 24.0882 52.0239 24.446 53.1718 25.0135C53.8288 25.338 54.1972 25.911 54.3923 26.3423L60.1387 33.3475L59.4639 33.811C58.577 34.4207 57.357 34.1214 56.8527 33.1701L53.7394 27.2008C52.1767 27.6703 50.595 27.7601 49 27.5739Z" fill="white"/>
</mask>
<g mask="url(#mask56_1_114)">
<path d="M49 27.5739L49.1407 27.1078C49.2214 26.8397 49.4194 26.6227 49.679 26.5182L52.2148 25.4984C52.2148 25.4984 52.2536 25.1733 51.6793 24.9522C51.1056 24.7312 51.2392 24.0882 51.2392 24.0882C51.2392 24.0882 52.024 24.4461 53.1719 25.0135C53.8291 25.3381 54.1972 25.911 54.3924 26.3423L60.1388 33.3474L59.4636 33.811C58.5769 34.4207 57.3569 34.1213 56.853 33.1701L53.7396 27.2008C52.1767 27.6703 50.5951 27.7601 49 27.5739Z" fill="url(#paint56_linear_1_114)"/>
</g>
<mask id="mask57_1_114" style="mask-type:luminance" maskUnits="userSpaceOnUse" x="60" y="17" width="4" height="6">
<path d="M61.992 17.8354L63.4695 21.9704C63.4695 21.9704 62.1611 22.9932 61.2063 22.6474L60.4619 20.2771C60.4619 20.2771 61.0305 17.3801 61.992 17.8354Z" fill="white"/>
</mask>
<g mask="url(#mask57_1_114)">
<path d="M61.9923 17.8355L63.4695 21.9704C63.4695 21.9704 62.1609 22.9932 61.2065 22.6474L60.4619 20.2771C60.4619 20.2771 61.0305 17.3801 61.9923 17.8355Z" fill="url(#paint57_linear_1_114)"/>
</g>
<mask id="mask58_1_114" style="mask-type:luminance" maskUnits="userSpaceOnUse" x="58" y="14" width="5" height="6">
<path d="M59.6444 14.9443C59.6045 15.0005 58.4004 19.3651 58.4004 19.3651L60.9068 19.9999L62.6632 16.0327C62.6632 16.0327 60.3044 14.0074 59.6444 14.9443Z" fill="white"/>
</mask>
<g mask="url(#mask58_1_114)">
<path d="M59.6443 14.9442C59.6045 15.0002 58.4004 19.3648 58.4004 19.3648L60.9068 19.9996L62.6633 16.0325C62.6633 16.0325 60.3044 14.007 59.6443 14.9442Z" fill="url(#paint58_linear_1_114)"/>
</g>
<mask id="mask59_1_114" style="mask-type:luminance" maskUnits="userSpaceOnUse" x="57" y="13" width="7" height="9">
<path d="M61.723 16.6362L60.9618 18.797C60.9521 18.8247 60.9388 18.8503 60.9219 18.8743C60.8187 19.0215 60.4259 19.5016 59.9594 19.0697C59.5359 18.6779 59.1436 18.3266 58.7813 18.263C58.6189 18.2345 58.4615 18.3339 58.4176 18.493C58.3083 18.8895 58.0784 19.7878 57.9977 20.5986C57.9813 20.7631 58.0952 20.9118 58.2577 20.9425C58.7471 21.035 59.7852 21.2014 60.6517 21.1397C60.7687 21.1313 60.8724 21.0608 60.9209 20.9538C61.1595 20.4318 61.8895 18.8481 62.1613 18.4383C62.4168 18.0536 63.0426 18.064 63.3052 18.087C63.3915 18.0946 63.4763 18.0668 63.5412 18.0098C63.7706 17.8082 64.2074 17.2938 63.5918 16.6789C63.4631 16.5502 63.4666 16.3424 63.5989 16.2175C63.8631 15.9688 64.1451 15.5285 63.7047 14.9823C63.2572 14.4275 62.6666 14.5164 62.3049 14.6487C62.1588 14.7024 61.9994 14.6405 61.9197 14.5067C61.8742 14.4306 61.795 14.3728 61.6586 14.3846C61.4737 14.4009 61.3189 14.2472 61.322 14.0617C61.3281 13.7062 61.2004 13.2571 60.5832 13.0655C59.4879 12.7253 58.8059 13.7838 58.7389 14.5731C58.672 15.3624 59.8802 15.6633 60.5909 15.6097C61.1309 15.5688 61.5319 16.1037 61.6934 16.3625C61.7445 16.4445 61.7547 16.5451 61.723 16.6362Z" fill="white"/>
</mask>
<g mask="url(#mask59_1_114)">
<path d="M61.7214 16.636L60.96 18.7968C60.9503 18.8245 60.9367 18.8502 60.9202 18.8742C60.8167 19.0213 60.4237 19.5014 59.9575 19.0696C59.5338 18.6778 59.1414 18.3265 58.7792 18.2629C58.6172 18.2344 58.4596 18.3337 58.4159 18.4929C58.3067 18.8894 58.0764 19.7876 57.9956 20.5985C57.9797 20.763 58.0934 20.9116 58.2561 20.9423C58.7451 21.0349 59.7834 21.2013 60.6501 21.1395C60.7666 21.1312 60.8707 21.0607 60.919 20.9537C61.1579 20.4316 61.8874 18.848 62.1593 18.4381C62.4151 18.0534 63.0406 18.0639 63.3034 18.0869C63.3898 18.0944 63.4745 18.0666 63.5393 18.0096C63.7685 17.8081 64.2058 17.2937 63.59 16.6787C63.4614 16.5501 63.4649 16.3423 63.5974 16.2174C63.8612 15.9689 64.1433 15.5283 63.7031 14.9824C63.2556 14.4276 62.6648 14.5164 62.3031 14.6486C62.157 14.7021 61.9978 14.6405 61.9176 14.5067C61.8727 14.4305 61.793 14.3729 61.6566 14.3847C61.4718 14.4008 61.3171 14.2469 61.3199 14.0618C61.3262 13.7062 61.1982 13.2569 60.5813 13.0653C59.486 12.7254 58.8042 13.7836 58.7371 14.5729C58.67 15.3622 59.8784 15.6633 60.5892 15.6095C61.1289 15.5686 61.5303 16.1036 61.6913 16.3624C61.7424 16.4444 61.7527 16.5449 61.7214 16.636Z" fill="url(#paint59_linear_1_114)"/>
</g>
<mask id="mask60_1_114" style="mask-type:luminance" maskUnits="userSpaceOnUse" x="61" y="17" width="3" height="3">
<path d="M61.875 19.2224C61.875 19.2224 62.0507 17.852 62.6209 17.7845C63.1905 17.7169 63.7458 18.1849 63.1798 18.9544C62.4753 19.9115 61.875 19.2224 61.875 19.2224Z" fill="white"/>
</mask>
<g mask="url(#mask60_1_114)">
<path d="M61.875 19.2223C61.875 19.2223 62.0509 17.852 62.6208 17.7845C63.1908 17.7169 63.7461 18.1849 63.1801 18.9544C62.4755 19.9116 61.875 19.2223 61.875 19.2223Z" fill="url(#paint60_linear_1_114)"/>
</g>
<path d="M65.1722 33.7784C65.5001 33.7784 65.7341 33.7536 65.7595 33.7507L65.802 33.7459L67.5515 25.5909C67.558 25.5588 67.5373 25.5271 67.5054 25.5202C67.4729 25.5131 67.4416 25.5339 67.4351 25.5659L65.7039 33.6363C65.4434 33.6592 64.0531 33.7516 63.3199 33.2317L64.8348 26.1465L64.5187 25.5505C64.5027 25.5215 64.4673 25.5104 64.4383 25.5258C64.4088 25.5412 64.3981 25.5773 64.4135 25.6064L64.7095 26.1641L63.1875 33.2818L63.2176 33.3046C63.7476 33.703 64.602 33.7784 65.1722 33.7784Z" fill="#7D97F4"/>
<path d="M12.9333 58.5731C12.893 58.5731 12.8521 58.5645 12.8128 58.5461C12.6578 58.4738 12.5862 58.2787 12.6529 58.1106L19.0593 41.9416C19.126 41.7735 19.3055 41.6956 19.4607 41.7679C19.6156 41.8403 19.6872 42.0354 19.6206 42.2034L13.2141 58.3729C13.1644 58.4982 13.0517 58.5731 12.9333 58.5731Z" fill="#7D97F4"/>
<path d="M20.1506 58.5731C20.0322 58.5731 19.9196 58.4982 19.8698 58.3729L13.4634 42.2034C13.3967 42.0354 13.4683 41.8403 13.6233 41.7679C13.7782 41.6956 13.9579 41.773 14.0246 41.9416L20.4311 58.1106C20.4977 58.2787 20.4262 58.4738 20.2711 58.5461C20.2319 58.5645 20.1909 58.5731 20.1506 58.5731Z" fill="#7D97F4"/>
<path d="M56.4094 58.573C56.3694 58.573 56.3288 58.5644 56.2894 58.546C56.1339 58.4737 56.0629 58.2786 56.1294 58.1105L62.5356 41.9415C62.6027 41.7735 62.7818 41.6955 62.9367 41.7679C63.0922 41.8402 63.1637 42.0353 63.0967 42.2034L56.6904 58.3729C56.6409 58.4981 56.5282 58.573 56.4094 58.573Z" fill="#7D97F4"/>
<path d="M63.63 58.5732C63.5118 58.5732 63.3993 58.4984 63.3493 58.3731L56.9428 42.2035C56.8763 42.0354 56.9479 41.8404 57.1025 41.7681C57.2576 41.6957 57.4378 41.7732 57.5042 41.9418L63.9108 58.1108C63.9772 58.2789 63.9057 58.4739 63.7511 58.5463C63.7113 58.5646 63.6704 58.5732 63.63 58.5732Z" fill="#7D97F4"/>
<path d="M55.4805 40.7997H64.759V39.8472H55.4805C55.6788 39.8472 55.6788 40.7997 55.4805 40.7997Z" fill="#BDD0FB"/>
<mask id="mask61_1_114" style="mask-type:luminance" maskUnits="userSpaceOnUse" x="55" y="39" width="11" height="3">
<path d="M64.7143 40.8002C64.7425 40.8002 64.7655 40.7772 64.7655 40.7492V39.8986C64.7655 39.8706 64.7425 39.8477 64.7143 39.8477H55.2553C55.2271 39.8477 55.2041 39.8248 55.2041 39.7967V39.6831C55.2041 39.6551 55.2271 39.6322 55.2553 39.6322H65.297C65.5182 39.6322 65.6975 39.8105 65.6975 40.0305V40.6397C65.6975 40.847 65.5285 41.0156 65.3201 41.0156H55.2553C55.2271 41.0156 55.2041 40.9927 55.2041 40.9647V40.8511C55.2041 40.8231 55.2271 40.8002 55.2553 40.8002H64.7143Z" fill="white"/>
</mask>
<g mask="url(#mask61_1_114)">
<path d="M64.7142 40.8002C64.7425 40.8002 64.7657 40.7773 64.7657 40.7493V39.8986C64.7657 39.8706 64.7425 39.8477 64.7142 39.8477H55.2556C55.2273 39.8477 55.2041 39.8247 55.2041 39.7968V39.6832C55.2041 39.6551 55.2273 39.6322 55.2556 39.6322H65.297C65.5181 39.6322 65.6976 39.8105 65.6976 40.0306V40.6397C65.6976 40.8471 65.5285 41.0156 65.3202 41.0156H55.2556C55.2273 41.0156 55.2041 40.9927 55.2041 40.9647V40.8511C55.2041 40.8231 55.2273 40.8002 55.2556 40.8002H64.7142Z" fill="url(#paint61_linear_1_114)"/>
</g>
<path d="M66.1052 41.4416C66.1366 41.3352 66.0941 41.2257 65.9895 41.1422C65.8854 41.0586 65.7295 41.0103 65.5655 41.0103H9.96772C9.75192 41.0103 9.55095 41.0826 9.43465 41.2028C9.3184 41.3225 9.30276 41.4732 9.3933 41.6026L9.99581 42.4629C10.1337 42.66 10.4326 42.7864 10.7617 42.7864H65.1841C65.4899 42.7864 65.7528 42.6432 65.8109 42.4451L66.1052 41.4416Z" fill="#7D97F4"/>
</g>
<defs>
<linearGradient id="paint0_linear_1_114" x1="25.6902" y1="55.3412" x2="27.072" y2="55.3544" gradientUnits="userSpaceOnUse">
<stop stop-color="#FF928E"/>
<stop offset="1" stop-color="#FEB3B1"/>
</linearGradient>
<linearGradient id="paint1_linear_1_114" x1="32.1568" y1="35.1155" x2="18.8397" y2="52.9051" gradientUnits="userSpaceOnUse">
<stop stop-color="#09005D"/>
<stop offset="1" stop-color="#1A0F91"/>
</linearGradient>
<linearGradient id="paint2_linear_1_114" x1="27.29" y1="50.9137" x2="11.6616" y2="67.6811" gradientUnits="userSpaceOnUse">
<stop stop-color="#09005D"/>
<stop offset="1" stop-color="#1A0F91"/>
</linearGradient>
<linearGradient id="paint3_linear_1_114" x1="20.7096" y1="55.2233" x2="21.9026" y2="55.2347" gradientUnits="userSpaceOnUse">
<stop stop-color="#FF928E"/>
<stop offset="1" stop-color="#FEB3B1"/>
</linearGradient>
<linearGradient id="paint4_linear_1_114" x1="29.8165" y1="33.3621" x2="16.4996" y2="51.1515" gradientUnits="userSpaceOnUse">
<stop stop-color="#09005D"/>
<stop offset="1" stop-color="#1A0F91"/>
</linearGradient>
<linearGradient id="paint5_linear_1_114" x1="24.231" y1="20.5157" x2="32.3295" y2="51.8613" gradientUnits="userSpaceOnUse">
<stop stop-color="#4042E2"/>
<stop offset="1" stop-color="#4F52FF"/>
</linearGradient>
<linearGradient id="paint6_linear_1_114" x1="31.7187" y1="19.5369" x2="38.7783" y2="19.6044" gradientUnits="userSpaceOnUse">
<stop stop-color="#FF928E"/>
<stop offset="1" stop-color="#FEB3B1"/>
</linearGradient>
<linearGradient id="paint7_linear_1_114" x1="37.2176" y1="18.4118" x2="32.4208" y2="29.1069" gradientUnits="userSpaceOnUse">
<stop stop-color="#FF928E"/>
<stop offset="1" stop-color="#FEB3B1"/>
</linearGradient>
<linearGradient id="paint8_linear_1_114" x1="38.7824" y1="14.856" x2="40.7731" y2="11.842" gradientUnits="userSpaceOnUse">
<stop stop-color="#FF928E"/>
<stop offset="1" stop-color="#FEB3B1"/>
</linearGradient>
<linearGradient id="paint9_linear_1_114" x1="17.9004" y1="22.1521" x2="25.999" y2="53.4977" gradientUnits="userSpaceOnUse">
<stop stop-color="#4042E2"/>
<stop offset="1" stop-color="#4F52FF"/>
</linearGradient>
<linearGradient id="paint10_linear_1_114" x1="16.1756" y1="29.3365" x2="25.1093" y2="29.4218" gradientUnits="userSpaceOnUse">
<stop stop-color="#FF928E"/>
<stop offset="1" stop-color="#FEB3B1"/>
</linearGradient>
<linearGradient id="paint11_linear_1_114" x1="25.6084" y1="17.7427" x2="23.8845" y2="24.2161" gradientUnits="userSpaceOnUse">
<stop stop-color="#FF928E"/>
<stop offset="1" stop-color="#FEB3B1"/>
</linearGradient>
<linearGradient id="paint12_linear_1_114" x1="280.316" y1="46.5593" x2="274.627" y2="45.8886" gradientUnits="userSpaceOnUse">
<stop stop-color="#FF928E"/>
<stop offset="1" stop-color="#FEB3B1"/>
</linearGradient>
<linearGradient id="paint13_linear_1_114" x1="21.6249" y1="12.8116" x2="26.5834" y2="16.8263" gradientUnits="userSpaceOnUse">
<stop stop-color="#09005D"/>
<stop offset="1" stop-color="#1A0F91"/>
</linearGradient>
<linearGradient id="paint14_linear_1_114" x1="280.244" y1="47.2087" x2="274.555" y2="46.5379" gradientUnits="userSpaceOnUse">
<stop stop-color="#FF928E"/>
<stop offset="1" stop-color="#FEB3B1"/>
</linearGradient>
<linearGradient id="paint15_linear_1_114" x1="27.5061" y1="23.6901" x2="32.3864" y2="44.133" gradientUnits="userSpaceOnUse">
<stop stop-color="#09005D"/>
<stop offset="1" stop-color="#1A0F91"/>
</linearGradient>
<linearGradient id="paint16_linear_1_114" x1="24.1346" y1="29.0946" x2="26.9276" y2="29.0946" gradientUnits="userSpaceOnUse">
<stop stop-color="#FF928E"/>
<stop offset="1" stop-color="#FEB3B1"/>
</linearGradient>
<linearGradient id="paint17_linear_1_114" x1="13.6348" y1="57.5707" x2="19.0797" y2="57.5707" gradientUnits="userSpaceOnUse">
<stop stop-color="#4042E2"/>
<stop offset="1" stop-color="#4F52FF"/>
</linearGradient>
<linearGradient id="paint18_linear_1_114" x1="17.8248" y1="47.1562" x2="16.3525" y2="57.3826" gradientUnits="userSpaceOnUse">
<stop stop-color="#09005D"/>
<stop offset="1" stop-color="#1A0F91"/>
</linearGradient>
<linearGradient id="paint19_linear_1_114" x1="13.9043" y1="55.9383" x2="15.3775" y2="55.9383" gradientUnits="userSpaceOnUse">
<stop stop-color="#FF928E"/>
<stop offset="1" stop-color="#FEB3B1"/>
</linearGradient>
<linearGradient id="paint20_linear_1_114" x1="22.1669" y1="56.4972" x2="26.5631" y2="56.4972" gradientUnits="userSpaceOnUse">
<stop stop-color="#4042E2"/>
<stop offset="1" stop-color="#4F52FF"/>
</linearGradient>
<linearGradient id="paint21_linear_1_114" x1="25.189" y1="48.2172" x2="23.7167" y2="58.4436" gradientUnits="userSpaceOnUse">
<stop stop-color="#09005D"/>
<stop offset="1" stop-color="#1A0F91"/>
</linearGradient>
<linearGradient id="paint22_linear_1_114" x1="15.0264" y1="41.4733" x2="9.54301" y2="52.5496" gradientUnits="userSpaceOnUse">
<stop stop-color="#09005D"/>
<stop offset="1" stop-color="#1A0F91"/>
</linearGradient>
<linearGradient id="paint23_linear_1_114" x1="20.8818" y1="56.0618" x2="22.6407" y2="56.0618" gradientUnits="userSpaceOnUse">
<stop stop-color="#FF928E"/>
<stop offset="1" stop-color="#FEB3B1"/>
</linearGradient>
<linearGradient id="paint24_linear_1_114" x1="19.9445" y1="37.1482" x2="17.251" y2="41.3888" gradientUnits="userSpaceOnUse">
<stop stop-color="#09005D"/>
<stop offset="1" stop-color="#1A0F91"/>
</linearGradient>
<linearGradient id="paint25_linear_1_114" x1="13.3167" y1="28.2159" x2="9.55203" y2="32.9724" gradientUnits="userSpaceOnUse">
<stop stop-color="#FF928E"/>
<stop offset="1" stop-color="#FEB3B1"/>
</linearGradient>
<linearGradient id="paint26_linear_1_114" x1="7.52471" y1="36.3517" x2="17.0014" y2="51.9921" gradientUnits="userSpaceOnUse">
<stop stop-color="#FE7062"/>
<stop offset="1" stop-color="#FF928E"/>
</linearGradient>
<linearGradient id="paint27_linear_1_114" x1="19.0041" y1="-12.5416" x2="15.7607" y2="7.83805" gradientUnits="userSpaceOnUse">
<stop stop-color="#E1473D"/>
<stop offset="1" stop-color="#E9605A"/>
</linearGradient>
<linearGradient id="paint28_linear_1_114" x1="18.5186" y1="39.8673" x2="22.5813" y2="39.8673" gradientUnits="userSpaceOnUse">
<stop stop-color="#FF928E"/>
<stop offset="1" stop-color="#FEB3B1"/>
</linearGradient>
<linearGradient id="paint29_linear_1_114" x1="-9.28754" y1="-6.82727" x2="-4.75857" y2="0.35397" gradientUnits="userSpaceOnUse">
<stop stop-color="#FF928E"/>
<stop offset="1" stop-color="#FEB3B1"/>
</linearGradient>
<linearGradient id="paint30_linear_1_114" x1="10.3839" y1="24.7886" x2="14.9314" y2="29.3062" gradientUnits="userSpaceOnUse">
<stop stop-color="#09005D"/>
<stop offset="1" stop-color="#1A0F91"/>
</linearGradient>
<linearGradient id="paint31_linear_1_114" x1="-10.5798" y1="-6.01345" x2="-6.05085" y2="1.16779" gradientUnits="userSpaceOnUse">
<stop stop-color="#FF928E"/>
<stop offset="1" stop-color="#FEB3B1"/>
</linearGradient>
<linearGradient id="paint32_linear_1_114" x1="-852.103" y1="-884.609" x2="-837.851" y2="-869.289" gradientUnits="userSpaceOnUse">
<stop stop-color="#09005D"/>
<stop offset="1" stop-color="#1A0F91"/>
</linearGradient>
<linearGradient id="paint33_linear_1_114" x1="1238.34" y1="-360.347" x2="1218.42" y2="-353.784" gradientUnits="userSpaceOnUse">
<stop stop-color="#09005D"/>
<stop offset="1" stop-color="#1A0F91"/>
</linearGradient>
<linearGradient id="paint34_linear_1_114" x1="46.7646" y1="48.2373" x2="32.0436" y2="54.9177" gradientUnits="userSpaceOnUse">
<stop stop-color="#FF928E"/>
<stop offset="1" stop-color="#FEB3B1"/>
</linearGradient>
<linearGradient id="paint35_linear_1_114" x1="43.5207" y1="53.8113" x2="42.6348" y2="67.4679" gradientUnits="userSpaceOnUse">
<stop stop-color="#09005D"/>
<stop offset="1" stop-color="#1A0F91"/>
</linearGradient>
<linearGradient id="paint36_linear_1_114" x1="28.9725" y1="35.0624" x2="32.6309" y2="41.09" gradientUnits="userSpaceOnUse">
<stop stop-color="#FF928E"/>
<stop offset="1" stop-color="#FEB3B1"/>
</linearGradient>
<linearGradient id="paint37_linear_1_114" x1="40.6964" y1="43.572" x2="55.1128" y2="43.572" gradientUnits="userSpaceOnUse">
<stop stop-color="#09005D"/>
<stop offset="1" stop-color="#1A0F91"/>
</linearGradient>
<linearGradient id="paint38_linear_1_114" x1="34.8763" y1="53.251" x2="33.9904" y2="66.9077" gradientUnits="userSpaceOnUse">
<stop stop-color="#09005D"/>
<stop offset="1" stop-color="#1A0F91"/>
</linearGradient>
<linearGradient id="paint39_linear_1_114" x1="51.1482" y1="19.4476" x2="49.0393" y2="30.5855" gradientUnits="userSpaceOnUse">
<stop stop-color="#09005D"/>
<stop offset="1" stop-color="#1A0F91"/>
</linearGradient>
<linearGradient id="paint40_linear_1_114" x1="46.902" y1="31.7611" x2="53.6679" y2="46.5655" gradientUnits="userSpaceOnUse">
<stop stop-color="#FE7062"/>
<stop offset="1" stop-color="#FF928E"/>
</linearGradient>
<linearGradient id="paint41_linear_1_114" x1="45.2532" y1="26.7707" x2="47.639" y2="31.9249" gradientUnits="userSpaceOnUse">
<stop stop-color="#FF928E"/>
<stop offset="1" stop-color="#FEB3B1"/>
</linearGradient>
<linearGradient id="paint42_linear_1_114" x1="82.4427" y1="48.4089" x2="77.1467" y2="45.4027" gradientUnits="userSpaceOnUse">
<stop stop-color="#FF928E"/>
<stop offset="1" stop-color="#FEB3B1"/>
</linearGradient>
<linearGradient id="paint43_linear_1_114" x1="41.1006" y1="21.921" x2="48.6461" y2="30.331" gradientUnits="userSpaceOnUse">
<stop stop-color="#09005D"/>
<stop offset="1" stop-color="#1A0F91"/>
</linearGradient>
<linearGradient id="paint44_linear_1_114" x1="83.2138" y1="47.0469" x2="77.9178" y2="44.0406" gradientUnits="userSpaceOnUse">
<stop stop-color="#FF928E"/>
<stop offset="1" stop-color="#FEB3B1"/>
</linearGradient>
<linearGradient id="paint45_linear_1_114" x1="46.5451" y1="24.5152" x2="47.4629" y2="29.0258" gradientUnits="userSpaceOnUse">
<stop stop-color="#FF928E"/>
<stop offset="1" stop-color="#FEB3B1"/>
</linearGradient>
<linearGradient id="paint46_linear_1_114" x1="50.9914" y1="38.607" x2="43.5149" y2="41.0722" gradientUnits="userSpaceOnUse">
<stop stop-color="#09005D"/>
<stop offset="1" stop-color="#1A0F91"/>
</linearGradient>
<linearGradient id="paint47_linear_1_114" x1="40.713" y1="33.7261" x2="35.3534" y2="39.4211" gradientUnits="userSpaceOnUse">
<stop stop-color="#09005D"/>
<stop offset="1" stop-color="#1A0F91"/>
</linearGradient>
<linearGradient id="paint48_linear_1_114" x1="62.9101" y1="66.6395" x2="62.8255" y2="75.6071" gradientUnits="userSpaceOnUse">
<stop stop-color="#09005D"/>
<stop offset="1" stop-color="#1A0F91"/>
</linearGradient>
<linearGradient id="paint49_linear_1_114" x1="65.4306" y1="56.5855" x2="65.8977" y2="52.9338" gradientUnits="userSpaceOnUse">
<stop stop-color="#FF928E"/>
<stop offset="1" stop-color="#FEB3B1"/>
</linearGradient>
<linearGradient id="paint50_linear_1_114" x1="86.9741" y1="68.0401" x2="86.833" y2="80.2705" gradientUnits="userSpaceOnUse">
<stop stop-color="#09005D"/>
<stop offset="1" stop-color="#1A0F91"/>
</linearGradient>
<linearGradient id="paint51_linear_1_114" x1="86.8125" y1="56.8481" x2="87.3164" y2="52.9088" gradientUnits="userSpaceOnUse">
<stop stop-color="#FF928E"/>
<stop offset="1" stop-color="#FEB3B1"/>
</linearGradient>
<linearGradient id="paint52_linear_1_114" x1="92.7362" y1="41.3712" x2="76.9147" y2="41.3712" gradientUnits="userSpaceOnUse">
<stop stop-color="#09005D"/>
<stop offset="1" stop-color="#1A0F91"/>
</linearGradient>
<linearGradient id="paint53_linear_1_114" x1="81.9277" y1="36.2125" x2="73.4859" y2="42.7652" gradientUnits="userSpaceOnUse">
<stop stop-color="#020039"/>
<stop offset="1" stop-color="#090056"/>
</linearGradient>
<linearGradient id="paint54_linear_1_114" x1="79.7012" y1="14.902" x2="89.5544" y2="44.175" gradientUnits="userSpaceOnUse">
<stop stop-color="#4042E2"/>
<stop offset="1" stop-color="#4F52FF"/>
</linearGradient>
<linearGradient id="paint55_linear_1_114" x1="78.2352" y1="32.5148" x2="71.4745" y2="32.5148" gradientUnits="userSpaceOnUse">
<stop stop-color="#FF928E"/>
<stop offset="1" stop-color="#FEB3B1"/>
</linearGradient>
<linearGradient id="paint56_linear_1_114" x1="66.1365" y1="26.5462" x2="54.2465" y2="26.5462" gradientUnits="userSpaceOnUse">
<stop stop-color="#FF928E"/>
<stop offset="1" stop-color="#FEB3B1"/>
</linearGradient>
<linearGradient id="paint57_linear_1_114" x1="74.1323" y1="18.1113" x2="69.8395" y2="13.707" gradientUnits="userSpaceOnUse">
<stop stop-color="#FF928E"/>
<stop offset="1" stop-color="#FEB3B1"/>
</linearGradient>
<linearGradient id="paint58_linear_1_114" x1="88.79" y1="8.52357" x2="52.2233" y2="15.9266" gradientUnits="userSpaceOnUse">
<stop stop-color="#FF928E"/>
<stop offset="1" stop-color="#FEB3B1"/>
</linearGradient>
<linearGradient id="paint59_linear_1_114" x1="73.0949" y1="13.7824" x2="67.4495" y2="9.80427" gradientUnits="userSpaceOnUse">
<stop stop-color="#09005D"/>
<stop offset="1" stop-color="#1A0F91"/>
</linearGradient>
<linearGradient id="paint60_linear_1_114" x1="73.4033" y1="19.827" x2="72.3591" y2="13.3036" gradientUnits="userSpaceOnUse">
<stop stop-color="#FF928E"/>
<stop offset="1" stop-color="#FEB3B1"/>
</linearGradient>
<linearGradient id="paint61_linear_1_114" x1="71.9566" y1="42.7899" x2="72.0011" y2="40.107" gradientUnits="userSpaceOnUse">
<stop stop-color="#4042E2"/>
<stop offset="1" stop-color="#4F52FF"/>
</linearGradient>
<clipPath id="clip0_1_114">
<rect width="72" height="72" fill="white"/>
</clipPath>
</defs>
</svg>
