<svg width="72" height="72" viewBox="0 0 72 72" fill="none" xmlns="http://www.w3.org/2000/svg">
<rect width="72" height="72" fill="#F5F5F5"/>
<rect width="1440" height="12112" transform="translate(-155 -1926)" fill="white"/>
<rect x="-23.5" y="-23.5" width="359" height="359" rx="3.5" fill="white" stroke="#737373"/>
<g clip-path="url(#clip0_1_114)">
<path fill-rule="evenodd" clip-rule="evenodd" d="M8.60552 14.4239C13.1053 8.34221 19.5656 4.87509 26.8904 2.97023C35.865 0.636383 45.4707 -2.12657 53.3367 2.79143C63.1027 8.89733 72.5038 19.1081 70.9397 30.5108C69.4137 41.6352 55.6478 44.6488 46.6698 51.3926C36.4928 59.037 28.7076 74.8314 16.4257 71.4586C4.09863 68.0734 2.18942 51.3601 0.453698 38.701C-0.766653 29.8006 3.26385 21.6435 8.60552 14.4239Z" fill="#B3E3FF" fill-opacity="0.3"/>
<path d="M35.4975 31.566L35.8266 31.9733L4.59668 56.8489L5.92679 58.4957L6.1094 58.7217L37.3393 33.8461L37.6682 34.2534L38.2531 31.5604L35.4975 31.566Z" fill="#4870C0"/>
<path d="M8.70897 56.652C8.38969 56.3175 7.93923 56.109 7.44027 56.109L7.4086 56.1108C7.40215 55.6695 7.24574 55.2646 6.98828 54.9447L20.9711 43.807C20.8968 44.01 20.8223 44.2115 20.7476 44.4108C20.1607 45.9823 19.5681 47.4242 19.0507 48.4143L16.3581 50.5591L15.9497 50.8844L15.1666 51.5082L15.0507 51.6007L9.21046 56.2523L9.02453 56.4005L8.70897 56.652ZM24.8436 43.8002C25.1788 42.9968 25.5062 42.1944 25.8095 41.4411C26.0107 40.9449 26.1997 40.4696 26.3741 40.0297L29.083 40.4234L28.6253 40.7879L28.6008 40.8072L24.8773 43.7732L24.8436 43.8002ZM32.9679 37.3288C31.9846 37.0385 30.9083 36.8007 29.9904 36.6228L35.8277 31.9733L35.4986 31.566L38.2542 31.5604L37.6692 34.2534L37.3404 33.8461L37.3138 33.8672L37.2649 33.9062L34.9609 35.7415L34.9121 35.7804L32.9679 37.3288Z" fill="#C7D9F2"/>
<path d="M0 58.5888C0 58.0208 0.460379 57.5606 1.02821 57.5606C1.13094 57.5606 1.22991 57.5762 1.32346 57.6039C1.30842 57.5009 1.30041 57.3958 1.30041 57.2885C1.30041 56.086 2.27515 55.1111 3.47764 55.1111C3.61466 55.1111 3.74869 55.1244 3.87876 55.1487C4.21335 54.6009 4.81494 54.2341 5.50374 54.2341C6.54623 54.2341 7.39193 55.0719 7.40737 56.1108L7.43905 56.1091C8.40782 56.1091 9.19301 56.8944 9.19301 57.863C9.19301 58.8318 8.40782 59.6168 7.43905 59.6168H0.997967L0.999257 59.6156C0.445031 59.5999 0 59.1467 0 58.5888Z" fill="#4F52FF"/>
<path d="M65.4658 47.3245L66.2457 48.2902L51.7295 60.0162L54.8833 63.9208L55.316 64.4569L69.8324 52.7309L70.6125 53.6963L71.9995 47.3116L65.4658 47.3245Z" fill="#4870C0"/>
<path d="M59.3527 61.1971C59.1742 60.3572 58.4807 59.7087 57.6185 59.5943C57.0327 58.6597 55.9965 58.0361 54.8121 58.0361C54.5609 58.0361 54.3161 58.0642 54.0811 58.1174L60.6019 52.85H62.5238L62.9328 50.967L66.2466 48.2902L65.4667 47.3246L72.0004 47.3117L71.1155 51.3847L71.049 51.6912L70.9657 52.074L70.8429 52.6401L70.7596 53.0231L70.6367 53.5889L70.6134 53.6964L70.2167 53.2055L70.0693 53.0231L69.8333 52.731L69.3177 53.1474L68.7711 53.5889L67.473 54.6376L67.187 54.8687L66.854 55.1376L66.7721 55.2036L64.3239 57.1814L63.7579 57.6386L60.421 60.334L60.3848 60.3633L60.3244 60.4122L59.3527 61.1971Z" fill="#7D97F4"/>
<path d="M57.6175 59.5943C57.0317 58.6597 55.9955 58.036 54.8111 58.036C53.6071 58.036 52.5562 58.6806 51.9761 59.6412C51.8238 59.599 51.6641 59.5743 51.4981 59.5743C50.5178 59.5743 49.7232 60.3689 49.7232 61.3493L49.7234 61.3515H48.7876C48.3002 61.3515 47.9014 61.7504 47.9014 62.2378C47.9014 62.7253 48.3002 63.1241 48.7876 63.1241H52.0168C52.6047 64.0477 53.635 64.6622 54.8111 64.6622C55.7384 64.6622 56.5758 64.2802 57.177 63.6661C57.2329 63.6708 57.289 63.6746 57.3461 63.6746C58.4785 63.6746 59.3963 62.757 59.3963 61.6245C59.3963 60.5846 58.6213 59.7275 57.6175 59.5943Z" fill="#4870C0"/>
<path d="M54.8111 64.6622C53.635 64.6622 52.6047 64.0477 52.0168 63.1241H48.7876C48.3002 63.1241 47.9014 62.7253 47.9014 62.2378C47.9014 61.7504 48.3002 61.3515 48.7876 61.3515H49.7234L49.7232 61.3493C49.7232 60.3689 50.5178 59.5743 51.4981 59.5743C51.6641 59.5743 51.8238 59.599 51.9761 59.6412C52.5562 58.6806 53.6071 58.036 54.8111 58.036C55.9955 58.036 57.0317 58.6597 57.6175 59.5943C58.6213 59.7275 59.3963 60.5846 59.3963 61.6245C59.3963 62.757 58.4785 63.6746 57.3461 63.6746C57.289 63.6746 57.2329 63.6708 57.177 63.6661C56.5758 64.2802 55.7384 64.6622 54.8111 64.6622Z" fill="#DBE8F7"/>
<path d="M35.8244 19.9215L35.5424 19.6247C35.4666 19.5448 35.3553 19.509 35.2472 19.5297L34.8255 19.6109C34.6877 19.6373 34.5827 19.7497 34.5657 19.8889L34.3496 21.6561L35.0038 21.907C35.8001 21.5605 35.7589 20.5085 35.7589 20.5085L35.8735 20.2991C35.9407 20.1759 35.921 20.0234 35.8244 19.9215Z" fill="#F8A461"/>
<path d="M27.9312 25.2176C27.9312 25.2176 28.5574 25.2556 28.9248 25.2466C29.2951 25.2417 29.6639 25.2348 30.0262 25.2141C30.3869 25.1909 30.7457 25.1656 31.0747 25.1201C31.2378 25.097 31.3961 25.0677 31.5209 25.0338C31.5793 25.017 31.6358 24.9991 31.6616 24.9887C31.6841 24.9783 31.6814 24.983 31.6777 24.9877C31.6742 24.992 31.6697 24.9961 31.6808 24.9899C31.742 24.9379 31.8607 24.7965 31.9645 24.6655C32.0716 24.5294 32.1794 24.3828 32.2861 24.2336C32.5008 23.9345 32.7137 23.6238 32.926 23.311L34.2031 21.416L35.2012 21.9473C35.0544 22.3123 34.8955 22.664 34.7361 23.02C34.5711 23.3722 34.4029 23.7235 34.2295 24.0745C34.0534 24.4242 33.8706 24.7719 33.6717 25.1201C33.571 25.2939 33.4674 25.4683 33.3536 25.646C33.2351 25.8276 33.1262 25.9975 32.9204 26.2218C32.8095 26.3452 32.6064 26.4947 32.4754 26.5593C32.3313 26.638 32.2071 26.6871 32.0845 26.7335C31.8444 26.8201 31.6268 26.875 31.4129 26.9229C30.9863 27.0177 30.5802 27.0742 30.1757 27.113C29.3657 27.1935 28.5885 27.2236 27.7764 27.2052L27.9312 25.2176Z" fill="#4870C0"/>
<path d="M29.6609 27.1586C29.6607 27.1584 29.6604 27.1582 29.6602 27.1578C29.8314 27.1453 30.0035 27.1302 30.1771 27.113C30.432 27.0886 30.6876 27.0571 30.9486 27.0135C30.6876 27.0575 30.432 27.089 30.1771 27.1136C30.0031 27.1312 29.831 27.1449 29.6609 27.1586ZM31.7526 26.8393C31.8599 26.8096 31.9702 26.7754 32.0859 26.7335C32.1506 26.7091 32.2157 26.6839 32.284 26.6539C32.2155 26.6841 32.1504 26.7095 32.0853 26.7343C31.9698 26.7758 31.8595 26.8098 31.7526 26.8393Z" fill="#FAFAFA"/>
<path d="M32.8295 26.3125C32.8639 26.2818 32.8954 26.2511 32.9218 26.2218C32.9751 26.1637 33.0219 26.1092 33.0641 26.0572C33.0221 26.1094 32.9753 26.1639 32.9222 26.222C32.8958 26.2513 32.8641 26.282 32.8295 26.3125ZM33.5257 25.3705C33.5455 25.3377 33.5648 25.3048 33.5842 25.272C33.565 25.3048 33.5455 25.3377 33.5257 25.3705ZM28.867 25.2475C28.8873 25.2473 28.9069 25.2469 28.9258 25.2466C29.2973 25.2405 29.6649 25.2346 30.0285 25.2133C30.1028 25.2088 30.1771 25.2041 30.251 25.1992C30.1767 25.2043 30.1022 25.2092 30.0276 25.2141C29.6653 25.2348 29.2965 25.2417 28.9262 25.2466C28.9071 25.2469 28.8873 25.2473 28.867 25.2475ZM28.2883 25.2354C28.0924 25.2272 27.9402 25.218 27.9328 25.2176C27.9326 25.2172 27.9326 25.2172 27.9326 25.2172C27.9326 25.2172 28.0873 25.2268 28.2883 25.2354ZM30.9179 25.1402C30.9715 25.1337 31.0245 25.1269 31.0765 25.1195C31.1033 25.1158 31.1299 25.112 31.1563 25.1081C31.1299 25.1122 31.1029 25.1161 31.0761 25.1201C31.0241 25.1271 30.9713 25.1339 30.9179 25.1402ZM31.4476 25.0526C31.4734 25.0465 31.4984 25.0399 31.5223 25.0332C31.5317 25.0307 31.541 25.0282 31.5502 25.0256C31.541 25.0284 31.5317 25.0311 31.5223 25.0338C31.4984 25.0403 31.4736 25.0465 31.4476 25.0526ZM31.6756 24.9932C31.6742 24.9932 31.6767 24.9904 31.6791 24.9877C31.6812 24.9851 31.683 24.9824 31.68 24.9824C31.6779 24.9824 31.6728 24.9842 31.663 24.9887C31.6611 24.9895 31.6587 24.9902 31.6564 24.9912C31.6587 24.9902 31.6611 24.9893 31.663 24.9883C31.6728 24.984 31.6779 24.9822 31.6802 24.9822C31.6834 24.9822 31.6816 24.9851 31.6795 24.9879C31.6779 24.99 31.6759 24.9922 31.6756 24.9932ZM32.1237 24.4588C32.1784 24.3849 32.2328 24.3096 32.2867 24.2336C32.4488 24.0082 32.6097 23.7761 32.7704 23.5415C32.6101 23.7761 32.4494 24.0082 32.2875 24.2336C32.2332 24.3096 32.1784 24.3851 32.1237 24.4588ZM34.6251 23.2588C34.6628 23.1792 34.7002 23.0998 34.7375 23.02C34.7727 22.9414 34.8079 22.863 34.8429 22.7846V22.7848C34.8083 22.863 34.7733 22.941 34.7385 23.0194C34.7008 23.0992 34.663 23.179 34.6251 23.2588Z" fill="white"/>
<path d="M34.8428 22.7849V22.7847C34.8526 22.7627 34.8624 22.7407 34.8722 22.7186C34.8624 22.7407 34.8526 22.7627 34.8428 22.7849Z" fill="#FCFDFD"/>
<path d="M29.66 27.1577C29.2572 26.7182 28.7299 26.5459 28.3706 26.4785C28.1688 25.6499 27.9418 25.234 27.9326 25.2176C27.94 25.218 28.0922 25.2272 28.2881 25.2354C28.446 25.2421 28.633 25.2479 28.795 25.2479C28.8197 25.2479 28.8435 25.2479 28.8668 25.2475C28.8871 25.2473 28.9069 25.2469 28.926 25.2466C29.2963 25.2417 29.6651 25.2348 30.0274 25.2141C30.102 25.2092 30.1765 25.2043 30.2508 25.1992C30.4784 25.184 30.7035 25.1658 30.9177 25.1402C30.9711 25.1339 31.0239 25.1271 31.0759 25.1201C31.1027 25.1161 31.1297 25.1122 31.1561 25.1081C31.2595 25.0925 31.3592 25.0739 31.4474 25.0526C31.4734 25.0465 31.4982 25.0403 31.5221 25.0338C31.5315 25.0311 31.5408 25.0284 31.55 25.0256C31.5936 25.0135 31.6331 25.0008 31.6562 24.9912C31.6585 24.9902 31.6609 24.9895 31.6628 24.9887C31.6726 24.9842 31.6777 24.9824 31.6799 24.9824C31.6828 24.9824 31.681 24.9852 31.6789 24.9877C31.6765 24.9904 31.674 24.9932 31.6754 24.9932C31.6754 24.9934 31.6754 24.9936 31.6757 24.9936C31.6763 24.9936 31.6783 24.9926 31.6824 24.9902C31.743 24.9374 31.8623 24.7967 31.9659 24.6657C32.0185 24.5988 32.0711 24.5296 32.1235 24.4588C32.1782 24.3851 32.233 24.3096 32.2873 24.2336C32.4492 24.0082 32.6099 23.7761 32.7702 23.5415C32.8228 23.4648 32.8752 23.388 32.9278 23.311L34.2045 21.4162L35.2017 21.948C35.0963 22.209 34.985 22.464 34.872 22.7187C34.8622 22.7408 34.8525 22.7627 34.8427 22.7846C34.8077 22.863 34.7725 22.9414 34.7373 23.02C34.7 23.0998 34.6626 23.1792 34.6249 23.2588C34.4955 23.5309 34.3645 23.8031 34.23 24.0752C34.054 24.4234 33.8722 24.7713 33.6727 25.1195C33.6436 25.1703 33.6141 25.2211 33.584 25.272C33.5646 25.3048 33.5453 25.3377 33.5255 25.3705C33.4708 25.4614 33.4141 25.5527 33.3541 25.6454C33.267 25.7801 33.1843 25.9084 33.0639 26.0572C33.0217 26.1092 32.9749 26.1637 32.9216 26.2218C32.8952 26.2511 32.8637 26.2818 32.8293 26.3125C32.718 26.411 32.5761 26.5092 32.4762 26.5583C32.408 26.596 32.3446 26.6269 32.2838 26.6539C32.2156 26.6838 32.1505 26.709 32.0857 26.7334C31.97 26.7753 31.8597 26.8095 31.7524 26.8392C31.6368 26.8711 31.5252 26.8977 31.4145 26.9219C31.2568 26.9575 31.1017 26.9876 30.9484 27.0134C30.6874 27.057 30.4319 27.0885 30.1769 27.1129C30.0033 27.1301 29.8313 27.1452 29.66 27.1577Z" fill="#C7D9F2"/>
<path d="M29.1572 27.1885C29.3244 27.1805 29.4918 27.1703 29.6599 27.1578C29.6601 27.1582 29.6605 27.1584 29.6607 27.1586C29.4923 27.1707 29.3246 27.1807 29.1572 27.1885Z" fill="#E2E1DF"/>
<path d="M28.5179 27.2081C28.4732 26.9368 28.4225 26.6937 28.3701 26.4785C28.7295 26.5459 29.2568 26.7182 29.6595 27.1577C29.4914 27.1702 29.324 27.1804 29.1569 27.1884C28.944 27.1984 28.7314 27.2048 28.5179 27.2081Z" fill="#B1C2E8"/>
<path d="M17.475 60.2913C17.475 60.2913 15.705 59.0736 15.8135 58.2554C15.8243 58.1753 15.7774 58.1041 15.6923 58.0913L14.1919 57.8644C14.1219 57.8538 14.0471 57.8856 14.0056 57.9439L13.1191 59.1861L13.5174 59.3303L13.7313 59.1804L13.8318 59.444C15.9932 60.226 16.9356 60.5408 17.4121 60.5609C17.5433 60.3922 17.475 60.2913 17.475 60.2913Z" fill="#100F0D"/>
<path d="M27.4437 37.292C27.4437 37.292 27.3537 37.5266 27.1954 37.9333C27.0253 38.3732 26.775 39.0145 26.4739 39.7772C26.2725 40.2853 26.0497 40.8484 25.8092 41.441C24.7045 44.1861 23.2773 47.5821 22.3329 49.2966C20.5244 52.5773 15.8125 58.8086 15.8125 58.8086L13.9297 58.1202C13.9297 58.1202 17.3199 51.7036 19.0307 48.452C19.5527 47.4609 20.1529 46.0024 20.7473 44.4107C21.0308 43.6541 21.3123 42.8663 21.5841 42.086C21.7073 41.7343 21.8285 41.3824 21.9458 41.0361C22.2567 40.1213 22.548 39.2395 22.8041 38.4534C22.8354 38.3556 22.8667 38.2579 22.898 38.1642C23.0016 37.8414 23.0993 37.5364 23.1873 37.2549C23.5549 36.0976 23.7836 35.3349 23.7915 35.3058H23.7934L25.4729 36.2206L27.4437 37.292Z" fill="#1D2A30"/>
<path d="M21.583 42.0862C21.7062 41.7345 21.8274 41.3825 21.9447 41.0363C22.1627 40.3948 22.3711 39.7693 22.5645 39.182C23.4296 39.6866 24.4164 39.7906 24.7736 39.8125C24.8626 39.8174 24.9124 39.8174 24.9124 39.8174L26.3727 40.0298C26.1983 40.4697 26.0093 40.945 25.8081 41.4412C24.2713 41.7501 22.7072 41.9591 21.583 42.0862Z" fill="#161C1E"/>
<path d="M21.4268 26.2587L21.4279 26.263C21.6989 27.1725 21.8579 28.2295 21.9466 29.2716C22.0149 30.0824 22.0411 30.8805 22.0444 31.5965C22.0471 32.3179 22.0254 32.9566 22.002 33.4454C21.9705 34.0736 21.9333 34.4604 21.9333 34.4604L27.8739 34.7657C29.6562 28.3061 27.9325 25.2176 27.9325 25.2176C27.9325 25.2176 27.1925 25.1429 26.3397 25.181C26.2298 25.1843 26.1181 25.1929 26.004 25.2016C25.2774 25.2624 24.1198 25.4919 23.3471 25.6665C23.1878 25.7017 23.0278 25.7429 22.8714 25.7852C22.0954 25.9969 21.4268 26.2587 21.4268 26.2587Z" fill="#4870C0"/>
<path d="M27.8965 34.681C27.9819 34.367 28.0592 34.0609 28.1288 33.7629C28.0594 34.0609 27.9821 34.367 27.8965 34.681ZM28.2539 33.1971H28.2537C28.4255 32.3714 28.5374 31.6113 28.6031 30.9164H28.6035C28.5374 31.6114 28.4257 32.3712 28.2539 33.1971ZM28.6482 30.3506H28.6479C28.6561 30.2202 28.6627 30.0927 28.6678 29.9676H28.668C28.6629 30.0927 28.6564 30.2202 28.6482 30.3506ZM28.6809 29.4015H28.6807C28.6813 29.2709 28.6803 29.1433 28.6778 29.0187H28.6782C28.6807 29.1433 28.6817 29.2707 28.6809 29.4015ZM28.6553 28.4527H28.6551C28.6267 27.987 28.5775 27.5725 28.5174 27.2085C28.5176 27.2085 28.5178 27.2085 28.5178 27.2085C28.5779 27.5725 28.6271 27.987 28.6553 28.4527Z" fill="#FAFAFA"/>
<path d="M28.6783 29.0188H28.678C28.6738 28.8223 28.6662 28.6338 28.6553 28.4528H28.6555C28.6664 28.6338 28.6742 28.8223 28.6783 29.0188Z" fill="#FCFDFD"/>
<path d="M28.6691 29.9675H28.6689C28.6768 29.7728 28.6809 29.5841 28.6819 29.4015H28.682C28.6813 29.5841 28.677 29.7728 28.6691 29.9675Z" fill="#FCFDFD"/>
<path d="M28.6029 30.9163H28.6025C28.6209 30.7227 28.6358 30.534 28.6473 30.3504H28.6477C28.636 30.534 28.6213 30.7227 28.6029 30.9163Z" fill="#FCFDFD"/>
<path d="M28.1289 33.7628C28.1739 33.5706 28.2153 33.3823 28.2538 33.197H28.254C28.2155 33.3822 28.1739 33.571 28.1289 33.7628Z" fill="#FCFDFD"/>
<path d="M27.9313 25.2178C27.9276 25.2174 27.6652 25.191 27.2744 25.1779C27.6678 25.1908 27.9313 25.2174 27.9313 25.2174V25.2178Z" fill="white"/>
<path d="M28.5166 27.2084C28.5166 27.2079 28.5166 27.2084 28.5166 27.2079C28.5166 27.2079 28.517 27.2079 28.5175 27.2079V27.2084C28.5175 27.2084 28.517 27.2084 28.5166 27.2084Z" fill="#C7D9F2"/>
<path d="M28.3708 26.4785C28.3706 26.4785 28.3704 26.4785 28.3704 26.4785C28.1645 25.6333 27.9326 25.2176 27.9326 25.2176C27.9326 25.2176 27.9326 25.2176 27.9328 25.2176C27.942 25.2341 28.169 25.6499 28.3708 26.4785Z" fill="#F0F6FC"/>
<path d="M28.5179 27.2081C28.4732 26.9368 28.4225 26.6937 28.3701 26.4785C28.3701 26.4785 28.3703 26.4785 28.3705 26.4785C28.4229 26.6937 28.4735 26.9368 28.5183 27.2081C28.5181 27.2081 28.5179 27.2081 28.5179 27.2081Z" fill="#E9EFFA"/>
<path d="M22.0049 33.3619C22.0117 33.1991 22.0184 33.0182 22.025 32.8247C22.0336 32.5562 22.0401 32.2614 22.043 31.9462C22.0393 32.4858 22.0231 32.9682 22.0049 33.3619ZM22.0409 31.3129C22.0389 31.1857 22.0362 31.0558 22.0329 30.9245C22.0329 30.891 22.0313 30.8578 22.0309 30.8244C22.0356 30.9903 22.0389 31.1532 22.0409 31.3129ZM21.426 26.2601L21.4248 26.2593C21.4248 26.2593 21.425 26.2591 21.4258 26.2589L21.426 26.2601ZM22.2262 25.9777C22.4225 25.9144 22.6425 25.8471 22.8716 25.7842C23.0165 25.7457 23.1666 25.7071 23.3156 25.6735C23.1665 25.7071 23.0169 25.7459 22.8704 25.7853C22.6415 25.8479 22.4221 25.9146 22.2262 25.9777ZM25.9938 25.2025L25.9934 25.2023C25.9961 25.2021 25.9991 25.2019 26.0018 25.2017C26.0147 25.2008 26.0276 25.1998 26.0403 25.199C26.028 25.2 26.0155 25.201 26.003 25.2017C25.9999 25.2021 25.9969 25.2023 25.9938 25.2025Z" fill="white"/>
<path d="M27.8971 34.681L21.9986 33.5197C22 33.495 22.0012 33.47 22.0025 33.4444C22.0037 33.4174 22.0049 33.39 22.0059 33.3619C22.0241 32.9681 22.0403 32.4858 22.044 31.9462C22.045 31.8324 22.0456 31.7157 22.0456 31.5968C22.0446 31.5035 22.0434 31.4089 22.0418 31.3129C22.0399 31.1532 22.0366 30.9903 22.0319 30.8243C22.0319 30.8206 22.0319 30.8167 22.0319 30.8128C22.0221 30.4473 22.0045 30.0679 21.9791 29.6827C21.9838 29.6667 21.9885 29.6504 21.9932 29.6342C23.0143 29.2193 24.6819 28.337 25.5142 26.7721L25.9885 26.2438L26.5174 26.4725L26.3047 25.381L25.9948 25.2025C25.9979 25.2023 26.0008 25.2021 26.004 25.2017C26.0165 25.2009 26.029 25.1999 26.0413 25.199C26.143 25.1917 26.2421 25.1837 26.341 25.1819C26.5182 25.1739 26.6906 25.1706 26.8527 25.1706C27.0044 25.1706 27.1469 25.1735 27.2756 25.1778C27.6664 25.1909 27.9288 25.2173 27.9325 25.2177C27.9325 25.2177 28.1644 25.6334 28.3703 26.4786C28.4227 26.6939 28.4733 26.9369 28.5181 27.2083C28.5181 27.2085 28.5181 27.2083 28.5181 27.2085C28.5781 27.5725 28.6274 27.987 28.6557 28.4527C28.6667 28.6338 28.6743 28.8222 28.6784 29.0187C28.6809 29.1433 28.6819 29.2709 28.6813 29.4015C28.6804 29.5842 28.6763 29.7728 28.6684 29.9676C28.6633 30.0927 28.6567 30.2202 28.6485 30.3506C28.637 30.5342 28.6221 30.7228 28.6037 30.9164C28.538 31.6113 28.4262 32.3714 28.2543 33.1971C28.2158 33.3824 28.1744 33.5707 28.1294 33.7629C28.0598 34.0609 27.9826 34.367 27.8971 34.681ZM22.1347 28.7536C22.1678 28.1602 22.0808 27.7119 22.0808 27.7119C22.078 27.7135 22.0755 27.7148 22.0729 27.7164C22.0778 27.654 22.0808 27.5874 22.0808 27.516C22.0808 27.4218 22.0759 27.3193 22.0645 27.2085C21.9857 26.4295 21.486 26.241 21.486 26.241C21.4686 26.2526 21.4512 26.2641 21.434 26.2758C21.4324 26.271 21.4311 26.2661 21.4297 26.2612L21.427 26.26L21.4268 26.2588C21.4467 26.251 21.7734 26.1243 22.2272 25.9777C22.4231 25.9145 22.6425 25.8479 22.8714 25.7853C23.0179 25.7458 23.1674 25.7071 23.3166 25.6735L24.5523 26.8512L24.9634 26.4847L25.1245 26.7377C25.1245 26.7377 24.1039 27.9747 22.1347 28.7536Z" fill="#C7D9F2"/>
<path d="M31.547 50.2242C31.547 50.2242 29.8499 48.9068 30.0052 48.0966C30.0206 48.0169 29.9778 47.9431 29.8935 47.9257L28.4088 47.6127C28.3394 47.5983 28.2629 47.6256 28.2182 47.6815L27.2617 48.8707L27.651 49.0372L27.8731 48.9L27.9583 49.169C30.0713 50.0739 30.9939 50.4424 31.4686 50.4897C31.609 50.329 31.547 50.2242 31.547 50.2242Z" fill="#100F0D"/>
<path d="M24.7747 39.8124C24.8637 39.8173 24.9135 39.8173 24.9135 39.8173L32.0348 40.8525L27.981 47.5777L30.0108 48.3503C30.0108 48.3503 37.351 40.4361 35.7112 38.6315C34.3626 37.1473 27.7544 36.2445 27.7544 36.2445L27.971 34.6956L21.8586 33.492C19.2458 39.2118 23.8998 39.7588 24.7747 39.8124Z" fill="#1D2A30"/>
<path d="M21.7849 34.1003L21.6553 34.0751L21.7739 33.6632L21.8891 33.6857L21.7849 34.1003Z" fill="#1D2A30"/>
<path d="M26.5939 35.0309L23.9844 34.5257L24.0862 34.1116L26.685 34.6154L26.5939 35.0309Z" fill="#1D2A30"/>
<path d="M26.886 34.6545L27.9893 34.8682L27.9158 35.2864L26.7988 35.0703L26.886 34.6545Z" fill="#1D2A30"/>
<path d="M22.0913 33.7246L23.8856 34.0726L23.7796 34.4861L21.9912 34.14L22.0913 33.7246Z" fill="#1D2A30"/>
<path d="M21.7849 34.1003L21.6553 34.0751L21.7739 33.6632L21.8891 33.6857L21.7849 34.1003Z" fill="#45555C"/>
<path d="M26.5939 35.0309L23.9844 34.5257L24.0862 34.1116L26.685 34.6154L26.5939 35.0309Z" fill="#45555C"/>
<path d="M27.9158 35.2864L27.8884 35.2811L26.7988 35.0703L26.886 34.6545L27.9893 34.8682L27.9158 35.2864Z" fill="#45555C"/>
<path d="M23.7796 34.4861L21.9912 34.14L22.0913 33.7246L23.8856 34.0726L23.7796 34.4861Z" fill="#45555C"/>
<path d="M25.8691 34.5393L25.813 34.5262L25.7542 34.7785L25.7346 34.7939L25.7311 34.7935L25.0779 34.6776L25.0614 34.658L25.062 34.6531L25.1277 34.3913L25.1467 34.3765L25.1506 34.3769L25.7974 34.502L25.8134 34.5217L25.813 34.5262L25.8691 34.5393L25.9252 34.5522L25.9286 34.5217C25.9286 34.4582 25.8842 34.4019 25.8193 34.389L25.1725 34.2639H25.1727L25.1467 34.2613C25.0861 34.2613 25.0313 34.3024 25.0159 34.3636V34.3634L24.9504 34.6252L24.9463 34.658C24.9463 34.7221 24.992 34.7792 25.0579 34.791H25.0577L25.7111 34.9071H25.7113L25.7346 34.9091C25.7966 34.9091 25.8517 34.8668 25.8664 34.8047L25.9254 34.5509L25.9252 34.5522L25.8691 34.5393Z" fill="white"/>
<path d="M25.3375 34.5031L25.138 34.4681C25.1066 34.4624 25.0769 34.4834 25.0712 34.5146C25.0657 34.5461 25.0866 34.5758 25.1179 34.5815L25.3175 34.6165C25.3488 34.6222 25.3787 34.6013 25.3842 34.5698C25.3897 34.5385 25.3688 34.5086 25.3375 34.5031Z" fill="white"/>
<path d="M23.9611 22.9712L25.5125 24.2573C25.3608 24.8869 25.6243 25.4674 25.9301 25.5749C25.9301 25.5749 26.1567 26.1145 25.7203 26.2056C24.836 26.3898 23.8271 25.5332 23.8271 25.5332C24.295 25.0306 24.1259 23.775 23.9611 22.9712Z" fill="#F9A95E"/>
<path d="M25.4383 24.7029C25.0938 24.6595 24.6183 24.2909 24.5788 23.9318C24.5591 23.7527 24.5654 23.58 24.5939 23.496L25.3501 24.1224L25.5122 24.2567C25.4757 24.4057 25.4477 24.5566 25.4383 24.7029Z" fill="#CA8849"/>
<path d="M25.3314 20.4301C25.7068 20.6641 26.2157 21.3698 25.5846 21.5395C24.9535 21.709 24.686 20.0277 25.3314 20.4301Z" fill="#1D2A30"/>
<path d="M23.3938 22.8415C24.0501 23.7072 24.3907 24.2478 25.1532 24.4028C26.3001 24.6359 27.134 23.4679 26.7482 22.4203C26.401 21.4775 25.3859 20.22 24.2669 20.4587C23.1644 20.6939 22.7372 21.9755 23.3938 22.8415Z" fill="#F8A461"/>
<path d="M23.5869 21.8988L22.7984 20.9787C22.7984 20.9787 21.7567 21.7451 22.2296 22.209C21.9178 22.9428 23.1567 23.9669 24.2401 23.7563C24.3656 23.0947 23.4007 21.9642 23.4007 21.9642C23.4602 21.9465 23.5229 21.9238 23.5869 21.8988Z" fill="#1D2A30"/>
<path d="M23.5465 23.826C23.7733 24.0104 24.064 24.0714 24.3024 24.0411C24.6607 23.9957 24.7024 23.6385 24.4875 23.371C24.2942 23.1304 23.8746 22.8639 23.5702 23.0443C23.2704 23.222 23.2871 23.6152 23.5465 23.826Z" fill="#F8A461"/>
<path d="M24.9251 22.167C24.974 22.2406 25.0524 22.2738 25.1003 22.2413C25.148 22.2087 25.1473 22.1229 25.0982 22.0492C25.0493 21.9756 24.9707 21.9424 24.923 21.9751C24.8751 22.0075 24.8761 22.0935 24.9251 22.167Z" fill="#1D2A30"/>
<path d="M25.7521 21.6044C25.801 21.6781 25.8794 21.7111 25.9273 21.6787C25.9752 21.6462 25.9743 21.5602 25.9254 21.4867C25.8763 21.4132 25.7979 21.3799 25.75 21.4124C25.7023 21.4449 25.7033 21.5309 25.7521 21.6044Z" fill="#1D2A30"/>
<path d="M25.5137 21.82C25.5137 21.82 25.9561 22.1125 26.2731 22.1852C26.2218 22.387 25.9645 22.4808 25.9645 22.4808L25.5137 21.82Z" fill="#F5782F"/>
<path d="M25.2841 22.9794C25.2518 22.9968 25.2192 23.0172 25.1865 23.041L25.1807 23.0774L25.2166 23.0833C25.531 22.8547 25.8345 22.9681 25.8376 22.9693L25.8708 22.9542L25.8562 22.9206C25.844 22.9159 25.5823 22.8179 25.2841 22.9794Z" fill="#1D2A30"/>
<path d="M24.3584 21.9256C24.3764 21.9264 24.3946 21.9178 24.4051 21.9014C24.5308 21.7057 24.722 21.7008 24.724 21.7008C24.7527 21.7004 24.776 21.6767 24.7758 21.6482C24.7756 21.6194 24.7521 21.5966 24.7236 21.597C24.7134 21.597 24.4737 21.603 24.3179 21.8458C24.3023 21.8701 24.3093 21.9023 24.3334 21.9176L24.3584 21.9256Z" fill="#1D2A30"/>
<path d="M25.7617 20.9372L25.7621 20.9073C25.7543 20.8795 25.7258 20.8631 25.6982 20.8707C25.4221 20.9471 25.3506 21.1751 25.3461 21.1849C25.3377 21.2123 25.3529 21.2416 25.3803 21.2504C25.4075 21.259 25.4364 21.2439 25.445 21.2169C25.4475 21.2074 25.5048 21.0324 25.7265 20.9712L25.7617 20.9372Z" fill="#1D2A30"/>
<path d="M23.4023 21.9644C23.4023 21.9644 25.4665 21.0971 25.593 20.107C25.7193 19.1169 24.8473 19.5226 24.8473 19.5226C24.8473 19.5226 25.2511 19.495 25.2116 19.7891C25.2116 19.7891 24.5144 19.3134 23.8502 19.7222C23.8502 19.7222 24.1605 19.7161 24.324 19.9465C24.324 19.9465 23.693 20.0696 22.9851 20.5944C22.2773 21.1192 21.0059 22.9981 23.4023 21.9644Z" fill="#1D2A30"/>
<path d="M27.7533 36.2445L24.3887 35.8582C24.3887 35.8582 25.3514 35.7002 26.9335 35.7002C27.2129 35.7002 27.511 35.7051 27.827 35.7166L27.7533 36.2445Z" fill="#161C1E"/>
<path d="M21.9781 29.6826C21.977 29.6689 21.9758 29.6549 21.9746 29.641C21.9805 29.6386 21.9864 29.6363 21.9923 29.6339C21.9876 29.6502 21.9829 29.6665 21.9781 29.6826Z" fill="#B1C2E8"/>
<path d="M21.9055 28.8398C21.8901 28.6991 21.874 28.5585 21.8564 28.4185H21.8566C21.8566 28.4185 22.0324 28.2091 22.0717 27.7162C22.0742 27.7147 22.0768 27.7133 22.0795 27.7117C22.0795 27.7117 22.1665 28.16 22.1335 28.7534C22.059 28.7828 21.9827 28.8117 21.9055 28.8398Z" fill="#B1C2E8"/>
<path d="M16.3717 34.4861L15.7871 35.8582L17.0531 36.171C17.0531 36.171 17.5966 35.2695 17.066 34.5821L16.3717 34.4861Z" fill="#F9A95E"/>
<path d="M15.8782 36.9159L16.8777 36.9233L17.0531 36.171L15.7871 35.8582L15.8782 36.9159Z" fill="#F9A95E"/>
<path d="M22.0636 27.2084C22.1506 28.0688 21.857 28.4186 21.857 28.4186C21.857 28.4186 21.0235 28.9422 20.662 29.2103C20.3546 29.4419 20.0533 29.6772 19.7679 29.9127C19.6265 30.0312 19.4902 30.1511 19.3655 30.2698C19.2419 30.3871 19.1262 30.5095 19.0531 30.6039C19.0204 30.6416 18.9876 30.703 18.9526 30.7578C18.917 30.8152 18.8799 30.9011 18.8413 30.9709C18.7649 31.1285 18.6888 31.2954 18.6169 31.4706C18.4726 31.82 18.3357 32.1842 18.2057 32.5538C17.9349 33.2887 17.6827 34.0465 17.4233 34.7916L16.2686 34.5171C16.3859 33.7059 16.5444 32.9155 16.7276 32.1144C16.8242 31.7162 16.9312 31.3173 17.0537 30.9118C17.1147 30.7095 17.1843 30.5032 17.2626 30.2917C17.3093 30.1804 17.3466 30.0799 17.4053 29.9608C17.4669 29.8404 17.5236 29.7223 17.6086 29.5972C17.765 29.3634 17.9183 29.1872 18.073 29.0171C18.2274 28.8488 18.3827 28.6939 18.5387 28.5441C18.8495 28.2456 19.1686 27.9738 19.4918 27.712C20.1392 27.1857 20.7889 26.7051 21.4851 26.241C21.4851 26.241 21.9848 26.4295 22.0636 27.2084Z" fill="#4870C0"/>
<path d="M17.4233 34.7916L17.1617 34.7295L16.3497 34.5365L16.2686 34.5171C16.3859 33.7059 16.5444 32.9155 16.7276 32.1144C16.8242 31.7162 16.9312 31.3173 17.0537 30.9118C17.1147 30.7095 17.1843 30.5032 17.2626 30.2917C17.3093 30.1804 17.3466 30.0799 17.4053 29.9608C17.4669 29.8404 17.5236 29.7223 17.6086 29.5972C17.765 29.3634 17.9183 29.1872 18.073 29.0171C18.2274 28.8488 18.3827 28.6939 18.5387 28.5441C18.8495 28.2456 19.1686 27.9738 19.4918 27.712C20.1392 27.1857 20.7889 26.7051 21.4851 26.241C21.4851 26.241 21.9848 26.4295 22.0636 27.2084C22.075 27.3192 22.0798 27.4217 22.0798 27.5159C22.0798 27.5873 22.0769 27.654 22.072 27.7163C22.0327 28.2092 21.857 28.4186 21.857 28.4186H21.8568C21.8566 28.4186 21.8566 28.4186 21.8566 28.4188C21.8374 28.4307 21.0194 28.9453 20.662 29.2103C20.3546 29.4419 20.0533 29.6772 19.7679 29.9127C19.6265 30.0312 19.4902 30.1511 19.3655 30.2698C19.2419 30.3871 19.1262 30.5095 19.0531 30.6039C19.0204 30.6416 18.9876 30.703 18.9526 30.7578C18.917 30.8152 18.8799 30.9011 18.8413 30.9709C18.7649 31.1285 18.6888 31.2954 18.6169 31.4706C18.4726 31.82 18.3357 32.1842 18.2057 32.5538C17.9349 33.2887 17.6827 34.0465 17.4233 34.7916Z" fill="#C7D9F2"/>
<path d="M24.6893 26.0547L25.1241 26.7376C25.1241 26.7376 23.6083 28.5747 20.7074 29.181L20.5137 29.7712L21.1307 29.9327C21.1307 29.9327 24.2636 29.1221 25.5138 26.772L26.1597 26.0527L25.3984 25.7972L24.6893 26.0547Z" fill="#4870C0"/>
<path d="M23.2842 25.6433L23.9906 25.0255L25.3981 25.7972L25.5608 24.9531L26.3039 25.3809L26.5166 26.4725L25.4796 26.0238L24.5515 26.8512L23.2842 25.6433Z" fill="#4870C0"/>
<path d="M24.5515 26.8512L23.2842 25.6433L23.9906 25.0255L25.3981 25.7972L25.5608 24.9531L26.3039 25.3809L26.5166 26.4725L25.9878 26.2437L25.4796 26.0238L24.9627 26.4846L24.5515 26.8512Z" fill="#B4CAEC"/>
<path d="M42.6761 13.415C42.6761 13.415 41.3614 15.0456 40.0272 14.9101C38.693 14.7748 38.0113 15.3164 38.0113 15.3164L37.8809 15.9673L38.5962 15.8707C38.5962 15.8707 38.5962 15.3549 39.9885 15.413C41.3808 15.4711 42.425 14.2739 42.8311 13.7316L42.6761 13.415Z" fill="#4870C0"/>
<path d="M52.1213 10.7042L52.0935 10.5757C52.0794 10.5251 52.0871 10.5184 52.039 10.3917C51.9625 10.1935 51.8339 10.03 51.7203 9.92798C51.4849 9.71741 51.2911 9.64331 51.1224 9.57664C50.7879 9.45816 50.5214 9.42081 50.2574 9.38836C49.9964 9.35883 49.7489 9.34593 49.5051 9.33948C49.0185 9.3254 48.5494 9.34965 48.0843 9.37878C47.1519 9.44036 46.2551 9.55044 45.333 9.70979L45.6685 11.6358C46.5116 11.5015 47.3906 11.3785 48.2413 11.2903C48.6681 11.2469 49.0931 11.2203 49.5014 11.2074C49.7047 11.2021 49.9049 11.2029 50.0893 11.2141C50.2189 11.2219 50.3472 11.2366 50.4434 11.2532C50.4494 11.3195 50.452 11.392 50.4496 11.4688C50.4373 11.8012 50.354 12.1905 50.2404 12.578C50.0107 13.3565 49.6508 14.1656 49.2781 14.9212L50.206 15.54C50.7986 14.7904 51.2866 14.0115 51.6904 13.1159C51.8833 12.6642 52.054 12.1875 52.1314 11.6282C52.1688 11.348 52.1821 11.0426 52.1213 10.7042Z" fill="#4870C0"/>
<path d="M51.7882 12.8781C51.788 12.8779 51.7878 12.8779 51.7878 12.8777C51.9304 12.5179 52.052 12.1369 52.119 11.7073C52.053 12.1367 51.9302 12.5187 51.7882 12.8781ZM50.4177 11.789C50.4233 11.7529 50.4282 11.7169 50.4323 11.6815C50.4284 11.7171 50.4237 11.7533 50.4185 11.7896C50.4183 11.7894 50.4179 11.7892 50.4177 11.789ZM50.4425 11.2533C50.4347 11.2518 50.4267 11.2504 50.4185 11.249C50.4267 11.2504 50.4347 11.2518 50.4425 11.2531C50.4425 11.2531 50.4425 11.2531 50.4425 11.2533ZM50.2313 11.2254C50.185 11.2209 50.1371 11.2172 50.0892 11.2142C49.986 11.2078 49.8786 11.2048 49.7688 11.2043C49.8788 11.2048 49.986 11.208 50.0884 11.214C50.1367 11.217 50.185 11.2209 50.2313 11.2254ZM52.147 10.8891C52.1404 10.8285 52.1317 10.7669 52.1204 10.7041L52.0926 10.5757C52.0786 10.525 52.0862 10.5184 52.0381 10.3917C51.9617 10.1934 51.833 10.03 51.7194 9.92793C51.484 9.71736 51.2903 9.64326 51.1215 9.57659C51.0144 9.53866 50.9145 9.50914 50.8191 9.48529C50.9143 9.50894 51.0144 9.53827 51.1215 9.57581C51.2897 9.64248 51.4832 9.71658 51.7198 9.92773C51.8332 10.0294 51.9622 10.1936 52.0385 10.3913C52.0854 10.5182 52.0795 10.5241 52.0932 10.5751L52.1206 10.7039C52.1317 10.7667 52.1405 10.8285 52.147 10.8891ZM45.6115 9.66281C45.6111 9.66281 45.6107 9.66262 45.6104 9.66242C45.8381 9.62566 46.0645 9.59184 46.2905 9.56075C46.0647 9.59184 45.8387 9.62586 45.6115 9.66281ZM50.4104 9.40825C50.3588 9.40121 50.3076 9.39476 50.2566 9.38831C49.9956 9.35878 49.748 9.34588 49.5042 9.33943C49.4067 9.33669 49.3097 9.33532 49.2135 9.33532C48.8295 9.33532 48.4553 9.35546 48.0834 9.37873C47.9556 9.38713 47.8285 9.39652 47.702 9.40669C47.8285 9.39633 47.9554 9.38694 48.0832 9.37834C48.4551 9.35507 48.8295 9.33532 49.2133 9.33532C49.3097 9.33532 49.4067 9.3365 49.5046 9.33923C49.749 9.3451 49.9954 9.35878 50.2573 9.38811C50.3082 9.39456 50.359 9.40121 50.4104 9.40825Z" fill="white"/>
<path d="M51.7876 12.8777C51.3303 12.452 50.8695 12.0925 50.4183 11.7896C50.4235 11.7533 50.4282 11.7171 50.4321 11.6815C50.4407 11.6082 50.446 11.537 50.4488 11.4684C50.4507 11.3922 50.4488 11.3198 50.4429 11.2534C50.4427 11.2534 50.4425 11.2534 50.4423 11.2534C50.4423 11.2532 50.4423 11.2532 50.4423 11.2532C50.4345 11.2518 50.4265 11.2504 50.4183 11.2491C50.3631 11.2399 50.299 11.2318 50.2311 11.2254C50.1848 11.2209 50.1365 11.217 50.0882 11.2141C49.9858 11.208 49.8786 11.2049 49.7686 11.2043C49.7529 11.2043 49.7373 11.2043 49.7216 11.2043C49.6487 11.2043 49.5748 11.2051 49.5005 11.2066L49.4555 11.2084C48.5266 10.71 47.7026 10.441 47.1375 10.2985C46.4208 9.95005 45.8555 9.74534 45.6113 9.66284C45.8385 9.62588 46.0645 9.59186 46.2904 9.56078C46.7592 9.49684 47.2267 9.44562 47.7018 9.40671C47.8283 9.39655 47.9554 9.38716 48.0832 9.37875C48.4551 9.35549 48.8293 9.33535 49.2133 9.33535C49.3095 9.33535 49.4065 9.33672 49.504 9.33945C49.7478 9.34591 49.9954 9.35881 50.2564 9.38833C50.3074 9.39478 50.3586 9.40124 50.4102 9.40828C50.5405 9.42665 50.674 9.44953 50.8189 9.48531C50.9143 9.50916 51.0142 9.53869 51.1213 9.57662C51.2901 9.64329 51.4838 9.71739 51.7192 9.92796C51.8328 10.03 51.9615 10.1935 52.0379 10.3917C52.086 10.5184 52.0784 10.5251 52.0924 10.5757L52.1202 10.7041C52.1316 10.7669 52.1402 10.8285 52.1468 10.8891C52.1752 11.1548 52.1605 11.3996 52.1302 11.6289C52.1267 11.6553 52.1228 11.6815 52.1188 11.7073C52.0518 12.1369 51.9302 12.5179 51.7876 12.8777Z" fill="#C7D9F2"/>
<path d="M48.7994 11.243C48.7992 11.243 48.799 11.2428 48.7988 11.2427C48.8997 11.2358 49 11.2297 49.0997 11.2243C49.0002 11.2297 48.9001 11.236 48.7994 11.243Z" fill="#E8E8E6"/>
<path d="M48.7988 11.2426C48.2099 10.8535 47.6372 10.541 47.1377 10.2984C47.7027 10.4409 48.5268 10.71 49.4557 11.2083C49.3382 11.2124 49.2193 11.2177 49.0997 11.2242C49 11.2297 48.8997 11.2357 48.7988 11.2426Z" fill="#B1C2E8"/>
<path d="M51.4416 13.6346C51.4414 13.6343 51.4412 13.6343 51.441 13.6341C51.5276 13.4653 51.6107 13.2929 51.6905 13.1159C51.7241 13.0373 51.757 12.9582 51.7889 12.8778C51.7889 12.878 51.789 12.878 51.7892 12.8782C51.758 12.9584 51.7247 13.0387 51.6915 13.1169C51.6115 13.2937 51.5282 13.4661 51.4416 13.6346ZM50.2912 12.3972L50.291 12.397C50.3463 12.1894 50.3913 11.9833 50.4187 11.7892C50.4189 11.7894 50.4193 11.7896 50.4195 11.7898C50.3915 11.9841 50.3467 12.1896 50.2912 12.3972Z" fill="#E8E8E6"/>
<path d="M51.4408 13.634C51.0881 13.1797 50.6994 12.7695 50.2943 12.4001C50.2932 12.3992 50.2922 12.3982 50.291 12.3972C50.3465 12.1896 50.3913 11.9841 50.4193 11.7897C50.8705 12.0926 51.3313 12.4521 51.7887 12.8778C51.7568 12.9581 51.7239 13.0373 51.6903 13.1159C51.6105 13.2929 51.5274 13.4653 51.4408 13.634Z" fill="#B1C2E8"/>
<path d="M39.2924 11.0917C39.3458 11.1592 39.3532 11.2423 39.309 11.2773C39.2649 11.3121 39.1857 11.2857 39.1323 11.218C39.0791 11.1504 39.0715 11.0673 39.1157 11.0323C39.1599 10.9975 39.2391 11.0239 39.2924 11.0917Z" fill="#1D2A30"/>
<path d="M39.3594 11.2373C39.3594 11.2373 39.5138 11.7485 39.4931 12.0706C39.7009 12.0876 39.864 11.876 39.864 11.876L39.3594 11.2373Z" fill="#F03E4C"/>
<path d="M39.2437 10.5206L39.2556 10.4858C39.2544 10.4579 39.2308 10.4362 39.2028 10.4375C38.9232 10.4498 38.8024 10.6495 38.7971 10.6583C38.7828 10.6823 38.7909 10.7134 38.8149 10.7275C38.8391 10.7416 38.8702 10.7333 38.8841 10.7097C38.888 10.7032 38.9842 10.5486 39.2073 10.5386L39.2437 10.5206Z" fill="#1D2A30"/>
<path d="M41.2402 10.0457C41.8862 10.5112 43.1232 11.2479 43.8251 10.9687C43.8251 10.9687 44.4563 11.4938 43.85 12.813C43.1833 14.2635 42.8112 13.1753 42.8112 13.1753C42.986 12.2968 42.3893 12.0472 41.7742 11.9316L41.2402 10.0457Z" fill="#F47272"/>
<path d="M41.4345 9.1673C42.0395 10.0377 42.4377 10.5166 42.355 11.2738C42.2307 12.413 40.9057 12.8424 40.0528 12.1702C39.2854 11.5651 38.4252 10.243 38.9769 9.27092C39.5203 8.3129 40.8298 8.29687 41.4345 9.1673Z" fill="#F47272"/>
<path d="M42.4064 10.6039C42.3155 11.0972 40.6552 11.7719 39.9019 10.7085C39.9019 10.7085 38.9564 10.7009 38.3876 10.1307C37.8189 9.56082 37.9409 8.9426 38.4504 8.60632C38.8997 8.30992 40.061 6.12641 41.4136 7.68466C42.8821 7.62503 42.5196 9.98822 42.4064 10.6039Z" fill="#1D2A30"/>
<path d="M39.6006 8.37144C39.6006 8.37144 38.7286 8.32921 38.2257 8.72884C37.7231 9.12848 37.8648 10.3544 38.0582 10.5858C38.2515 10.8171 38.4578 10.8171 38.4578 10.8171C38.4578 10.8171 38.1614 10.6635 38.1614 10.4375C38.1614 10.4375 38.2903 10.7399 38.8833 10.8171C38.8833 10.8171 38.7141 10.682 38.7407 10.5112C38.7407 10.5112 39.062 10.927 39.8041 10.5112C40.5461 10.0953 39.6006 8.37144 39.6006 8.37144Z" fill="#1D2A30"/>
<path d="M40.3424 10.5255C40.5027 10.7521 40.5653 11.0359 40.5508 11.2659C40.5293 11.6115 40.2402 11.6389 40.0126 11.4207C39.8079 11.2244 39.5723 10.808 39.7062 10.5196C39.838 10.2355 40.1592 10.2662 40.3424 10.5255Z" fill="#F47272"/>
<path d="M42.0779 13.415C42.0779 13.415 41.9154 11.4466 43.2007 10.3412L44.7312 10.4815C44.7312 10.4815 43.8493 12.6336 42.0779 13.415Z" fill="#4870C0"/>
<path d="M42.0742 13.0485C42.0946 12.4259 42.2588 11.1516 43.2012 10.3412L44.0071 10.4149C43.7506 10.6456 43.5083 10.9099 43.2839 11.1883C42.7796 11.8132 42.3642 12.5083 42.0742 13.0485Z" fill="#B4CAEC"/>
<path d="M46.4916 17.8422C46.4916 17.8422 44.1769 15.5695 41.6182 13.9788C41.6182 13.9788 43.3229 9.97719 45.4808 9.62018C45.4808 9.62018 51.0594 11.3049 52.678 15.8706L46.4916 17.8422Z" fill="#4870C0"/>
<path d="M46.7857 31.7055L45.7871 32.1294L44.7061 29.8587L45.7047 29.4348L46.7857 31.7055Z" fill="#F47272"/>
<path d="M52.6777 15.8707L52.0886 22.1205C51.7648 22.36 51.2489 22.5463 50.6262 22.6918C49.4067 22.9755 47.7795 23.1045 46.3745 23.1798C44.7963 23.266 43.5002 23.2823 43.3831 23.373C43.1088 23.5865 46.5837 30.7634 46.5837 30.7634L44.9251 30.9701C44.9251 30.9701 40.5661 24.9918 40.0021 22.9151C39.7942 22.1485 39.5848 21.1883 40.9928 20.2911C42.2319 19.501 46.8465 18.9084 46.8465 18.9084L46.4912 17.8422L52.6777 15.8707Z" fill="#1D2A30"/>
<path d="M46.3746 23.1798C46.284 22.0816 46.4997 21.0047 46.7505 20.1777C46.8205 21.0237 46.9179 22.0476 47.0495 23.1401C46.8205 23.155 46.5949 23.1681 46.3746 23.1798Z" fill="#182124"/>
<path d="M61.3295 30.7852L61.5062 31.8555L59.0449 32.3715L58.8682 31.3008L61.3295 30.7852Z" fill="#F47272"/>
<path d="M61.5696 31.9858C61.6996 32.1426 61.8419 32.3769 61.8087 32.4566C61.8044 32.467 61.7946 32.4809 61.7579 32.4822C61.7373 32.4828 61.7188 32.475 61.7008 32.4582L61.6697 32.4191C61.6032 32.311 61.5784 32.0985 61.5696 31.9858ZM61.5582 31.8947L61.5297 31.8885L61.5137 31.9131C61.5143 31.9317 61.5291 32.3677 61.6656 32.4959C61.6937 32.5219 61.7252 32.5348 61.7594 32.5335C61.8206 32.5315 61.8458 32.5014 61.8564 32.4766C61.8859 32.4054 61.8318 32.2807 61.7586 32.1622C61.6906 32.0517 61.6063 31.9465 61.5582 31.8947Z" fill="#4870C0"/>
<path d="M61.3087 32.2612C61.3245 32.1453 61.4532 32.0205 61.5185 31.964C61.5202 32.1199 61.4555 32.3664 61.3867 32.3952C61.3812 32.3975 61.364 32.4045 61.3359 32.3674L61.3271 32.3549C61.3101 32.3269 61.304 32.2962 61.3087 32.2612ZM61.5507 31.8884L61.5253 31.8917C61.5156 31.8993 61.2819 32.0774 61.2579 32.2542C61.2506 32.3083 61.263 32.3568 61.295 32.3989C61.3382 32.4552 61.3795 32.4538 61.4063 32.4425C61.5212 32.3952 61.5852 32.0512 61.5664 31.9089L61.5629 31.8987L61.5507 31.8884Z" fill="#4870C0"/>
<path d="M61.3729 31.88L60.7514 30.8711C60.7281 30.8334 60.7342 30.7847 60.766 30.7536L61.475 30.0654C61.5483 29.994 61.6687 30.0091 61.7209 30.0971C61.9389 30.4648 62.2416 31.0039 62.5233 31.4614C62.8526 31.9961 63.1664 32.4399 63.5525 33.0673C63.7862 33.4464 63.4677 33.7878 63.3351 33.6506C62.7319 33.0253 62.3515 32.4456 61.5817 32.0581C61.4982 32.016 61.422 31.9595 61.3729 31.88Z" fill="#1D2A30"/>
<path d="M52.6782 15.8707C52.6782 15.8707 54.6656 20.9799 51.3127 22.9622C51.3127 22.9622 51.2701 28.8659 52.1176 29.5577C53.149 30.3996 60.7025 30.8279 60.7025 30.8279L60.6366 32.7037C60.6366 32.7037 52.5503 33.3657 50.1019 32.4875C47.2352 31.4587 46.5967 17.9312 46.5967 17.9312L52.6782 15.8707Z" fill="#1D2A30"/>
<path d="M51.1909 20.7169L50.6612 20.5484C50.6612 20.5484 50.5167 19.4381 50.3799 19.0069L51.5872 18.6419C51.5872 18.6419 51.753 19.6805 51.7508 20.2363L51.1909 20.7169Z" fill="#182124"/>
<path d="M46.8887 17.8464L47.0452 18.343L46.5986 18.4814L46.4414 17.9893L46.8887 17.8464Z" fill="#1D2A30"/>
<path d="M48.9492 17.1858L49.1171 17.7007L47.2687 18.2738L47.1055 17.7764L48.9492 17.1858Z" fill="#1D2A30"/>
<path d="M51.2514 16.4482L51.4189 16.9873L49.3527 17.6276L49.1885 17.1093L51.2514 16.4482Z" fill="#1D2A30"/>
<path d="M52.931 16.5174L51.6584 16.9119L51.657 16.9121L51.4863 16.3719L52.7496 15.9672L52.931 16.5174Z" fill="#1D2A30"/>
<path d="M46.5986 18.4814L46.4414 17.9893L46.8887 17.8464L47.0452 18.343L46.6264 18.4728L46.5986 18.4814Z" fill="#45555C"/>
<path d="M47.2687 18.2738L47.1055 17.7764L48.9492 17.1858L49.1171 17.7007L47.2687 18.2738Z" fill="#45555C"/>
<path d="M49.3527 17.6276L49.1885 17.1093L51.2514 16.4482L51.4189 16.9873L49.3527 17.6276Z" fill="#45555C"/>
<path d="M51.657 16.9121L51.4863 16.3719L52.7496 15.9672L52.931 16.5174L51.6584 16.9119L51.657 16.9121Z" fill="#45555C"/>
<path d="M45.3955 31.7761C45.1945 31.8095 44.9204 31.8142 44.8682 31.7454C44.8614 31.7364 44.8545 31.7208 44.8717 31.6885C44.8815 31.6705 44.8977 31.6582 44.9214 31.6513C44.9361 31.647 44.9529 31.6447 44.9709 31.6443C45.0975 31.6414 45.2936 31.7268 45.3955 31.7761ZM45.4798 31.8123L45.4997 31.7908L45.4866 31.7646C45.4702 31.7556 45.086 31.5487 44.9067 31.6021C44.87 31.613 44.843 31.6338 44.8268 31.6641C44.7976 31.7178 44.8109 31.755 44.8271 31.7765C44.8737 31.8379 45.0086 31.8537 45.148 31.8506C45.2776 31.8475 45.411 31.8277 45.4798 31.8123Z" fill="#4870C0"/>
<path d="M45.2897 31.4106C45.3819 31.4827 45.4248 31.6567 45.4408 31.7416C45.3053 31.6647 45.1246 31.4845 45.1348 31.4106C45.1356 31.4045 45.1381 31.3863 45.1843 31.3805L45.1997 31.3793C45.2322 31.3785 45.2619 31.3889 45.2897 31.4106ZM45.4897 31.8075L45.4996 31.784C45.4981 31.7717 45.4621 31.4802 45.3213 31.3701C45.2785 31.3367 45.2304 31.323 45.1778 31.3294C45.1074 31.3384 45.0879 31.3746 45.0838 31.4035C45.067 31.5267 45.3317 31.7553 45.4642 31.8108L45.4746 31.8127L45.4897 31.8075Z" fill="#4870C0"/>
<path d="M45.5874 31.6587L46.772 31.6307C46.8162 31.6295 46.8555 31.6595 46.866 31.7025L47.1032 32.6615C47.1276 32.761 47.0541 32.8576 46.9517 32.8582C46.7955 32.8591 46.614 32.8585 46.4203 32.8578C46.0836 32.8566 45.7101 32.8554 45.3692 32.8632C44.7412 32.8783 44.1996 32.9254 43.4633 32.9428C43.0179 32.9532 42.8838 32.506 43.0691 32.4609C43.9132 32.2552 44.6057 32.219 45.3281 31.7494C45.4067 31.6986 45.4939 31.6608 45.5874 31.6587Z" fill="#1D2A30"/>
<path d="M46.2042 17.5684C45.784 17.1758 44.9382 16.4091 43.89 15.586C43.8899 15.5858 43.8898 15.5856 43.8897 15.5854C44.9382 16.4082 45.7844 17.1756 46.2042 17.5684ZM41.6342 13.9889C41.6289 13.9855 41.6234 13.9822 41.6182 13.9789C41.6182 13.9789 41.783 13.592 42.0749 13.0484V13.0486C41.7832 13.5922 41.6184 13.9789 41.6184 13.9789C41.6236 13.982 41.6291 13.9855 41.6344 13.9887C41.6344 13.9889 41.6344 13.9889 41.6342 13.9889ZM50.2906 12.397C49.8648 12.0091 49.4216 11.6665 48.9834 11.3666C49.4214 11.6665 49.865 12.0091 50.2906 12.397Z" fill="white"/>
<path d="M42.0742 13.0486V13.0484C42.3642 12.5082 42.7796 11.8131 43.2839 11.1883C42.7796 11.8131 42.3642 12.5084 42.0742 13.0486Z" fill="#EBF3FB"/>
<path d="M46.492 17.842C46.4869 17.8373 46.385 17.7374 46.204 17.5683C45.7842 17.1755 44.938 16.4081 43.8895 15.5854C43.6392 15.0006 43.1487 14.5734 43.1119 14.5419C43.0239 14.3935 42.8972 14.2457 42.7154 14.1366C42.3527 13.919 42.0334 13.8782 41.8452 13.8782C41.7325 13.8782 41.6667 13.8928 41.6667 13.8928C41.6559 13.9247 41.645 13.9568 41.6342 13.9886C41.6289 13.9855 41.6234 13.982 41.6182 13.9789C41.6182 13.9789 41.783 13.5921 42.0747 13.0486C42.3646 12.5084 42.7801 11.8131 43.2843 11.1883C43.9051 10.4189 44.6604 9.75633 45.4813 9.62084C45.4813 9.62084 47.1854 10.1352 48.9832 11.3666C49.4214 11.6665 49.8646 12.0091 50.2904 12.397L50.2906 12.3971C50.2918 12.3981 50.2928 12.3991 50.2939 12.4001C51.2809 13.3002 52.1724 14.445 52.6779 15.8707L46.492 17.842Z" fill="#C7D9F2"/>
<path d="M46.4914 17.8422C46.4914 17.8422 46.4912 17.8422 46.4912 17.842L52.6773 15.8706C52.6771 15.8706 52.6771 15.8706 52.6771 15.8706L52.6335 15.8854L46.4914 17.8422Z" fill="#BDC1C2"/>
<path d="M52.6348 15.8856L52.6787 15.8707C52.6787 15.8711 52.6787 15.8713 52.6789 15.8715L52.6348 15.8856Z" fill="#BDC1C2"/>
<path d="M43.8889 15.5859C43.701 15.4391 43.5074 15.2905 43.3086 15.1421C43.3088 15.1417 43.3088 15.1413 43.309 15.1413C43.5078 15.2899 43.7012 15.4385 43.8885 15.5854C43.8887 15.5856 43.8887 15.5857 43.8889 15.5859Z" fill="#E8E8E6"/>
<path d="M43.8889 15.5854C43.7016 15.4386 43.5082 15.29 43.3094 15.1414V15.1412C43.3094 15.1412 43.2881 14.8399 43.1113 14.542C43.1481 14.5735 43.6386 15.0007 43.8889 15.5854Z" fill="#B1C2E8"/>
<path d="M34.9515 19.6687L34.5251 19.7704C34.4188 19.7958 34.338 19.8824 34.3206 19.9905L34.2242 20.5843C34.2039 20.7096 34.2733 20.8322 34.3914 20.8793L34.703 21.0035C34.703 21.0035 35.6028 21.6526 36.3633 21.2334L36.0347 20.3634L35.3914 19.7813C35.2724 19.6736 35.1078 19.6314 34.9515 19.6687Z" fill="#F47272"/>
<path d="M42.7154 14.1367C43.2623 14.4647 43.31 15.1412 43.31 15.1412C43.31 15.1412 42.8802 16.3067 42.6311 16.8868C42.4618 17.2803 42.2861 17.6753 42.0813 18.0681C41.87 18.4642 41.6669 18.8525 41.3218 19.2812L41.2545 19.3624L41.1744 19.4486C41.1261 19.5029 41.0545 19.5677 40.9849 19.6277C40.9552 19.6555 40.901 19.6934 40.8555 19.7252C40.8113 19.7557 40.7493 19.7966 40.7313 19.8037L40.5661 19.8897C40.3507 19.998 40.1491 20.0826 39.9467 20.1659C39.5449 20.3306 39.1473 20.4737 38.7484 20.6109C37.9482 20.8786 37.1524 21.1232 36.3352 21.3289L35.9473 20.2834C36.6803 19.9079 37.4273 19.5522 38.1566 19.1856C38.5218 19.0048 38.8855 18.8226 39.2347 18.6388C39.4067 18.5459 39.5782 18.4509 39.7262 18.3609L39.8312 18.2945C39.8595 18.2782 39.8378 18.2859 39.8359 18.2868L39.8288 18.2892C39.8351 18.2786 39.8413 18.2753 39.8593 18.2497L39.8826 18.2204L39.9107 18.1791C40.0691 17.9492 40.2482 17.5973 40.4031 17.2526C40.5581 16.8997 40.7131 16.5354 40.8559 16.1624C41.1399 15.419 41.4125 14.6438 41.6667 13.8928C41.6667 13.8928 42.1353 13.7886 42.7154 14.1367Z" fill="#4870C0"/>
<path d="M36.3352 21.3289L36.3099 21.2608L35.9477 20.2844L35.9473 20.2834C36.6803 19.9079 37.4273 19.5522 38.1566 19.1856C38.5218 19.0048 38.8855 18.8226 39.2347 18.6388C39.4067 18.5459 39.5782 18.4509 39.7262 18.3609L39.8312 18.2945C39.8423 18.2882 39.8456 18.2855 39.8456 18.2845C39.8456 18.2843 39.8454 18.2841 39.8449 18.2841C39.8427 18.2841 39.8368 18.2865 39.8359 18.2868L39.8288 18.2892C39.8351 18.2786 39.8413 18.2753 39.8593 18.2497L39.8826 18.2204L39.9107 18.1791C40.0691 17.9492 40.2482 17.5973 40.4031 17.2526C40.5581 16.8997 40.7131 16.5354 40.8559 16.1624C41.1399 15.419 41.4125 14.6438 41.6667 13.8928C41.6667 13.8928 41.7326 13.8782 41.8452 13.8782C42.0335 13.8782 42.3527 13.919 42.7154 14.1367C43.2623 14.4647 43.31 15.1412 43.31 15.1412V15.1414C43.3098 15.1414 43.3098 15.1418 43.3096 15.1422C43.2969 15.1768 42.8765 16.3157 42.6311 16.8868C42.4618 17.2803 42.2861 17.6753 42.0813 18.0681C41.87 18.4642 41.6669 18.8525 41.3218 19.2812L41.2545 19.3624L41.1744 19.4486C41.1261 19.5029 41.0545 19.5677 40.9849 19.6277C40.9552 19.6555 40.901 19.6934 40.8555 19.7252C40.8113 19.7557 40.7493 19.7966 40.7313 19.8037L40.5661 19.8897C40.3507 19.998 40.1491 20.0826 39.9467 20.1659C39.5449 20.3306 39.1473 20.4737 38.7484 20.6109C37.9482 20.8786 37.1524 21.1232 36.3352 21.3289Z" fill="#C7D9F2"/>
<path d="M6.95898 66.017H39.9784L57.4527 51.9016L58.219 52.85H62.523L66.9077 32.667L62.6018 32.6756L62.6038 32.667L41.9496 32.7081L44.4154 35.7605L6.95898 66.017Z" fill="#7D97F4"/>
<path d="M29.9952 64.8521H8.40137L44.4158 35.7604L43.7817 34.9756L43.5686 34.7118L42.8828 33.8627L42.8022 33.7628L41.95 32.708L62.6041 32.667L62.6022 32.6756L58.2193 52.85L57.4531 51.9015L55.7537 49.7976L38 64.8521C34.9499 64.852 34.5 64.8521 29.9952 64.8521Z" fill="#4F52FF"/>
</g>
<defs>
<clipPath id="clip0_1_114">
<rect width="72" height="72" fill="white"/>
</clipPath>
</defs>
</svg>
