<svg width="72" height="72" viewBox="0 0 72 72" fill="none" xmlns="http://www.w3.org/2000/svg">
<rect width="72" height="72" fill="#F5F5F5"/>
<rect width="1440" height="12112" transform="translate(-563 -2334)" fill="white"/>
<rect x="-23.5" y="-23.5" width="359" height="359" rx="3.5" fill="white" stroke="#737373"/>
<g clip-path="url(#clip0_1_114)">
<path fill-rule="evenodd" clip-rule="evenodd" d="M9.60552 14.4239C14.1053 8.34221 20.5656 4.87509 27.8904 2.97023C36.865 0.636383 46.4707 -2.12657 54.3367 2.79143C64.1027 8.89733 73.5038 19.1081 71.9397 30.5108C70.4137 41.6352 56.6478 44.6488 47.6698 51.3926C37.4928 59.037 29.7076 74.8314 17.4257 71.4586C5.09863 68.0734 3.18942 51.3601 1.4537 38.701C0.233347 29.8006 4.26385 21.6435 9.60552 14.4239Z" fill="#B3E3FF" fill-opacity="0.3"/>
<path d="M6.85549 9.19268C6.85091 8.4032 7.54005 7.79197 8.31657 7.89788C13.4667 8.60197 31.1767 10.7786 45.8187 9.64574C46.4864 9.59441 47.0661 10.1039 47.1017 10.7782L50.0206 66.1238C50.0608 66.8827 49.4858 67.5316 48.7329 67.5767C42.5744 67.9438 17.2127 69.3636 8.16665 68.4088C7.61604 68.3507 7.19817 67.8836 7.19488 67.3256L6.85549 9.19268Z" fill="#91B3FA"/>
<path d="M5.00002 9.35297C4.99514 8.53557 5.72951 7.90271 6.55699 8.01238C12.0451 8.74137 30.9173 10.995 46.5203 9.82206C47.2318 9.76892 47.8495 10.2965 47.8875 10.9945L50.9979 68.2981C51.0408 69.0838 50.428 69.7557 49.6257 69.8024C43.0631 70.1825 16.0369 71.6525 6.39723 70.6639C5.81048 70.6037 5.36519 70.1201 5.36169 69.5424L5.00002 9.35297Z" fill="#1B1092"/>
<path d="M7.46096 10.5801C7.45651 9.82021 8.11971 9.23199 8.86694 9.33406C13.8231 10.0116 30.866 12.1063 44.9568 11.0163C45.5996 10.9664 46.1574 11.4572 46.1915 12.1058L49.0005 65.3672C49.0387 66.0976 48.4859 66.722 47.7614 66.7653C41.8348 67.1186 17.428 68.4848 8.72263 67.5661C8.19284 67.5103 7.79065 67.0607 7.78752 66.5237L7.46096 10.5801Z" fill="#BDD0FB"/>
<path d="M20.9401 26.9171C17.8424 26.9171 14.633 26.8364 13.2771 26.7982C12.9 26.7875 12.5955 26.4853 12.578 26.1058L12.0516 14.6869C12.0313 14.2452 12.3814 13.879 12.8162 13.879C12.8252 13.879 12.8344 13.879 12.8435 13.8794L25.2473 14.3164C25.6721 14.3314 26.031 14.6401 26.1091 15.0607C26.5934 17.6663 26.4393 23.8995 26.3689 26.0406C26.3552 26.4621 26.0247 26.8025 25.607 26.8244C24.3002 26.8931 22.6371 26.9171 20.9401 26.9171Z" fill="#F1F5FE"/>
<mask id="mask0_1_114" style="mask-type:luminance" maskUnits="userSpaceOnUse" x="16" y="16" width="6" height="6">
<path d="M21.6227 18.7692C21.6227 20.1247 20.5321 21.2238 19.1867 21.2238C17.8416 21.2238 16.751 20.1247 16.751 18.7692C16.751 17.4134 17.8416 16.3143 19.1867 16.3143C20.5321 16.3143 21.6227 17.4134 21.6227 18.7692Z" fill="white"/>
</mask>
<g mask="url(#mask0_1_114)">
<path d="M21.6228 18.769C21.6228 20.1246 20.5321 21.2238 19.1868 21.2238C17.8416 21.2238 16.751 20.1246 16.751 18.769C16.751 17.4133 17.8416 16.3142 19.1868 16.3142C20.5321 16.3142 21.6228 17.4133 21.6228 18.769Z" fill="url(#paint0_linear_1_114)"/>
</g>
<mask id="mask1_1_114" style="mask-type:luminance" maskUnits="userSpaceOnUse" x="14" y="22" width="10" height="4">
<path d="M15.4932 25.9764H23.2534C23.7291 25.9764 24.0144 25.4471 23.7581 25.0431C23.0989 24.0038 21.7197 22.4768 19.3312 22.5458C17.0292 22.6121 15.6648 23.9915 14.9789 24.9806C14.6878 25.4005 14.9847 25.9764 15.4932 25.9764Z" fill="white"/>
</mask>
<g mask="url(#mask1_1_114)">
<path d="M15.4922 25.9762H23.2525C23.7282 25.9762 24.0134 25.447 23.7572 25.0431C23.0979 24.0035 21.7188 22.4766 19.3303 22.5454C17.0283 22.612 15.6638 23.9911 14.9779 24.9803C14.6868 25.4004 14.9837 25.9762 15.4922 25.9762Z" fill="url(#paint1_linear_1_114)"/>
</g>
<path d="M43.4114 15.6799H29.4879C29.4259 15.6799 29.3583 15.632 29.3374 15.573L29.054 14.7609C29.0334 14.7028 29.0664 14.6561 29.1269 14.6561C29.1277 14.6561 29.1285 14.6561 29.1292 14.6561L43.3887 14.912C43.451 14.9129 43.5033 14.9651 43.5049 15.0279L43.5205 15.5666C43.5226 15.629 43.4733 15.6799 43.4114 15.6799Z" fill="#E5ECFD"/>
<path d="M43.4114 17.8092H29.488C29.4259 17.8092 29.3583 17.7607 29.3375 17.7018L29.054 16.8901C29.0334 16.8321 29.0665 16.7848 29.1272 16.7848C29.1277 16.7848 29.1285 16.7852 29.1293 16.7852L43.389 17.0411C43.451 17.0423 43.5033 17.0942 43.5049 17.1567L43.5204 17.6957C43.5225 17.7582 43.4731 17.8092 43.4114 17.8092Z" fill="#E5ECFD"/>
<path d="M43.4113 19.9686H29.4878C29.4258 19.9686 29.3582 19.9204 29.3372 19.8615L29.0539 19.0496C29.0334 18.9915 29.0666 18.9445 29.127 18.9445C29.1278 18.9445 29.1282 18.9445 29.129 18.9445L43.3888 19.2006C43.4509 19.2017 43.5034 19.2539 43.505 19.3164L43.5204 19.8551C43.5224 19.9177 43.4734 19.9686 43.4113 19.9686Z" fill="#E5ECFD"/>
<path d="M44.7346 30.384H12.972C12.91 30.384 12.8276 30.3439 12.7889 30.2951L12.1186 29.4468C12.0802 29.398 12.0989 29.3588 12.16 29.3588C12.1604 29.3588 12.1608 29.3588 12.1612 29.3588L44.6844 29.6171C44.7466 29.6175 44.8006 29.6691 44.8047 29.7314L44.8401 30.2708C44.8442 30.3331 44.7968 30.384 44.7346 30.384Z" fill="#E5ECFD"/>
<path d="M44.7346 32.5121H12.972C12.91 32.5121 12.8276 32.4719 12.7889 32.4231L12.1186 31.5748C12.0802 31.5264 12.0989 31.4869 12.16 31.4869C12.1604 31.4869 12.1608 31.4869 12.1612 31.4869L44.6844 31.7452C44.7466 31.7455 44.8006 31.7971 44.8047 31.8594L44.8401 32.3989C44.8442 32.4612 44.7968 32.5121 44.7346 32.5121Z" fill="#E5ECFD"/>
<path d="M13.3272 42.7182C13.2204 42.7257 13.123 42.7733 13.0598 42.8491C13.0076 42.9117 12.9833 42.9885 12.9912 43.0651L13.2276 45.3391C13.253 45.5832 13.4828 45.7695 13.7621 45.7723L16.4515 45.7984H16.4568C16.7174 45.7984 16.9333 45.6132 16.9391 45.3837C16.9653 44.3471 16.9778 43.3756 16.845 42.8804C16.7856 42.6588 16.5565 42.5043 16.2939 42.5035C15.8032 42.5097 14.9221 42.5853 14.2141 42.646C13.8754 42.6752 13.5555 42.7026 13.3272 42.7182ZM16.4568 46.0065C16.4543 46.0065 16.4518 46.0065 16.4495 46.0065L13.76 45.9803C13.3758 45.9768 13.0586 45.7103 13.0222 45.3609L12.7858 43.0869C12.772 42.9534 12.8131 42.8215 12.9016 42.7152C13.0007 42.5965 13.1507 42.522 13.3131 42.5107C13.5397 42.4951 13.8588 42.4677 14.1966 42.4387C14.9078 42.3775 15.7931 42.3017 16.2913 42.2955C16.6526 42.2935 16.9592 42.5092 17.0444 42.8263C17.1844 43.3482 17.1722 44.3363 17.1455 45.389C17.1369 45.7308 16.8285 46.0065 16.4568 46.0065Z" fill="white"/>
<path d="M16.1236 45.5803C16.1221 45.5803 16.1203 45.5803 16.1185 45.5803L13.9694 45.5596C13.7051 45.557 13.4857 45.3754 13.4611 45.1389L13.2722 43.3217C13.2526 43.1337 13.4077 42.9674 13.6172 42.9528C14.1821 42.9141 15.41 42.7883 15.9925 42.7812C15.995 42.7809 15.9975 42.7809 15.9998 42.7809C16.2436 42.7809 16.4562 42.9303 16.5136 43.1439C16.626 43.5625 16.611 44.3975 16.5914 45.1679C16.5858 45.3971 16.3781 45.5803 16.1236 45.5803Z" fill="#E5ECFD"/>
<path d="M19.466 44.9976C19.163 44.9976 18.8978 44.7918 18.8203 44.4964C18.7086 44.0693 19.0282 43.652 19.466 43.652C19.467 43.652 19.468 43.652 19.469 43.652L44.3532 43.7663C44.6268 43.7673 44.8495 43.9883 44.8557 44.264C44.8619 44.5477 44.6368 44.7814 44.3553 44.7839L19.4716 44.9976C19.4698 44.9976 19.468 44.9976 19.466 44.9976Z" fill="#E5ECFD"/>
<mask id="mask2_1_114" style="mask-type:luminance" maskUnits="userSpaceOnUse" x="13" y="41" width="4" height="5">
<path d="M13.7335 43.3086C13.9332 43.1905 14.1901 43.261 14.303 43.4649L14.8333 44.4231C14.8864 44.5189 15.0255 44.513 15.07 44.4128L16.3858 41.461C16.4514 41.3137 16.669 41.3636 16.6665 41.5248C16.653 42.4279 16.4153 44.1441 14.9838 45.5806C14.9838 45.5806 14.1949 45.2716 13.5596 43.8656C13.4678 43.6627 13.5426 43.4216 13.7335 43.3086Z" fill="white"/>
</mask>
<g mask="url(#mask2_1_114)">
<path d="M13.7355 43.3083C13.9351 43.1903 14.1921 43.2606 14.3049 43.4647L14.8351 44.4228C14.8884 44.5185 15.0275 44.5127 15.072 44.4124L16.3879 41.4606C16.4533 41.3133 16.671 41.3634 16.6684 41.5244C16.655 42.4276 16.4173 44.1437 14.9859 45.5803C14.9859 45.5803 14.1968 45.2713 13.5615 43.8652C13.4697 43.6625 13.5445 43.4212 13.7355 43.3083Z" fill="url(#paint2_linear_1_114)"/>
</g>
<path d="M13.3272 48.5269C13.2204 48.5344 13.123 48.582 13.0598 48.6579C13.0076 48.7204 12.9833 48.797 12.9912 48.8738L13.2276 51.1478C13.253 51.392 13.4828 51.5782 13.7621 51.581L16.4515 51.6069H16.4568C16.7174 51.6069 16.9333 51.4219 16.9391 51.1924C16.9653 50.1556 16.9778 49.1843 16.845 48.6891C16.7853 48.4675 16.5532 48.3079 16.2939 48.3123C15.8032 48.3184 14.9221 48.394 14.2141 48.4547C13.8754 48.4839 13.5555 48.5113 13.3272 48.5269ZM16.4568 51.8152C16.4543 51.8152 16.4518 51.8152 16.4495 51.8152L13.76 51.7891C13.3758 51.7855 13.0586 51.519 13.0222 51.1696L12.7858 48.8956C12.772 48.7619 12.8131 48.6302 12.9016 48.5239C13.0007 48.4053 13.1507 48.3304 13.3131 48.3192C13.5397 48.3038 13.8588 48.2764 14.1966 48.2474C14.9078 48.1862 15.7931 48.1104 16.2913 48.104C16.2949 48.104 16.2985 48.104 16.302 48.104C16.6556 48.104 16.96 48.321 17.0444 48.6348C17.1844 49.1569 17.1722 50.1451 17.1455 51.1975C17.1369 51.5395 16.8285 51.8152 16.4568 51.8152Z" fill="white"/>
<path d="M16.1236 51.389C16.1221 51.389 16.1203 51.389 16.1185 51.389L13.9694 51.3683C13.7051 51.3657 13.4857 51.1841 13.4611 50.9476L13.2722 49.1304C13.2526 48.9424 13.4077 48.7759 13.6172 48.7615C14.1821 48.7226 15.41 48.597 15.9925 48.5896C15.995 48.5896 15.9975 48.5896 15.9998 48.5896C16.2436 48.5896 16.4562 48.739 16.5136 48.9524C16.626 49.3713 16.611 50.2062 16.5914 50.9766C16.5858 51.2059 16.3781 51.389 16.1236 51.389Z" fill="#E5ECFD"/>
<path d="M19.466 50.8063C19.163 50.8063 18.8978 50.6005 18.8203 50.3049C18.7086 49.8778 19.0282 49.4605 19.4657 49.4605C19.467 49.4605 19.468 49.4605 19.469 49.4605L44.3532 49.5747C44.6268 49.576 44.8495 49.7969 44.8557 50.0725C44.8619 50.3561 44.6368 50.59 44.3553 50.5923L19.4716 50.8063C19.4698 50.8063 19.4678 50.8063 19.466 50.8063Z" fill="#E5ECFD"/>
<mask id="mask3_1_114" style="mask-type:luminance" maskUnits="userSpaceOnUse" x="13" y="47" width="4" height="5">
<path d="M13.7335 49.1185C13.9332 49.0004 14.1901 49.0708 14.303 49.2745L14.8333 50.2329C14.8864 50.3287 15.0255 50.3228 15.07 50.2224L16.3858 47.2708C16.4514 47.1235 16.669 47.1732 16.6665 47.3346C16.653 48.2374 16.4153 49.9539 14.9838 51.3904C14.9838 51.3904 14.1949 51.0814 13.5596 49.6754C13.4678 49.4723 13.5426 49.2314 13.7335 49.1185Z" fill="white"/>
</mask>
<g mask="url(#mask3_1_114)">
<path d="M13.7335 49.1185C13.9332 49.0004 14.1901 49.0708 14.303 49.2745L14.8333 50.2329C14.8864 50.3287 15.0255 50.3228 15.07 50.2224L16.3858 47.2708C16.4514 47.1235 16.669 47.1732 16.6665 47.3346C16.653 48.2374 16.4153 49.9539 14.9838 51.3904C14.9838 51.3904 14.1949 51.0814 13.5596 49.6754C13.4678 49.4723 13.5426 49.2314 13.7335 49.1185Z" fill="url(#paint3_linear_1_114)"/>
</g>
<path d="M13.3272 54.3355C13.2204 54.3427 13.123 54.3906 13.0598 54.4665C13.0076 54.529 12.9833 54.6056 12.9912 54.6824L13.2276 56.9564C13.253 57.2006 13.4828 57.3868 13.762 57.3896L16.4515 57.4155H16.4568C16.7174 57.4155 16.9333 57.2305 16.9391 57.001C16.9653 55.9642 16.9778 54.9927 16.845 54.4977C16.7853 54.2759 16.5532 54.1157 16.2939 54.1206C15.8032 54.127 14.9221 54.2026 14.2141 54.2633C13.8754 54.2923 13.5555 54.3197 13.3272 54.3355ZM16.4568 57.6235C16.4543 57.6235 16.4518 57.6235 16.4495 57.6235L13.76 57.5977C13.3758 57.5941 13.0586 57.3276 13.0222 56.9782L12.7858 54.7042C12.772 54.5707 12.8131 54.4385 12.9017 54.3325C13.0008 54.2136 13.1507 54.139 13.3131 54.1278C13.5397 54.1121 13.8588 54.0847 14.1966 54.0558C14.9078 53.9948 15.7931 53.919 16.2913 53.9126C16.2949 53.9126 16.2985 53.9126 16.302 53.9126C16.6556 53.9126 16.96 54.1296 17.0444 54.4434C17.1844 54.9655 17.1722 55.9534 17.1455 57.0061C17.1369 57.3481 16.8285 57.6235 16.4568 57.6235Z" fill="white"/>
<path d="M16.1239 57.1976C16.1221 57.1976 16.1203 57.1976 16.1185 57.1976L13.9694 57.1769C13.7051 57.1743 13.4857 56.9927 13.4611 56.7562L13.2722 54.939C13.2526 54.751 13.4077 54.5845 13.6172 54.5701C14.1821 54.5312 15.41 54.4056 15.9925 54.3982C15.995 54.3982 15.9975 54.3982 16.0001 54.3982C16.2436 54.3982 16.4562 54.5476 16.5136 54.761C16.626 55.1799 16.611 56.0145 16.5914 56.7852C16.5858 57.0145 16.3781 57.1976 16.1239 57.1976Z" fill="#E5ECFD"/>
<path d="M19.466 56.615C19.163 56.615 18.8978 56.4093 18.8203 56.1136C18.7086 55.6865 19.0282 55.2689 19.466 55.2689C19.467 55.2689 19.468 55.2689 19.469 55.2689L44.3532 55.3834C44.6268 55.3847 44.8495 55.6053 44.8557 55.8812C44.8619 56.1648 44.6368 56.3987 44.3553 56.4011L19.4716 56.615C19.4698 56.615 19.468 56.615 19.466 56.615Z" fill="#E5ECFD"/>
<mask id="mask4_1_114" style="mask-type:luminance" maskUnits="userSpaceOnUse" x="13" y="52" width="4" height="6">
<path d="M13.7335 54.9258C13.9332 54.8077 14.1901 54.8782 14.303 55.0819L14.8333 56.0403C14.8864 56.1361 15.0255 56.1299 15.07 56.0298L16.3858 53.0779C16.4514 52.9309 16.669 52.9806 16.6665 53.142C16.653 54.0448 16.4153 55.761 14.9838 57.1978C14.9838 57.1978 14.1949 56.8888 13.5596 55.4828C13.4678 55.2796 13.5426 55.0388 13.7335 54.9258Z" fill="white"/>
</mask>
<g mask="url(#mask4_1_114)">
<path d="M13.7335 54.9258C13.9332 54.8077 14.1901 54.8782 14.303 55.0819L14.8333 56.0403C14.8864 56.1361 15.0255 56.1299 15.07 56.0298L16.3858 53.0779C16.4514 52.9309 16.669 52.9806 16.6665 53.142C16.653 54.0448 16.4153 55.761 14.9838 57.1978C14.9838 57.1978 14.1949 56.8888 13.5596 55.4828C13.4678 55.2796 13.5426 55.0388 13.7335 54.9258Z" fill="url(#paint4_linear_1_114)"/>
</g>
<path d="M13.3272 60.1443C13.2204 60.1514 13.123 60.1993 13.0598 60.2749C13.0076 60.3374 12.9833 60.4143 12.9912 60.4911L13.2276 62.7651C13.253 63.0093 13.4828 63.1955 13.762 63.1981L16.4515 63.2242H16.4568C16.7174 63.2242 16.9333 63.0392 16.9391 62.8094C16.9653 61.7729 16.9778 60.8014 16.845 60.3064C16.7853 60.0846 16.5532 59.9237 16.2939 59.9293C15.8032 59.9355 14.9221 60.011 14.2141 60.0718C13.8754 60.101 13.5555 60.1284 13.3272 60.1443ZM16.4568 63.4323C16.4543 63.4323 16.4518 63.4323 16.4495 63.4323L13.76 63.4064C13.3758 63.4025 13.0586 63.1363 13.0222 62.7866L12.7858 60.5127C12.772 60.3792 12.8131 60.2473 12.9017 60.1412C13.0008 60.0223 13.1507 59.9478 13.3131 59.9365C13.5397 59.9209 13.8588 59.8934 14.1966 59.8645C14.9078 59.8035 15.7931 59.7274 16.2913 59.7213C16.2949 59.7213 16.2985 59.721 16.302 59.721C16.6556 59.721 16.96 59.9383 17.0444 60.2521C17.1844 60.774 17.1722 61.7621 17.1455 62.8148C17.1369 63.1566 16.8285 63.4323 16.4568 63.4323Z" fill="white"/>
<path d="M16.5224 60.6002C16.4777 60.5836 16.4306 60.5718 16.3816 60.5659C15.7308 60.4867 14.7334 60.4301 13.5459 60.3901C13.5691 60.3845 13.5934 60.3804 13.6183 60.3789C14.1833 60.3399 15.4112 60.2141 15.9936 60.207C15.9962 60.207 15.9987 60.207 16.001 60.207C16.2448 60.207 16.4573 60.3563 16.5148 60.5697C16.5173 60.5797 16.5201 60.59 16.5224 60.6002Z" fill="#E5ECFD"/>
<path d="M19.466 62.4236C19.163 62.4236 18.8978 62.2181 18.8203 61.9225C18.7086 61.4954 19.0282 61.0778 19.466 61.0778C19.467 61.0778 19.468 61.0778 19.469 61.0778L44.3532 61.1923C44.6268 61.1936 44.8495 61.4142 44.8557 61.6898C44.8619 61.9734 44.6368 62.2074 44.3553 62.2099L19.4716 62.4236C19.4698 62.4236 19.4678 62.4236 19.466 62.4236Z" fill="#E5ECFD"/>
<path d="M12.9532 37.0345C12.8464 37.0418 12.749 37.0899 12.6858 37.1655C12.6335 37.2278 12.6092 37.3046 12.6172 37.3817L12.8536 39.6554C12.879 39.8997 13.1088 40.086 13.388 40.0886L16.0774 40.1147H16.0828C16.3434 40.1147 16.5592 39.9295 16.5651 39.6997C16.5912 38.6631 16.6037 37.6918 16.471 37.1968C16.4112 36.9748 16.1791 36.814 15.9198 36.8198C15.4292 36.8259 14.548 36.9018 13.8402 36.9624C13.5014 36.9913 13.1815 37.0189 12.9532 37.0345ZM16.0828 40.3228C16.0802 40.3228 16.078 40.3228 16.0754 40.3228L13.386 40.2967C13.0018 40.2929 12.6846 40.0269 12.6482 39.6771L12.4118 37.4034C12.3979 37.2695 12.4391 37.1377 12.5277 37.0316C12.6268 36.9128 12.7767 36.838 12.9391 36.8267C13.1657 36.8114 13.4848 36.7839 13.8226 36.7549C14.5338 36.694 15.4193 36.6181 15.9173 36.6117C15.9208 36.6117 15.9244 36.6114 15.928 36.6114C16.2818 36.6114 16.5859 36.8288 16.6703 37.1426C16.8104 37.6645 16.7982 38.6524 16.7715 39.7052C16.7628 40.0472 16.4545 40.3228 16.0828 40.3228Z" fill="white"/>
<path d="M15.7508 39.8965C15.749 39.8965 15.7472 39.8965 15.7455 39.8965L13.5964 39.8753C13.3321 39.873 13.1127 39.6914 13.0881 39.4551L12.8991 37.6376C12.8796 37.4497 13.0347 37.2831 13.2441 37.2687C13.8091 37.23 15.037 37.1041 15.6194 37.0969C15.6219 37.0969 15.6245 37.0969 15.627 37.0969C15.8706 37.0969 16.0834 37.2464 16.1405 37.4598C16.2529 37.8785 16.2379 38.7134 16.2186 39.4838C16.2128 39.7129 16.005 39.8965 15.7508 39.8965Z" fill="#E5ECFD"/>
<path d="M19.0929 39.3138C18.7899 39.3138 18.5247 39.1081 18.4472 38.8126C18.3356 38.3856 18.6551 37.9679 19.0929 37.9679C19.094 37.9679 19.095 37.9679 19.096 37.9679L43.98 38.0825C44.2538 38.0835 44.4764 38.3041 44.4826 38.58C44.4887 38.8635 44.2634 39.0978 43.9821 39.0998L19.0988 39.3135C19.0968 39.3138 19.0947 39.3138 19.0929 39.3138Z" fill="#E5ECFD"/>
<mask id="mask5_1_114" style="mask-type:luminance" maskUnits="userSpaceOnUse" x="13" y="35" width="4" height="5">
<path d="M13.3575 37.6254C13.5572 37.5073 13.8142 37.5778 13.9269 37.7814L14.4575 38.7396C14.5104 38.8357 14.6494 38.8295 14.6939 38.7294L16.0098 35.7775C16.0754 35.6304 16.293 35.6801 16.2905 35.8415C16.2773 36.7444 16.0393 38.4606 14.6078 39.8973C14.6078 39.8973 13.8189 39.5881 13.1836 38.1824C13.0918 37.9792 13.1666 37.7381 13.3575 37.6254Z" fill="white"/>
</mask>
<g mask="url(#mask5_1_114)">
<path d="M13.3575 37.6252C13.5572 37.5073 13.8142 37.5776 13.9269 37.7812L14.4575 38.7396C14.5104 38.8356 14.6494 38.8294 14.6939 38.7292L16.0098 35.7775C16.0754 35.6304 16.293 35.68 16.2905 35.8413C16.2773 36.7442 16.0393 38.4604 14.6078 39.8971C14.6078 39.8971 13.8189 39.5881 13.1836 38.1824C13.0918 37.9791 13.1666 37.738 13.3575 37.6252Z" fill="url(#paint5_linear_1_114)"/>
</g>
<mask id="mask6_1_114" style="mask-type:luminance" maskUnits="userSpaceOnUse" x="24" y="0" width="7" height="7">
<path d="M27.5133 4.02332C26.924 4.02332 26.4463 3.54193 26.4463 2.94833C26.4463 2.35448 26.924 1.87309 27.5133 1.87309C28.1026 1.87309 28.5803 2.35448 28.5803 2.94833C28.5803 3.54193 28.1026 4.02332 27.5133 4.02332ZM29.3951 0.83243C28.0329 -0.122659 26.8482 -0.1037 26.0146 0.144296C25.254 0.370514 24.7608 1.1104 24.8332 1.90639L25.1927 5.86176L29.4718 6.24426C29.4718 6.24426 32.0667 2.70546 29.3951 0.83243Z" fill="white"/>
</mask>
<g mask="url(#mask6_1_114)">
<path d="M27.5133 4.02358C26.924 4.02358 26.4463 3.5421 26.4463 2.94849C26.4463 2.35436 26.924 1.8734 27.5133 1.8734C28.1026 1.8734 28.5803 2.35436 28.5803 2.94849C28.5803 3.5421 28.1026 4.02358 27.5133 4.02358ZM29.3951 0.832771C28.0329 -0.122466 26.8482 -0.103437 26.0146 0.144503C25.254 0.370838 24.7608 1.11054 24.8332 1.90632L25.1927 5.86204L29.4718 6.24475C29.4718 6.24475 32.0668 2.70569 29.3951 0.832771Z" fill="#00094F"/>
</g>
<path d="M25.5073 2.96359C25.4547 2.96359 25.4097 2.9227 25.4046 2.86903L25.3611 2.39065C25.2922 1.6327 25.7656 0.926369 26.4869 0.712221C26.9976 0.560426 27.5236 0.538448 28.0506 0.647311C28.1065 0.659066 28.1426 0.713756 28.1312 0.770487C28.1197 0.826196 28.0656 0.862483 28.0091 0.851239C27.5155 0.749532 27.023 0.769463 26.5451 0.911547C25.9184 1.0981 25.5068 1.71243 25.5668 2.37174L25.6103 2.85012C25.6156 2.90736 25.5736 2.95797 25.517 2.96308C25.5136 2.96359 25.5106 2.96359 25.5073 2.96359ZM25.6197 4.19788C25.5668 4.19788 25.5218 4.1575 25.517 4.10332L25.4598 3.47315C25.4544 3.41642 25.4964 3.36581 25.5531 3.36019C25.611 3.35457 25.6601 3.39699 25.6652 3.45424L25.7227 4.08441C25.7277 4.14165 25.686 4.19226 25.6291 4.19737C25.626 4.19788 25.6227 4.19788 25.6197 4.19788Z" fill="#91B3FA"/>
<mask id="mask7_1_114" style="mask-type:luminance" maskUnits="userSpaceOnUse" x="19" y="5" width="17" height="4">
<path d="M19.3506 8.41736V6.42879C19.3506 5.74219 19.9152 5.1924 20.596 5.21597L34.2015 5.68583C34.8053 5.70658 35.2942 6.18694 35.3306 6.79463L35.4442 8.70532L19.3506 8.41736Z" fill="white"/>
</mask>
<g mask="url(#mask7_1_114)">
<path d="M19.3506 8.41732V6.42832C19.3506 5.74185 19.9152 5.19237 20.5961 5.21553L34.2016 5.6854C34.8054 5.70615 35.2942 6.18664 35.3306 6.79448L35.4442 8.70532L19.3506 8.41732Z" fill="#09005D"/>
</g>
<path d="M24.4255 5.96545H23.8405C23.7836 5.96545 23.7373 5.91898 23.7373 5.86149C23.7373 5.80401 23.7836 5.75753 23.8405 5.75753H24.4255C24.4827 5.75753 24.5289 5.80401 24.5289 5.86149C24.5289 5.91898 24.4827 5.96545 24.4255 5.96545Z" fill="#91B3FA"/>
<path d="M20.0886 7.79333C20.0316 7.79333 19.9854 7.74686 19.9854 7.68937V6.88501C19.9854 6.26317 20.4872 5.75775 21.104 5.75775H23.255C23.3122 5.75775 23.3584 5.80422 23.3584 5.86171C23.3584 5.9192 23.3122 5.96567 23.255 5.96567H21.104C20.6011 5.96567 20.1918 6.37815 20.1918 6.88501V7.68937C20.1918 7.74686 20.1455 7.79333 20.0886 7.79333Z" fill="#91B3FA"/>
<path d="M13.8086 8.91997C13.8414 8.23129 14.4051 7.69024 15.0892 7.68977L38.8806 7.68931C39.736 7.68931 40.4677 8.30978 40.6137 9.15919L40.6336 9.27646C40.7936 10.2067 40.0824 11.058 39.1458 11.058H14.7369C14.176 11.058 13.7291 10.5852 13.756 10.0207L13.8086 8.91997Z" fill="#7D97F4"/>
<mask id="mask8_1_114" style="mask-type:luminance" maskUnits="userSpaceOnUse" x="27" y="17" width="46" height="55">
<path d="M27.5221 25.9376C27.8444 25.6333 28.2807 25.4818 28.721 25.5218C33.4301 25.9486 42.2162 23.6626 47.9581 17.742C48.357 17.3308 49.0839 17.5632 49.5407 17.9072C55.9269 22.717 66.5127 23.7131 70.1875 23.9168C70.9477 23.959 71.5644 24.5531 71.643 25.3163C74.9848 57.8429 53.9694 69.6294 49.6109 71.7099C49.1345 71.9374 48.5734 71.9044 48.1259 71.6236C26.4027 57.9879 27.3319 40.2552 27.0317 27.1161C27.0215 26.6708 27.1995 26.242 27.5221 25.9376Z" fill="white"/>
</mask>
<g mask="url(#mask8_1_114)">
<path d="M27.5221 25.9375C27.8444 25.6331 28.2807 25.482 28.721 25.5215C33.4301 25.9483 42.216 23.6624 47.9582 17.7417C48.3571 17.3309 49.0837 17.5628 49.5408 17.9072C55.9268 22.717 66.5126 23.7128 70.1875 23.9164C70.9477 23.9591 71.5645 24.5529 71.6431 25.3164C74.9848 57.8428 53.9692 69.6293 49.6107 71.7098C49.1347 71.9373 48.5735 71.9042 48.126 71.6234C26.4027 57.9878 27.3319 40.2551 27.0317 27.1159C27.0215 26.6706 27.1995 26.2418 27.5221 25.9375Z" fill="url(#paint6_linear_1_114)"/>
</g>
<path d="M29.8866 28.1329C29.8047 28.1329 29.7325 28.1632 29.6786 28.2183C29.6257 28.2728 29.5972 28.3446 29.5985 28.4209L29.6135 29.2587C29.7226 35.522 29.8464 42.6214 32.3676 49.577C35.1874 57.3563 40.5847 63.7316 48.8684 69.0679C48.9531 69.1225 49.0609 69.1279 49.1497 69.082C51.3053 67.9653 56.8216 64.6893 61.4753 58.3993C67.7106 49.9723 70.3151 39.2944 69.2164 26.6619C69.2039 26.5224 69.0946 26.4138 68.9562 26.4032C64.1846 26.049 55.2411 24.8271 48.9586 20.626C48.8513 20.5542 48.7099 20.5649 48.6141 20.6513C42.8903 25.8196 35.0842 28.1329 29.8868 28.1329H29.8866ZM49.0218 69.3687C48.921 69.3687 48.8197 69.34 48.7315 69.2834C40.3997 63.9159 34.9688 57.4985 32.1291 49.6649C29.5932 42.6688 29.4691 35.5466 29.3598 29.2632L29.3448 28.4259C29.3423 28.2804 29.3964 28.143 29.4976 28.0389C29.5995 27.9348 29.7361 27.8772 29.8822 27.8772H29.8825C35.036 27.8772 42.771 25.5836 48.4447 20.4608C48.6267 20.2965 48.8949 20.2768 49.0985 20.4128C55.3328 24.5816 64.2277 25.7958 68.9747 26.148C69.238 26.1677 69.4456 26.3744 69.4691 26.6397C70.5733 39.3365 67.9523 50.0735 61.6794 58.5522C56.9936 64.8851 51.4372 68.1848 49.266 69.3095C49.1893 69.3489 49.1055 69.3687 49.0218 69.3687Z" fill="#91B3FA"/>
<mask id="mask9_1_114" style="mask-type:luminance" maskUnits="userSpaceOnUse" x="35" y="30" width="28" height="24">
<path d="M35 37.0893L47.2513 53.9475L63 30L46.6412 42.3937L35 37.0893Z" fill="white"/>
</mask>
<g mask="url(#mask9_1_114)">
<path d="M35 37.0899L47.2508 53.9482L62.9997 30.001L46.6407 42.3948L35 37.0899Z" fill="url(#paint7_linear_1_114)"/>
</g>
</g>
<defs>
<linearGradient id="paint0_linear_1_114" x1="36.6525" y1="-17.9203" x2="52.3096" y2="-60.2939" gradientUnits="userSpaceOnUse">
<stop stop-color="#FF928E"/>
<stop offset="1" stop-color="#FE7062"/>
</linearGradient>
<linearGradient id="paint1_linear_1_114" x1="35.5642" y1="-7.30924" x2="49.7773" y2="-45.775" gradientUnits="userSpaceOnUse">
<stop stop-color="#FF928E"/>
<stop offset="1" stop-color="#FE7062"/>
</linearGradient>
<linearGradient id="paint2_linear_1_114" x1="22.1935" y1="31.1843" x2="8.06468" y2="55.1139" gradientUnits="userSpaceOnUse">
<stop stop-color="#E1473D"/>
<stop offset="1" stop-color="#E9605A"/>
</linearGradient>
<linearGradient id="paint3_linear_1_114" x1="24.1444" y1="33.5565" x2="10.2533" y2="57.0833" gradientUnits="userSpaceOnUse">
<stop stop-color="#E1473D"/>
<stop offset="1" stop-color="#E9605A"/>
</linearGradient>
<linearGradient id="paint4_linear_1_114" x1="26.2583" y1="39.3777" x2="8.00433" y2="64.6336" gradientUnits="userSpaceOnUse">
<stop stop-color="#E1473D"/>
<stop offset="1" stop-color="#E9605A"/>
</linearGradient>
<linearGradient id="paint5_linear_1_114" x1="34.9179" y1="2.62531" x2="18.8989" y2="29.7562" gradientUnits="userSpaceOnUse">
<stop stop-color="#E1473D"/>
<stop offset="1" stop-color="#E9605A"/>
</linearGradient>
<linearGradient id="paint6_linear_1_114" x1="92.9816" y1="10.9963" x2="179.77" y2="-48.1511" gradientUnits="userSpaceOnUse">
<stop stop-color="#4F52FF"/>
<stop offset="1" stop-color="#4042E2"/>
</linearGradient>
<linearGradient id="paint7_linear_1_114" x1="174.537" y1="-8.96954" x2="260.127" y2="-160.322" gradientUnits="userSpaceOnUse">
<stop stop-color="#FF928E"/>
<stop offset="1" stop-color="#FE7062"/>
</linearGradient>
<clipPath id="clip0_1_114">
<rect width="72" height="72" fill="white"/>
</clipPath>
</defs>
</svg>
