<svg width="72" height="72" viewBox="0 0 72 72" fill="none" xmlns="http://www.w3.org/2000/svg">
<rect width="72" height="72" fill="#F5F5F5"/>
<rect width="1440" height="12112" transform="translate(-563 -1926)" fill="white"/>
<rect x="-23.5" y="-23.5" width="359" height="359" rx="3.5" fill="white" stroke="#737373"/>
<g clip-path="url(#clip0_1_114)">
<path fill-rule="evenodd" clip-rule="evenodd" d="M8.60552 14.4239C13.1053 8.34221 19.5656 4.87509 26.8904 2.97023C35.865 0.636383 45.4707 -2.12657 53.3367 2.79143C63.1027 8.89733 72.5038 19.1081 70.9397 30.5108C69.4137 41.6352 55.6478 44.6488 46.6698 51.3926C36.4928 59.037 28.7076 74.8314 16.4257 71.4586C4.09863 68.0734 2.18942 51.3601 0.453698 38.701C-0.766653 29.8006 3.26385 21.6435 8.60552 14.4239Z" fill="#B3E3FF" fill-opacity="0.3"/>
<path d="M59.437 16.9987C59.437 16.9987 59.3974 16.7585 59.2786 16.7585C59.16 16.7585 58.9819 16.8233 58.9025 16.9987C58.8235 17.1741 59.437 16.9987 59.437 16.9987Z" fill="#F9A78D"/>
<path d="M56.4053 20.8237L56.5244 18.9284L56.9011 16.9771C56.9011 16.9771 57.1983 16.6596 57.357 16.7334C57.5156 16.8072 57.4562 17.0679 57.4562 17.0679C57.4562 17.0679 57.8725 16.6188 58.0312 16.7221C58.1898 16.8257 58.1304 17.0679 58.1304 17.0679C58.1304 17.0679 58.5071 16.5695 58.6855 16.7069C58.864 16.844 58.6855 17.0679 58.6855 17.0679C58.6855 17.0679 58.9216 19.2544 58.8028 20.0356C58.6838 20.8164 58.0174 21.1067 58.0174 21.1067L57.7008 22.3364L56.1475 21.4925L56.4053 20.8237Z" fill="#F9A78D"/>
<path d="M58.4125 19.3509L49.7661 20.0682L49.6216 18.6991L58.1973 17.3121L58.4125 19.3509Z" fill="#494CF3"/>
<path d="M67.6639 19.7495L55.3673 20.01C55.1282 19.2046 55.0285 18.3159 55.0762 17.3395L67.0765 15.0059C67.7556 16.0961 68.0171 18.5165 67.6639 19.7495Z" fill="#494CF3"/>
<path d="M67.0665 15.2308C67.0665 15.2308 66.771 15.9511 66.9419 17.4346C67.113 18.9181 67.5477 19.503 67.5477 19.503C67.5477 19.503 67.859 18.6234 67.6437 17.1411C67.4334 15.6925 67.0665 15.2308 67.0665 15.2308Z" fill="#DADBD8"/>
<path d="M67.0576 19.813C67.0504 19.8291 66.922 19.6412 66.7587 19.2513C66.5971 18.866 66.4034 18.2519 66.3331 17.5216C66.2635 16.8065 66.2872 16.1542 66.3607 15.7326C66.4313 15.3066 66.5266 15.1048 66.5356 15.1197C66.5511 15.1397 66.4812 15.3686 66.4318 15.7891C66.3797 16.2065 66.3685 16.8257 66.4354 17.5151C66.5008 18.1965 66.6727 18.7855 66.815 19.1766C66.9583 19.572 67.0685 19.7916 67.0576 19.813Z" fill="#17282F"/>
<path d="M67.1051 15.0581C67.1205 15.0772 67.055 15.3129 67.0014 15.7347C66.9468 16.1524 66.9149 16.7729 66.9956 17.4599C67.0739 18.1485 67.2455 18.7394 67.3923 19.1287C67.5334 19.5383 67.6725 19.6673 67.6702 19.6892C67.6692 19.7004 67.6291 19.6916 67.5648 19.6176C67.5004 19.5451 67.4192 19.3998 67.3369 19.2052C67.1701 18.8209 66.9772 18.2039 66.8942 17.4748C66.8086 16.7461 66.8554 16.0942 66.9304 15.6759C67.005 15.2528 67.0953 15.0433 67.1051 15.0581Z" fill="#17282F"/>
<path d="M67.3944 16.2818C67.3704 16.206 67.3434 16.131 67.3072 16.0762C67.2711 16.0213 67.224 15.9893 67.1847 16.0112C67.1458 16.0326 67.1211 16.1054 67.1177 16.186C67.1146 16.2666 67.1307 16.3528 67.1564 16.4261C67.2188 16.5964 67.3082 16.7509 67.3242 16.9256C67.3402 17.1003 67.3361 17.2761 67.3618 17.4493C67.3712 17.5128 67.3853 17.5771 67.4092 17.6275C67.4334 17.6778 67.4691 17.7115 67.5003 17.6996C67.5507 17.6799 67.5641 17.5598 67.5654 17.4573C67.5704 17.0621 67.5097 16.6451 67.3944 16.2818Z" fill="white"/>
<path d="M55.3736 20.0966C55.354 20.1241 55.1376 19.5379 55.0608 18.7256C54.9802 17.9136 55.0806 17.3047 55.1052 17.329C55.1362 17.3479 55.086 17.9535 55.1626 18.7182C55.2344 19.4835 55.4004 20.0736 55.3736 20.0966Z" fill="#17282F"/>
<path d="M49.782 20.3942C49.7092 20.4019 49.638 20.2911 49.6228 20.1471L49.47 18.6992C49.4548 18.5547 49.5013 18.4316 49.574 18.4239C49.6465 18.4163 49.7177 18.527 49.733 18.6716L49.8858 20.1195C49.901 20.2635 49.8545 20.3866 49.782 20.3942Z" fill="#494CF3"/>
<path d="M49.7822 20.3945C49.7795 20.378 49.8148 20.3729 49.8433 20.2982C49.8566 20.2613 49.8662 20.205 49.8594 20.1403C49.8475 20.0508 49.8355 19.9607 49.8235 19.8692C49.7951 19.6352 49.7663 19.396 49.7366 19.1492C49.7209 19.0096 49.7048 18.8685 49.6885 18.7236C49.6819 18.5945 49.6363 18.5253 49.5849 18.525C49.5347 18.536 49.5046 18.6132 49.5248 18.7408C49.5392 18.8859 49.5531 19.0272 49.5669 19.1671C49.5892 19.4146 49.6108 19.6546 49.632 19.8893C49.6393 19.9813 49.6467 20.0719 49.6537 20.162C49.6606 20.2266 49.6814 20.2797 49.7022 20.3131C49.7456 20.3801 49.7814 20.3778 49.7822 20.3945C49.7849 20.4034 49.7497 20.4422 49.6837 20.3765C49.6525 20.3433 49.6157 20.2765 49.598 20.1779C49.5855 20.0846 49.573 19.9917 49.5601 19.8969C49.5318 19.6629 49.5029 19.4237 49.473 19.1769C49.4575 19.0373 49.4414 18.8962 49.4251 18.7513C49.4147 18.6866 49.4092 18.5502 49.4363 18.4719C49.4607 18.3861 49.5087 18.3287 49.5636 18.3229C49.6185 18.3172 49.6774 18.3634 49.7191 18.4421C49.762 18.5131 49.7852 18.6481 49.7882 18.7131C49.8026 18.8582 49.8165 18.9995 49.8303 19.1394C49.8525 19.3869 49.8742 19.6269 49.8954 19.8616C49.9027 19.9565 49.91 20.0504 49.9169 20.1439C49.9205 20.2445 49.8982 20.3175 49.8747 20.3565C49.8238 20.4344 49.7813 20.4038 49.7822 20.3945Z" fill="#17282F"/>
<path d="M51.2031 20.1494C51.2031 20.1494 51.0274 17.9824 51.0795 17.7925C51.1392 17.5748 51.7309 16.933 51.9402 16.9097C52.1494 16.8867 52.1728 17.1189 52.1728 17.1189C52.1728 17.1189 52.4672 16.917 52.7542 16.9082C53.0597 16.899 53.0993 17.1672 53.0993 17.1672C53.0993 17.1672 53.2697 17.0421 53.5625 17.0946C53.6855 17.1167 53.8269 17.3351 53.8269 17.3351C53.8269 17.3351 54.1336 17.203 54.2798 17.3396C54.4635 17.5115 54.4607 17.819 54.4607 17.819C54.1763 17.7977 53.9181 17.9914 53.9181 17.9914C53.9181 17.9914 53.8477 18.9301 53.7314 19.3948C53.6151 19.8591 53.155 20.2427 53.0003 20.4831L52.878 22.0857L50.9023 21.0411L51.2031 20.1494Z" fill="#F9A78D"/>
<path d="M51.6488 17.9554C51.6235 17.9592 51.6155 17.6709 51.8122 17.3937C52.006 17.114 52.2802 17.0229 52.2852 17.0479C52.2987 17.0737 52.0674 17.1943 51.8922 17.4495C51.7122 17.7009 51.6777 17.9594 51.6488 17.9554Z" fill="#F57F62"/>
<path d="M52.6153 17.9181C52.5926 17.9266 52.536 17.6689 52.6969 17.404C52.7755 17.2746 52.8928 17.1893 52.9864 17.1578C53.08 17.1247 53.1418 17.1322 53.143 17.1435C53.1505 17.1705 52.9163 17.2186 52.7795 17.4553C52.6381 17.6837 52.6451 17.9186 52.6153 17.9181Z" fill="#F57F62"/>
<path d="M53.3211 17.8459C53.2958 17.8414 53.3384 17.6355 53.5231 17.4691C53.7063 17.3012 53.9158 17.2784 53.9178 17.304C53.9251 17.3315 53.7502 17.3918 53.5888 17.5412C53.4246 17.6873 53.3479 17.8557 53.3211 17.8459Z" fill="#F57F62"/>
<path d="M57.6869 20.3666C58.024 19.9708 57.7669 18.9092 57.7669 18.9092C57.7669 18.9092 58.2428 18.751 58.3619 18.2759C58.4807 17.8008 58.2428 17.7217 58.2428 17.7217C58.1636 17.7612 57.43 18.2364 57.0531 18.4343C56.6764 18.6322 56.5576 20.6481 56.5576 20.6481" fill="#F9A78D"/>
<path d="M56.5574 20.6481C56.5504 20.6476 56.5493 20.5532 56.5576 20.3836C56.5664 20.214 56.5837 19.9685 56.621 19.6665C56.6646 19.3655 56.7025 19.003 56.8571 18.6179C56.8799 18.5704 56.9025 18.5221 56.9383 18.4768C56.9684 18.4313 57.0321 18.388 57.0739 18.369C57.1651 18.3189 57.2576 18.2651 57.3511 18.2093C57.5373 18.0952 57.7295 17.9771 57.9265 17.8563C58.0258 17.7955 58.1168 17.7362 58.2205 17.6774L58.2396 17.6666L58.2584 17.6747C58.3493 17.7149 58.3912 17.7875 58.4173 17.8606C58.4421 17.9341 58.4453 18.0084 58.4416 18.079C58.431 18.2188 58.3997 18.353 58.3366 18.4731C58.2095 18.7127 57.997 18.8676 57.7799 18.9484L57.807 18.8996C57.9012 19.3478 57.911 19.7311 57.8614 19.9938C57.8388 20.1254 57.7919 20.222 57.7574 20.2838C57.7155 20.3421 57.6892 20.3691 57.6867 20.3666C57.6827 20.3633 57.7022 20.3311 57.7353 20.2718C57.7616 20.2085 57.7992 20.1146 57.8143 19.9858C57.8488 19.7313 57.8268 19.354 57.7265 18.9189L57.7183 18.8839L57.7536 18.8699C57.9461 18.7943 58.1446 18.6447 58.2534 18.4305C58.308 18.3254 58.3361 18.1993 58.3446 18.0737C58.3556 17.9534 58.3168 17.81 58.227 17.7685L58.2646 17.7657C58.1752 17.8173 58.0757 17.8813 57.9792 17.9406C57.7824 18.063 57.5897 18.1818 57.4007 18.2932C57.3062 18.3487 57.2128 18.4022 57.1193 18.4525C57.0661 18.4786 57.0423 18.4958 57.012 18.5341C56.9834 18.5691 56.9616 18.6134 56.9406 18.6559C56.7905 19.0155 56.7418 19.3805 56.691 19.6763C56.6448 19.975 56.6168 20.2187 56.5962 20.3869C56.5762 20.5552 56.5641 20.6483 56.5574 20.6481Z" fill="#F57F62"/>
<path d="M31.1598 16.6405C31.5939 16.6956 31.9603 17.0026 32.3701 17.1717C33.1395 17.4892 34.0086 17.2903 34.6675 16.8967C35.3264 16.5032 35.8344 15.9357 36.4101 15.4446C36.9856 14.9534 37.4349 14.4698 38.3247 14.2941C39.8936 13.9844 41.6314 15.2109 41.0359 16.4704L39.7545 17.0749C39.3394 18.9824 38.2417 20.7003 36.671 21.9016C36.3598 22.1398 36.0009 22.3669 35.5808 22.3589C35.1608 22.3509 34.6954 22.0004 34.7435 21.6143C34.0989 21.8185 33.435 22.0207 32.734 21.9909C32.0332 21.9611 31.2771 21.6521 30.9044 21.0664C30.532 20.4807 30.7162 19.6277 31.3673 19.4381C30.7139 19.1273 30.1232 18.5703 30.0139 17.9083C29.9047 17.246 30.452 16.5505 31.1598 16.6405Z" fill="#17282F"/>
<path d="M44.0992 12.5763C43.2162 12.4342 42.444 12.78 41.7049 13.2827C40.9656 13.7853 40.4125 14.5392 40.0964 15.3746C39.7636 16.2543 39.6894 17.2416 39.9591 18.1426C40.2288 19.0436 40.8556 19.847 41.6992 20.2653C42.8513 20.8368 44.3162 20.6211 45.3355 19.8377C46.3548 19.0541 46.93 17.7683 46.9678 16.4848C46.9941 15.6003 46.7743 14.6978 46.2731 13.9682C45.7716 13.2384 44.9771 12.6969 44.0992 12.5763Z" fill="#17282F"/>
<path d="M41.6176 15.5913C41.7437 15.2535 41.6903 14.878 41.7382 14.5207C41.8437 13.7338 42.1284 13.0177 42.8592 12.705C43.5392 12.4137 44.7174 12.5491 45.5417 12.8073C46.1068 12.984 46.6399 13.2965 47.0199 13.7503C47.5236 14.3523 47.7071 15.2078 47.4938 15.9631L43.461 15.4127C43.0866 15.7277 42.7034 16.0477 42.2475 16.2253C42.1136 16.2776 41.9695 16.3172 41.8277 16.2959C41.6856 16.2746 41.547 16.1798 41.5121 16.0407C41.474 15.8888 41.563 15.7382 41.6176 15.5913Z" fill="#17282F"/>
<path d="M41.6298 22.935L41.5205 15.3381C41.524 14.9978 41.7879 14.7168 42.128 14.691L45.6378 13.9164C46.7568 13.8321 47.4573 15.2257 47.4944 16.3454C47.5355 17.5896 47.5365 19.1101 47.3611 20.0324C47.0089 21.8866 45.5714 22.0808 45.5714 22.0808C45.5711 22.0743 45.5706 22.1518 45.5423 22.8286C45.5423 22.8286 46.0596 24.3621 44.4897 24.2208C43.4679 24.1284 41.6298 22.935 41.6298 22.935Z" fill="#F9A78D"/>
<path d="M46.9872 17.8475C46.9879 17.9739 46.8816 18.0785 46.7497 18.0817C46.6179 18.0847 46.5105 17.9851 46.5098 17.8588C46.509 17.7327 46.6156 17.6276 46.7472 17.6246C46.8791 17.6213 46.9867 17.7212 46.9872 17.8475Z" fill="#17282F"/>
<path d="M47.1408 17.1257C47.1102 17.156 46.9331 17.0166 46.6754 17.0096C46.4183 16.9989 46.2253 17.1255 46.1982 17.0932C46.1849 17.0789 46.2168 17.0236 46.301 16.9661C46.3837 16.909 46.5235 16.8552 46.6839 16.8607C46.8443 16.8662 46.9777 16.9293 47.0534 16.9921C47.1308 17.0551 47.1559 17.1122 47.1408 17.1257Z" fill="#17282F"/>
<path d="M44.85 17.7652C44.8192 17.7955 44.6417 17.6561 44.3843 17.6491C44.1272 17.6384 43.9342 17.765 43.9071 17.7327C43.8941 17.7182 43.9254 17.6629 44.0099 17.6056C44.0929 17.5483 44.2327 17.4945 44.3931 17.5C44.5535 17.5058 44.6866 17.5688 44.7625 17.6314C44.8397 17.6944 44.865 17.7517 44.85 17.7652Z" fill="#17282F"/>
<path d="M45.4852 19.0328C45.4845 19.018 45.6454 18.9953 45.9058 18.97C45.9717 18.965 46.0343 18.954 46.0469 18.9095C46.0636 18.8624 46.0383 18.7909 46.0088 18.7136C45.9516 18.5529 45.892 18.3843 45.8293 18.2079C45.5807 17.4878 45.4027 16.8968 45.4318 16.8871C45.4609 16.8773 45.6862 17.4528 45.9348 18.1729C45.9945 18.3503 46.0516 18.5194 46.106 18.6813C46.1288 18.7566 46.1689 18.8427 46.1323 18.94C46.1133 18.9885 46.0639 19.0226 46.0213 19.0328C45.9787 19.0443 45.9418 19.0441 45.9093 19.0448C45.6479 19.0511 45.4857 19.0473 45.4852 19.0328Z" fill="#17282F"/>
<path d="M45.5722 22.0808C45.5722 22.0808 44.3143 22.1238 43.0928 21.3402C43.0928 21.3402 43.6825 22.6487 45.5557 22.5304L45.5722 22.0808Z" fill="#F57F62"/>
<path d="M45.3573 19.649C45.2683 19.5241 45.1081 19.4521 44.9465 19.4646C44.8342 19.4733 44.7197 19.5236 44.649 19.6125C44.5786 19.7013 44.5603 19.8299 44.6194 19.9185C44.6861 20.018 44.8307 20.0448 44.9545 20.0138C45.0786 19.9825 45.1868 19.9049 45.2896 19.8274C45.3182 19.8059 45.3472 19.7836 45.3655 19.7536C45.3838 19.7236 45.3886 19.6838 45.368 19.658" fill="#F57F62"/>
<path d="M44.7209 19.1879C44.763 19.1867 44.755 19.4659 44.9885 19.6711C45.2211 19.877 45.5204 19.8545 45.5211 19.8938C45.5246 19.9113 45.4532 19.9461 45.3274 19.9456C45.2038 19.9461 45.0249 19.901 44.882 19.7754C44.7397 19.6498 44.6818 19.4857 44.6758 19.3708C44.6687 19.254 44.7018 19.1857 44.7209 19.1879Z" fill="#17282F"/>
<path d="M44.8527 16.8774C44.8252 16.9464 44.569 16.9056 44.2658 16.9329C43.962 16.9542 43.7156 17.0352 43.6773 16.9712C43.6605 16.9407 43.7049 16.8761 43.8054 16.8115C43.9051 16.7467 44.063 16.6872 44.245 16.6724C44.4269 16.6582 44.5921 16.692 44.7009 16.7397C44.8104 16.7878 44.8645 16.8446 44.8527 16.8774Z" fill="#17282F"/>
<path d="M47.0993 15.9991C47.0522 16.0561 46.8765 15.9903 46.6632 15.9811C46.4504 15.9643 46.2682 16.0086 46.2283 15.946C46.2111 15.916 46.2411 15.8585 46.3218 15.8054C46.4013 15.7526 46.5329 15.7116 46.6792 15.7204C46.8256 15.7294 46.9511 15.7862 47.0236 15.8482C47.097 15.9103 47.1201 15.9713 47.0993 15.9991Z" fill="#17282F"/>
<path d="M40.9684 15.0549C41.3233 13.9828 42.9022 12.5123 44.0298 12.6034L45.8197 13.7023C45.7037 14.314 45.2238 14.8425 44.625 15.0174C44.3055 15.1107 43.9215 15.1329 43.729 15.4044C43.5325 15.6816 43.6411 16.0895 43.4576 16.3755C43.2037 16.772 42.5218 16.7455 42.3298 17.1751C42.2458 17.363 42.2862 17.5889 42.199 17.7751C42.0827 18.0233 41.4466 18.3325 41.1862 18.2467C40.9255 18.1612 40.9296 17.7165 40.8466 17.4826C40.705 17.0828 40.7676 16.8771 40.818 16.6552C40.9378 16.13 40.799 15.5665 40.9684 15.0549Z" fill="#17282F"/>
<path d="M41.9547 18.4754C41.9585 18.3368 41.8078 18.0047 41.6712 17.9792C41.3063 17.9112 40.6447 17.9209 40.6106 18.8497C40.5642 20.12 41.8509 19.9045 41.8547 19.8683C41.8575 19.8397 41.9414 18.9545 41.9547 18.4754Z" fill="#F9A78D"/>
<path d="M41.4835 19.3728C41.4783 19.3686 41.461 19.3876 41.423 19.4034C41.3857 19.4186 41.3227 19.4279 41.2574 19.4006C41.125 19.3466 41.0199 19.1294 41.0222 18.9002C41.0232 18.7846 41.0512 18.6753 41.0955 18.5857C41.1378 18.4941 41.2003 18.4316 41.2684 18.4221C41.3359 18.4088 41.3825 18.4511 41.3965 18.4874C41.4122 18.5236 41.4032 18.5487 41.41 18.5509C41.4135 18.5544 41.438 18.5307 41.4298 18.4781C41.4253 18.4526 41.4115 18.4221 41.3827 18.3965C41.3529 18.3705 41.3087 18.3563 41.2614 18.3595C41.1633 18.3628 41.0717 18.4498 41.0232 18.5482C40.9691 18.6467 40.9346 18.7693 40.9336 18.8992C40.9324 19.1557 41.0545 19.3996 41.2361 19.4597C41.3247 19.4862 41.4002 19.4619 41.4398 19.4334C41.4803 19.4036 41.4878 19.3753 41.4835 19.3728Z" fill="#F57F62"/>
<path d="M45.4473 13.3218C45.5688 13.8377 46.3615 14.4935 46.7107 14.8928C47.3763 15.6549 47.5086 15.9086 47.5172 17.6252C47.8232 17.0295 48.0563 16.4465 48.0267 15.778C47.9969 15.1092 47.744 14.4414 47.2741 13.9643C46.8041 13.4869 46.1099 13.2199 45.4473 13.3218Z" fill="#17282F"/>
<path d="M40.6092 14.4823C40.642 14.5073 40.2325 14.9607 40.0174 15.6598C39.7921 16.3561 39.8673 16.9616 39.8262 16.9633C39.7966 16.9758 39.6583 16.3503 39.8929 15.6207C40.1197 14.8886 40.5924 14.455 40.6092 14.4823Z" fill="#33535F"/>
<path d="M31.1653 16.0383C31.1733 16.0285 31.2746 16.1226 31.4899 16.2367C31.7051 16.3473 32.0462 16.4644 32.4816 16.4674C32.9157 16.4767 33.4292 16.3541 33.946 16.0979C34.4668 15.8476 34.9868 15.4751 35.5505 15.1043C36.1126 14.7335 36.6938 14.4185 37.2763 14.2886C37.8547 14.152 38.3981 14.1708 38.8364 14.2474C39.2765 14.3264 39.6144 14.4625 39.8357 14.5744C39.9462 14.6307 40.0299 14.6785 40.084 14.7155C40.1387 14.7508 40.1662 14.7713 40.164 14.775C40.1519 14.8066 39.69 14.4738 38.8214 14.3384C38.3913 14.2751 37.863 14.2669 37.3043 14.4052C36.7437 14.5368 36.1803 14.8451 35.6219 15.2131C35.0625 15.5812 34.5339 15.956 33.9981 16.2059C33.467 16.4624 32.9289 16.5815 32.4793 16.5597C32.0287 16.5445 31.6788 16.4086 31.4653 16.281C31.3585 16.2157 31.2818 16.1559 31.2337 16.1116C31.1858 16.0666 31.1623 16.0416 31.1653 16.0383Z" fill="#17282F"/>
<path d="M37.7707 16.8398C37.768 16.8365 37.789 16.814 37.8332 16.7735C37.8795 16.7369 37.9507 16.6824 38.0557 16.6371C38.2627 16.5398 38.6006 16.4875 39.0023 16.5375C39.4048 16.5786 39.864 16.7404 40.3777 16.7272C40.6331 16.7199 40.8913 16.6386 41.1264 16.4907C41.3614 16.3414 41.574 16.1384 41.7873 15.9233C42.0008 15.7081 42.2128 15.4934 42.4487 15.3175C42.6855 15.1419 42.9534 15.0225 43.2136 14.9577C43.7341 14.8261 44.2115 14.8036 44.5835 14.6775C44.9584 14.5592 45.2251 14.3723 45.3669 14.2071C45.513 14.0435 45.5481 13.9201 45.5612 13.9264C45.5654 13.9279 45.5574 13.9577 45.5374 14.014C45.5145 14.0688 45.477 14.1498 45.406 14.2394C45.2702 14.4223 44.9973 14.6315 44.6131 14.7648C44.2291 14.9067 43.7456 14.9395 43.2451 15.0736C42.994 15.1399 42.7489 15.2522 42.5248 15.4201C42.301 15.589 42.0945 15.7987 41.8797 16.0151C41.6657 16.231 41.4457 16.4412 41.1943 16.5991C40.9432 16.7557 40.6547 16.8435 40.382 16.8473C39.8341 16.853 39.3795 16.6784 38.9905 16.6291C38.6011 16.569 38.2785 16.6053 38.0748 16.6839C37.869 16.76 37.779 16.8508 37.7707 16.8398Z" fill="#33535F"/>
<path d="M52.8347 44.8951H53.7357C53.7357 44.8951 52.0106 39.6151 51.4896 37.5164C50.9685 35.4177 50.2429 28.4428 50.2429 28.4428L47.5688 24.0309L45.7217 22.879L50.9066 40.2311L52.8347 44.8951Z" fill="#F2575D"/>
<path d="M44.5316 65.2849L44.3717 68.9346C44.3717 68.9346 48.0341 70.3224 48.0704 71L40.9707 70.9447L40.986 65.2476L44.5316 65.2849Z" fill="#17282F"/>
<path d="M48.0704 71C48.0651 70.9022 47.9842 70.7893 47.8498 70.6682C47.9386 70.7205 48.0977 70.8386 48.0704 71Z" fill="#799297"/>
<path d="M48.0704 71L40.9707 70.9447L40.9948 70.3705L47.7927 70.6382C47.7927 70.6382 47.8163 70.6487 47.8498 70.6682C47.9842 70.7893 48.0651 70.9022 48.0704 71Z" fill="#28414B"/>
<path d="M44.4871 68.8997C44.4856 68.9342 44.3122 68.9485 44.1408 69.0586C43.9663 69.1639 43.8774 69.3133 43.8455 69.2993C43.8134 69.2922 43.8668 69.0858 44.0768 68.9562C44.2854 68.8249 44.4949 68.8679 44.4871 68.8997Z" fill="#33535F"/>
<path d="M45.2273 69.2129C45.2351 69.2464 45.0847 69.304 44.9658 69.4496C44.843 69.5914 44.8122 69.7496 44.7777 69.7478C44.7452 69.7531 44.7226 69.5502 44.8738 69.372C45.0231 69.1926 45.2268 69.1799 45.2273 69.2129Z" fill="#33535F"/>
<path d="M45.646 70.1059C45.6145 70.1129 45.5677 69.9397 45.658 69.7508C45.7471 69.5612 45.9108 69.4879 45.9253 69.5166C45.9445 69.5454 45.8387 69.6462 45.7669 69.8024C45.6916 69.9568 45.6806 70.1026 45.646 70.1059Z" fill="#33535F"/>
<path d="M44.4317 68.0637C44.4169 68.0952 44.2583 68.0462 44.0623 68.058C43.8658 68.0657 43.7129 68.1303 43.6951 68.1002C43.6753 68.0752 43.8252 67.9481 44.0563 67.9376C44.2871 67.9251 44.449 68.0367 44.4317 68.0637Z" fill="#17282F"/>
<path d="M55.4769 65.2691L55.3172 68.9188C55.3172 68.9188 58.9796 70.307 59.0157 70.9843L51.916 70.929L51.9313 65.2321L55.4769 65.2691Z" fill="#17282F"/>
<path d="M51.916 70.929L51.9401 70.3547L58.7383 70.6225C58.7383 70.6225 59.0533 70.7623 59.0157 70.9843L51.916 70.929Z" fill="#33535F"/>
<path d="M55.4323 68.8839C55.4308 68.9185 55.2574 68.9327 55.086 69.0428C54.9115 69.1484 54.8226 69.2975 54.7907 69.2835C54.7589 69.2765 54.812 69.0701 55.0221 68.9407C55.2308 68.8094 55.4401 68.8522 55.4323 68.8839Z" fill="#33535F"/>
<path d="M56.1738 69.1971C56.1813 69.2307 56.0309 69.2885 55.9123 69.4338C55.7892 69.5759 55.7584 69.7338 55.7239 69.7321C55.6914 69.7373 55.6691 69.5344 55.82 69.3563C55.9694 69.1769 56.173 69.1641 56.1738 69.1971Z" fill="#33535F"/>
<path d="M56.5913 70.09C56.56 70.097 56.513 69.9239 56.6033 69.735C56.6924 69.5456 56.8562 69.472 56.8707 69.501C56.89 69.5296 56.7842 69.6304 56.7124 69.7865C56.6368 69.9411 56.6258 70.087 56.5913 70.09Z" fill="#33535F"/>
<path d="M55.376 68.0478C55.3612 68.0794 55.2026 68.0303 55.0066 68.0421C54.8104 68.0498 54.6572 68.1144 54.6394 68.0846C54.6196 68.0593 54.7695 67.9325 55.0006 67.9217C55.2314 67.9095 55.3933 68.0208 55.376 68.0478Z" fill="#17282F"/>
<path d="M41.9779 38.0717C41.1145 39.8197 40.5022 41.3507 40.6513 43.2865C40.7288 44.2918 41.5999 45.6632 41.6744 46.8068C41.8338 49.2596 41.747 53.6967 41.6257 54.2907C41.3528 55.6258 40.6513 58.8719 40.6513 62.966C40.6513 67.0603 40.7202 68.4001 40.7202 68.4001H44.7826C44.7826 68.4001 45.0631 60.6158 46.3169 56.1132C47.4818 51.931 48.8224 45.5718 48.8224 42.8128C48.8224 40.0536 48.8224 39.0746 48.8224 39.0746L41.9779 38.0717Z" fill="#17282F"/>
<path d="M50.7174 38.6845C50.7174 38.6845 55.8149 51.3678 55.8149 54.8626C55.8149 55.6731 55.457 68.4001 55.457 68.4001H51.7129C51.5415 63.2998 50.8685 59.9152 51.1507 55.1254L47.1641 46.1873V37.2646L50.4976 36.7797L50.7174 38.6845Z" fill="#17282F"/>
<path d="M48.8234 45.3048C48.8312 45.3066 48.8124 45.4189 48.7713 45.6198C48.7274 45.842 48.6708 46.1285 48.6026 46.4725C48.4575 47.2134 48.2648 48.1984 48.0515 49.2873C47.8339 50.3864 47.6299 51.3805 47.467 52.0971C47.3856 52.4554 47.3149 52.7444 47.2618 52.943C47.2074 53.1414 47.1735 53.2503 47.1658 53.2483C47.158 53.2465 47.177 53.1344 47.2179 52.9333C47.262 52.7113 47.3186 52.4248 47.3868 52.0808C47.5319 51.34 47.7247 50.3549 47.9379 49.2658C48.1552 48.1666 48.3595 47.1728 48.5224 46.4562C48.6039 46.098 48.6745 45.809 48.7274 45.6101C48.782 45.4116 48.8159 45.3028 48.8234 45.3048Z" fill="#33535F"/>
<path d="M45.8848 23.7498C46.0457 23.7411 53.1845 26.0787 52.7719 25.9064L52.9624 25.7079L55.5348 21.8365L57.8784 23.2237C57.8784 23.2237 55.5534 27.6588 55.1692 28.3536C54.8253 28.9761 54.1606 29.4753 53.2752 29.4738C52.7516 29.4728 48.281 28.7266 48.281 28.7266L45.8848 23.7498Z" fill="#F2575D"/>
<path d="M50.4972 36.7798L44.8494 37.4253L42.5735 25.0412L41.2725 23.1614L41.5812 21.7963L45.4752 23.2743L45.5479 22.6913L47.5842 25.3117L49.0336 26.8439C49.7987 27.6531 50.3381 28.6592 50.53 29.7553C50.6248 30.2967 50.0706 31.564 50.0706 31.564L50.423 34.7108L50.4972 36.7798Z" fill="#DADBD8"/>
<path d="M47.0349 46.301C44.9106 46.301 41.5603 46.0463 41.5603 46.0463L41.2871 45.2131L41.3653 45.1323C43.043 45.3247 45.46 45.5644 47.0943 45.5644C47.1174 45.5644 47.1405 45.5644 47.163 45.5642V46.1874L47.2136 46.3005C47.155 46.301 47.0956 46.301 47.0349 46.301Z" fill="#0F191D"/>
<path d="M47.2147 46.3004L47.1641 46.1873V45.5641C48.0134 45.5606 48.639 45.4893 48.8197 45.3086C48.8077 45.3296 48.7756 45.435 48.7275 45.6101C48.6881 45.7587 48.6385 45.9576 48.5818 46.1983C48.5553 46.2051 48.5282 46.2113 48.5006 46.2171C48.2365 46.2719 47.7763 46.2964 47.2147 46.3004ZM48.661 46.1768C48.7039 45.9614 48.7407 45.775 48.7713 45.6199C48.8124 45.4189 48.8312 45.3066 48.8234 45.3049C49.557 44.5382 49.6149 39.6588 49.3788 37.5188C49.359 37.3379 49.335 37.149 49.3077 36.9536C49.3217 36.9956 50.0152 39.08 50.0608 40.1011C50.0929 40.817 50.1452 43.1514 50.068 44.3658C50.0259 45.0294 49.6803 45.6519 49.1049 45.9867C48.9736 46.063 48.8262 46.1285 48.661 46.1768Z" fill="#0F191D"/>
<path d="M48.5811 46.1984C48.6376 45.9577 48.6871 45.7588 48.7264 45.6101C48.7745 45.435 48.8065 45.3297 48.8185 45.3086C48.82 45.3074 48.821 45.3061 48.8223 45.3049C48.83 45.3066 48.8112 45.419 48.7702 45.6199C48.7397 45.775 48.7029 45.9614 48.6601 46.1769C48.6344 46.1846 48.6078 46.1916 48.5811 46.1984Z" fill="#20353D"/>
<path d="M39.7398 24.2323C38.307 26.0337 38.5925 26.7978 39.4998 29.0026C39.6501 29.3682 40.9742 32.3844 41.1752 32.8105C42.0526 34.672 42.1779 35.0393 41.9842 35.7233C40.8413 39.7639 39.4451 44.8951 39.4451 44.8951C39.4451 44.8951 48.0887 46.0715 48.822 45.3049C49.5556 44.5383 49.6135 39.6588 49.3774 37.5188C49.117 35.1579 48.1869 31.4296 47.6932 29.9514C47.3962 29.0622 46.8666 26.9757 45.6967 25.5241C44.8215 24.4384 44.3323 24.1737 43.1649 23.4101L41.2784 22.4343L41.0634 23.1614L39.7398 24.2323Z" fill="#F2575D"/>
<path d="M50.6963 21.2899L51.0517 20.3038L53.5466 21.5121L53.1434 22.6315L50.6963 21.2899Z" fill="#DADBD8"/>
<path d="M48.1413 31.47C48.0316 31.0626 47.9263 30.6938 47.8311 30.3811L47.8366 30.3841L50.0298 30.2923C50.0298 30.2923 49.7849 31.2951 48.1413 31.47Z" fill="#8F9192"/>
<path d="M47.6304 31.4957C47.0297 31.4957 46.2811 31.3976 45.35 31.1457C43.9272 30.7604 40.3428 28.8861 40.3428 28.8861L43.4756 27.888L47.8309 30.3811C47.9262 30.6938 48.0314 31.0626 48.1412 31.47C47.9841 31.4867 47.8141 31.4957 47.6304 31.4957Z" fill="#CC4341"/>
<path d="M39.983 28.7697C39.9213 28.723 47.4784 31.4061 49.018 30.9225C50.5576 30.4386 51.0789 28.5155 51.4974 27.5122C52.3275 25.5226 53.4062 22.1403 53.4062 22.1403L50.6959 20.9984L47.9087 26.5129C47.9087 26.5129 42.3855 24.0261 41.8669 23.875C41.3484 23.7239 39.7464 23.5167 38.9627 25.386C38.0943 27.4572 39.983 28.7697 39.983 28.7697Z" fill="#F2575D"/>
<path d="M39.9828 28.7698C39.9863 28.7713 39.9608 28.76 39.9259 28.7332C39.8896 28.7072 39.8364 28.6667 39.7703 28.6089C39.638 28.4938 39.4472 28.3134 39.2472 28.0392C39.0502 27.7662 38.8407 27.3916 38.749 26.9077C38.6976 26.6673 38.6989 26.4016 38.7237 26.1224C38.754 25.9857 38.7718 25.8409 38.8159 25.6993C38.869 25.5609 38.9021 25.4095 38.9758 25.2707C39.0973 24.9824 39.2791 24.7005 39.5124 24.4445C39.748 24.1905 40.058 23.9791 40.4176 23.8585C40.7758 23.7344 41.179 23.7056 41.5803 23.7644C41.681 23.7782 41.7815 23.801 41.8818 23.828C41.9808 23.8618 42.0785 23.8978 42.1735 23.9368C42.3663 24.0131 42.559 24.0947 42.7552 24.1775C44.3209 24.8443 46.0595 25.6189 47.9339 26.4571L47.8539 26.4854C48.7161 24.7768 49.6572 22.9118 50.6374 20.9692L50.6649 20.9149L50.7211 20.9384C51.0344 21.0705 51.3709 21.2124 51.7098 21.355C52.2995 21.6034 52.8832 21.8496 53.4313 22.0806L53.4862 22.1038L53.4682 22.1601C53.0494 23.4567 52.6233 24.7107 52.1847 25.9094C51.9657 26.5082 51.7381 27.0934 51.5043 27.6576C51.2802 28.2233 51.079 28.7923 50.7985 29.3099C50.6614 29.5697 50.5068 29.8176 50.3253 30.0413C50.1486 30.268 49.9434 30.4704 49.7123 30.6313C49.4857 30.8009 49.2296 30.9115 48.9649 30.9923C48.6908 31.0511 48.4233 31.0359 48.164 31.0173C47.1281 30.9165 46.196 30.6723 45.3494 30.4569C43.6592 30.0063 42.3224 29.5654 41.4018 29.2612C40.4823 28.9539 39.9828 28.7698 39.9828 28.7698C39.9836 28.7618 40.1126 28.8005 40.3547 28.8771C40.6034 28.9562 40.9597 29.0698 41.4166 29.2154C42.3414 29.5054 43.6818 29.9332 45.3715 30.3716C46.2168 30.581 47.1509 30.8192 48.1722 30.9135C48.4259 30.931 48.6905 30.9428 48.9401 30.8877C49.1837 30.8114 49.4334 30.7041 49.6479 30.5409C49.8684 30.3866 50.0652 30.1912 50.2361 29.9707C50.4111 29.7533 50.5617 29.5106 50.6953 29.2552C50.9694 28.746 51.1669 28.1833 51.3915 27.6123C51.6243 27.0464 51.8489 26.4654 52.0667 25.8664C52.5025 24.6694 52.9268 23.4152 53.3441 22.1206L53.381 22.2002C52.8326 21.9692 52.2489 21.7233 51.6589 21.4748C51.3203 21.3322 50.9837 21.1903 50.6702 21.0582L50.7539 21.0277C49.7712 22.969 48.8276 24.8331 47.9635 26.5404L47.9369 26.5927L47.8833 26.5687C46.0116 25.7265 44.2753 24.9459 42.7146 24.2726C42.5189 24.1908 42.3262 24.1097 42.1362 24.0304C42.0409 23.9901 41.947 23.9553 41.854 23.9231C41.7587 23.8968 41.6625 23.8743 41.5658 23.8605C41.179 23.8017 40.7903 23.8275 40.4462 23.9443C40.1009 24.0579 39.8024 24.2581 39.5728 24.5018C39.3457 24.7475 39.166 25.02 39.0445 25.3019C38.971 25.4376 38.938 25.5847 38.8846 25.7195C38.84 25.8574 38.8219 25.9983 38.7903 26.1311C38.764 26.4028 38.7593 26.6618 38.8069 26.8975C38.8906 27.3709 39.0906 27.7424 39.2803 28.0159C39.4725 28.2904 39.6572 28.474 39.7841 28.5934C39.8898 28.6872 39.9432 28.7345 39.9828 28.7698Z" fill="#17282F"/>
<path d="M41.8965 39.6936L42.5967 38.2782L47.4957 38.3641L46.9513 39.8282L41.8965 39.6936Z" fill="#F2575D"/>
<path d="M41.8969 39.6936C41.8999 39.6918 41.9363 39.6908 42.0037 39.6908C42.0816 39.6913 42.1779 39.6918 42.2949 39.6926C42.5596 39.6958 42.9189 39.7001 43.3618 39.7056C44.2661 39.7179 45.5177 39.7361 46.9533 39.7719L46.8989 39.8084C47.064 39.3628 47.2382 38.8929 47.4174 38.4098L47.442 38.344L47.4951 38.4218C45.5232 38.387 43.7615 38.3482 42.5966 38.3155L42.6307 38.2947C42.4097 38.7201 42.2315 39.0631 42.1014 39.3138C42.0415 39.4266 41.9929 39.5187 41.9535 39.5928C41.9192 39.6571 41.8999 39.6916 41.8969 39.6936C41.8939 39.6953 41.9072 39.6643 41.935 39.6023C41.9688 39.529 42.0109 39.4376 42.0626 39.3255C42.1856 39.0638 42.3543 38.7058 42.5636 38.2617L42.5736 38.2407H42.5979C43.7633 38.2489 45.5252 38.2719 47.4971 38.3065L47.5788 38.3077L47.5505 38.3843L47.5259 38.4501C47.346 38.9327 47.1705 39.4024 47.0046 39.8477L46.9903 39.8855L46.9503 39.8845C45.4861 39.843 44.2102 39.7939 43.3119 39.7581C42.8766 39.7401 42.5232 39.7256 42.2628 39.7149C42.1518 39.7094 42.0606 39.7051 41.9866 39.7014C41.9247 39.6978 41.8939 39.6953 41.8969 39.6936Z" fill="#17282F"/>
<path d="M47.4812 35.6336C47.4792 35.6653 46.299 35.6158 44.8453 35.523C43.3915 35.4299 42.2148 35.3288 42.2168 35.2968C42.2188 35.265 43.3987 35.3146 44.8529 35.4076C46.3062 35.5005 47.4832 35.6018 47.4812 35.6336Z" fill="#17282F"/>
<path d="M55.6826 21.9397L56.1553 21.143L58.0355 22.2389L57.6698 23.1036L55.6826 21.9397Z" fill="#DADBD8"/>
<path d="M53.261 27.5454C53.242 27.5657 52.9607 27.2732 52.8031 26.8091C52.6415 26.3462 52.683 25.9428 52.7108 25.9469C52.7443 25.9464 52.7536 26.3322 52.9082 26.773C53.0576 27.2154 53.288 27.5251 53.261 27.5454Z" fill="#17282F"/>
<path d="M48.2295 28.1291C48.2095 28.1504 47.9333 27.8232 47.8507 27.3177C47.7634 26.8131 47.9175 26.4135 47.9433 26.4268C47.9778 26.4345 47.8815 26.8243 47.9648 27.2985C48.0411 27.7736 48.2598 28.1109 48.2295 28.1291Z" fill="#17282F"/>
<path d="M47.276 40.2733L42.2031 40.1302L42.2868 39.7159C42.5445 39.7264 42.8898 39.7406 43.3119 39.7582C44.2101 39.7939 45.4861 39.843 46.9502 39.8845L46.9903 39.8855L47.0046 39.8477C47.153 39.4499 47.3086 39.0326 47.4685 38.604L47.276 40.2733Z" fill="#CC4341"/>
<path d="M46.9896 39.8855L46.9495 39.8845C45.4854 39.843 44.2094 39.7939 43.3112 39.7581C42.8891 39.7406 42.5438 39.7264 42.2861 39.7159L42.2889 39.7016L46.951 39.8282L47.4954 38.364L47.4678 38.604C47.3079 39.0326 47.1523 39.4499 47.0039 39.8477L46.9896 39.8855Z" fill="#0F191D"/>
<path d="M46.2872 23.6606C46.3022 23.6581 46.3483 23.8595 46.4125 24.1953L46.4305 24.2898L46.3496 24.233C46.1536 24.0957 45.9005 23.9133 45.617 23.7049L45.7052 23.6691C45.6787 23.8432 45.6506 24.0281 45.6213 24.2198C45.6027 24.3344 45.5849 24.4465 45.5676 24.5548L45.5556 24.6311L45.4864 24.5971C45.0604 24.3887 44.6874 24.2005 44.423 24.0611C44.1584 23.922 44.0017 23.8317 44.008 23.8189C44.0143 23.8059 44.1822 23.8727 44.4556 23.9938C44.729 24.1147 45.108 24.2901 45.5361 24.4947L45.4548 24.537C45.4716 24.4287 45.4889 24.3166 45.5067 24.2018C45.5376 24.0104 45.5674 23.8257 45.5955 23.6518L45.6102 23.5602L45.6837 23.616C45.9636 23.8292 46.21 24.0204 46.3969 24.1697L46.3343 24.2078C46.2907 23.8687 46.2719 23.6628 46.2872 23.6606Z" fill="#17282F"/>
<path d="M55.4563 68.4142C55.4563 68.4502 54.6258 68.4792 53.6012 68.4792C52.5767 68.4792 51.7461 68.4502 51.7461 68.4142C51.7461 68.3782 52.5767 68.3491 53.6012 68.3491C54.6258 68.3491 55.4563 68.3782 55.4563 68.4142Z" fill="#33535F"/>
<path d="M44.613 68.4142C44.613 68.4502 43.7303 68.4792 42.6416 68.4792C41.5526 68.4792 40.6699 68.4502 40.6699 68.4142C40.6699 68.3782 41.5526 68.3491 42.6416 68.3491C43.7303 68.3491 44.613 68.3782 44.613 68.4142Z" fill="#33535F"/>
<path d="M16.0001 29.0001C21.8124 29.0001 26.7971 25.4586 28.9142 20.4155C29.1042 19.9627 29.2032 19.6855 29.3283 19.2972C29.7645 17.9431 30 16.4992 30 14.9999C30 7.26798 23.732 1 16.0001 1C8.26822 1 2.00025 7.26798 2.00025 14.9999C2.00025 16.6934 2.3007 18.3161 2.85144 19.8184C4.02316 23.0142 6.32676 25.6643 9.27614 27.2826C11.2719 28.3773 13.5631 29.0001 16.0001 29.0001Z" fill="#C7D9F2"/>
<path d="M31.4787 13.957C32.2953 13.957 32.957 13.295 32.957 12.4784C32.957 11.662 32.2953 11 31.4787 11C30.6623 11 30.0003 11.662 30.0003 12.4784C30.0003 12.5085 30.0012 12.5383 30.0029 12.5678C30.0493 13.3428 30.6921 13.957 31.4787 13.957Z" fill="#C7D9F2"/>
<path d="M34.8468 13.6956C34.8663 13.6956 34.8857 13.695 34.9055 13.6938C35.3526 13.6628 35.6947 13.2909 35.6953 12.8497C35.6953 12.8299 35.6947 12.8098 35.6932 12.7898C35.6625 12.3423 35.2901 12 34.8482 12C34.8288 12 34.8093 12.0008 34.7895 12.002C34.3424 12.0327 34.0003 12.4049 33.9997 12.8461C33.9997 12.8659 34.0003 12.886 34.0018 12.906C34.0325 13.3532 34.4049 13.6956 34.8468 13.6956Z" fill="#C7D9F2"/>
<path d="M37.4232 13.8477C37.433 13.8477 37.4427 13.8474 37.4528 13.8468C37.6762 13.8314 37.8474 13.6455 37.8477 13.4247C37.8477 13.415 37.8474 13.4049 37.8465 13.3949C37.8311 13.1712 37.6449 13 37.4241 13C37.4144 13 37.4046 13.0003 37.3946 13.0009C37.1712 13.0162 37 13.2025 36.9997 13.4229C36.9997 13.433 37 13.443 37.0009 13.4531C37.0162 13.6768 37.2025 13.8477 37.4232 13.8477Z" fill="#C7D9F2"/>
<path d="M23.7452 11.6877C25.7763 17.3662 23.719 23.2941 19.1498 24.9284C14.5811 26.5622 9.23051 23.2836 7.19982 17.6051C5.16865 11.9266 7.22647 5.99876 11.7952 4.3645C16.3639 2.73072 21.7145 6.00923 23.7452 11.6877Z" fill="#4F52FF"/>
<path d="M22.7971 12.0263C24.4361 16.6092 22.7757 21.394 19.0879 22.7132C15.4001 24.0319 11.0817 21.3859 9.44223 16.8024C7.80321 12.219 9.46365 7.43423 13.1514 6.11502C16.8392 4.79629 21.1576 7.44233 22.7971 12.0263Z" fill="white"/>
<path d="M22.0305 12.3007C23.3435 15.9713 22.0133 19.8033 19.0599 20.8598C16.1064 21.9159 12.648 19.7967 11.335 16.1255C10.0224 12.4553 11.3521 8.62287 14.3056 7.56683C17.259 6.51032 20.7179 8.63002 22.0305 12.3007Z" fill="#4F52FF"/>
<path d="M21.0248 12.6602C22.0327 15.479 21.0838 18.3958 18.9051 19.1753C16.7264 19.9544 14.1427 18.3011 13.1342 15.4818C12.1263 12.663 13.0752 9.74623 15.2539 8.9667C17.4326 8.18764 20.0163 9.84093 21.0248 12.6602Z" fill="white"/>
<path d="M20.284 13.0984C21.0026 15.1087 20.3815 17.1689 18.8962 17.7C17.4114 18.2311 15.6244 17.0323 14.9058 15.022C14.1867 13.0118 14.8077 10.9521 16.293 10.421C17.7778 9.88941 19.5649 11.0882 20.284 13.0984Z" fill="#4F52FF"/>
<path d="M19.7639 13.2844C20.2831 14.7364 19.8886 16.2046 18.8825 16.5643C17.876 16.9246 16.6396 16.0389 16.1203 14.5874C15.6011 13.1354 15.9957 11.6668 17.0017 11.307C18.0078 10.9472 19.2447 11.8324 19.7639 13.2844Z" fill="white"/>
<path d="M17.8418 15.3439L31.13 9.41491C31.3784 9.30404 31.5079 8.9625 31.419 8.65254C31.3301 8.34259 31.0564 8.18106 30.8079 8.29192L17.5198 14.2215C17.2713 14.3324 17.1423 14.6734 17.2312 14.9839C17.3201 15.2933 17.5934 15.4548 17.8418 15.3439Z" fill="#1D2A30"/>
</g>
<defs>
<clipPath id="clip0_1_114">
<rect width="72" height="72" fill="white"/>
</clipPath>
</defs>
</svg>
