<svg width="72" height="72" viewBox="0 0 72 72" fill="none" xmlns="http://www.w3.org/2000/svg">
<rect width="72" height="72" fill="#F5F5F5"/>
<rect width="1440" height="12112" transform="translate(-971 -2334)" fill="white"/>
<rect x="-23.5" y="-23.5" width="359" height="359" rx="3.5" fill="white" stroke="#737373"/>
<g clip-path="url(#clip0_1_114)">
<path fill-rule="evenodd" clip-rule="evenodd" d="M8.60552 14.4239C13.1053 8.34221 19.5656 4.87509 26.8904 2.97023C35.865 0.636383 45.4707 -2.12657 53.3367 2.79143C63.1027 8.89733 72.5038 19.1081 70.9397 30.5108C69.4137 41.6352 55.6478 44.6488 46.6698 51.3926C36.4928 59.037 28.7076 74.8314 16.4257 71.4586C4.09863 68.0734 2.18942 51.3601 0.453698 38.701C-0.766653 29.8006 3.26385 21.6435 8.60552 14.4239Z" fill="#B3E3FF" fill-opacity="0.3"/>
<mask id="mask0_1_114" style="mask-type:luminance" maskUnits="userSpaceOnUse" x="4" y="27" width="65" height="40">
<path d="M66.8096 66.4579H6.05437C5.43644 66.4579 4.93083 65.9531 4.93083 65.3364L4.65921 53.8568L4.19003 34.0286L4.09649 30.075C4.07818 29.301 4.37859 28.5534 4.92762 28.0065C5.09039 27.8445 5.27081 27.7041 5.46425 27.5876C5.58117 27.517 5.7028 27.4552 5.82823 27.4026C6.17337 27.2574 6.54698 27.1805 6.92823 27.1805C6.95263 27.1805 6.97719 27.181 7.00164 27.1815L12.1508 27.3147L12.3192 27.319L14.73 27.3813L66.3784 28.7166C66.4263 28.7134 66.4734 28.7119 66.5197 28.7119C67.7628 28.7119 68.4389 29.8526 68.4389 30.4476L68.2813 41.316L67.9332 65.3364C67.9332 65.9531 67.4278 66.4579 66.8096 66.4579ZM7.18186 28.5111C6.6562 28.5111 6.15122 28.7194 5.77802 29.0912C5.39224 29.4758 5.18007 30.0021 5.19373 30.5465L6.04007 64.2602C6.04007 64.8444 6.51839 65.3224 7.10298 65.3224H65.3445C65.9291 65.3224 66.4075 64.8444 66.4075 64.2602L66.8846 32.5879C66.8299 30.7345 65.2473 30.0357 64.228 30.0357C64.1989 30.0357 64.1706 30.0362 64.1425 30.0374L7.23515 28.5118C7.21739 28.5113 7.1996 28.5111 7.18186 28.5111Z" fill="white"/>
</mask>
<g mask="url(#mask0_1_114)">
<path d="M66.8096 66.4579H6.05437C5.43644 66.4579 4.93083 65.9531 4.93083 65.3364L4.65921 53.8568L4.19003 34.0286L4.09649 30.075C4.07818 29.301 4.37859 28.5534 4.92762 28.0065C5.09039 27.8445 5.27081 27.7041 5.46425 27.5876C5.58117 27.517 5.7028 27.4552 5.82823 27.4026C6.17337 27.2574 6.54698 27.1805 6.92823 27.1805C6.95263 27.1805 6.97719 27.181 7.00164 27.1815L12.1508 27.3147L12.3192 27.319L14.73 27.3813L66.3784 28.7166C66.4263 28.7134 66.4734 28.7119 66.5197 28.7119C67.7628 28.7119 68.4389 29.8526 68.4389 30.4476L68.2813 41.316L67.9332 65.3364C67.9332 65.9531 67.4278 66.4579 66.8096 66.4579ZM7.18186 28.5111C6.6562 28.5111 6.15122 28.7194 5.77802 29.0912C5.39224 29.4758 5.18007 30.0021 5.19373 30.5465L6.04007 64.2602C6.04007 64.8444 6.51839 65.3224 7.10298 65.3224H65.3445C65.9291 65.3224 66.4075 64.8444 66.4075 64.2602L66.8846 32.5879C66.8299 30.7345 65.2473 30.0357 64.228 30.0357C64.1989 30.0357 64.1706 30.0362 64.1425 30.0374L7.23515 28.5118C7.21739 28.5113 7.1996 28.5111 7.18186 28.5111Z" fill="#00094F"/>
</g>
<mask id="mask1_1_114" style="mask-type:luminance" maskUnits="userSpaceOnUse" x="5" y="28" width="62" height="38">
<path d="M65.3448 65.3225H7.10323C6.51864 65.3225 6.04032 64.8445 6.04032 64.2604L5.19398 30.5466C5.18032 30.0023 5.39248 29.4759 5.77827 29.0913C6.15147 28.7195 6.65645 28.5112 7.18211 28.5112C7.19985 28.5112 7.21764 28.5114 7.2354 28.5119L64.1428 30.0376C64.1709 30.0363 64.1992 30.0358 64.2282 30.0358C65.2476 30.0358 66.8302 30.7347 66.8848 32.588L66.4077 64.2604C66.4077 64.8445 65.9294 65.3225 65.3448 65.3225ZM65.8161 46.3339C65.7312 46.3339 65.6615 46.4021 65.6603 46.4872L65.6227 49.0557C65.6214 49.1418 65.6901 49.2124 65.776 49.2137H65.7785C65.8632 49.2137 65.9329 49.1456 65.9341 49.0604L65.9717 46.4919C65.9732 46.4058 65.9043 46.3352 65.8184 46.3339H65.8161ZM63.6609 30.9522C63.8817 30.9522 64.7569 30.9896 65.332 31.5402C65.6796 31.8727 65.857 32.3394 65.8597 32.9238L65.7151 42.7614C65.7139 42.8473 65.7825 42.9181 65.8687 42.9194H65.871C65.9559 42.9194 66.0254 42.8513 66.0266 42.7661L66.1712 32.9253C66.1682 32.2503 65.9582 31.7087 65.5475 31.3153C64.9008 30.6961 63.9664 30.6403 63.6832 30.6403C63.6467 30.6403 63.6211 30.6413 63.6081 30.642L45.4302 30.1545C45.4257 30.1543 45.4212 30.154 45.4169 30.154C45.3322 30.154 45.2724 30.2241 45.2701 30.306C45.2678 30.3919 45.3358 30.4635 45.4217 30.4655L63.6106 30.953C63.6153 30.9527 63.6329 30.9522 63.6609 30.9522Z" fill="white"/>
</mask>
<g mask="url(#mask1_1_114)">
<path d="M65.3448 65.3225H7.10323C6.51864 65.3225 6.04032 64.8445 6.04032 64.2604L5.19398 30.5466C5.18032 30.0023 5.39248 29.4759 5.77827 29.0913C6.15147 28.7195 6.65645 28.5112 7.18211 28.5112C7.19985 28.5112 7.21764 28.5114 7.2354 28.5119L64.1428 30.0376C64.1709 30.0363 64.1992 30.0358 64.2282 30.0358C65.2476 30.0358 66.8302 30.7347 66.8848 32.588L66.4077 64.2604C66.4077 64.8445 65.9294 65.3225 65.3448 65.3225ZM65.8161 46.3339C65.7312 46.3339 65.6615 46.4021 65.6603 46.4872L65.6227 49.0557C65.6214 49.1418 65.6901 49.2124 65.776 49.2137H65.7785C65.8632 49.2137 65.9329 49.1456 65.9341 49.0604L65.9717 46.4919C65.9732 46.4058 65.9043 46.3352 65.8184 46.3339H65.8161ZM63.6609 30.9522C63.8817 30.9522 64.7569 30.9896 65.332 31.5402C65.6796 31.8727 65.857 32.3394 65.8597 32.9238L65.7151 42.7614C65.7139 42.8473 65.7825 42.9181 65.8687 42.9194H65.871C65.9559 42.9194 66.0254 42.8513 66.0266 42.7661L66.1712 32.9253C66.1682 32.2503 65.9582 31.7087 65.5475 31.3153C64.9008 30.6961 63.9664 30.6403 63.6832 30.6403C63.6467 30.6403 63.6211 30.6413 63.6081 30.642L45.4302 30.1545C45.4257 30.1543 45.4212 30.154 45.4169 30.154C45.3322 30.154 45.2724 30.2241 45.2701 30.306C45.2678 30.3919 45.3358 30.4635 45.4217 30.4655L63.6106 30.953C63.6153 30.9527 63.6329 30.9522 63.6609 30.9522Z" fill="url(#paint0_linear_1_114)"/>
</g>
<mask id="mask2_1_114" style="mask-type:luminance" maskUnits="userSpaceOnUse" x="65" y="46" width="1" height="4">
<path d="M65.7789 49.2136H65.7764C65.6905 49.2124 65.6218 49.1418 65.6231 49.0556L65.6606 46.4871C65.6619 46.402 65.7316 46.3339 65.8165 46.3339H65.8188C65.9047 46.3351 65.9736 46.4058 65.9721 46.4919L65.9345 49.0604C65.9333 49.1455 65.8636 49.2136 65.7789 49.2136Z" fill="white"/>
</mask>
<g mask="url(#mask2_1_114)">
<path d="M65.7789 49.2136H65.7764C65.6905 49.2124 65.6218 49.1418 65.6231 49.0556L65.6606 46.4871C65.6619 46.402 65.7316 46.3339 65.8165 46.3339H65.8188C65.9047 46.3351 65.9736 46.4058 65.9721 46.4919L65.9345 49.0604C65.9333 49.1455 65.8636 49.2136 65.7789 49.2136Z" fill="url(#paint1_linear_1_114)"/>
</g>
<mask id="mask3_1_114" style="mask-type:luminance" maskUnits="userSpaceOnUse" x="45" y="30" width="22" height="13">
<path d="M65.8705 42.9192H65.8682C65.782 42.9179 65.7134 42.8471 65.7146 42.7612L65.8592 32.9236C65.8565 32.3392 65.679 31.8725 65.3315 31.54C64.7564 30.9894 63.8812 30.9521 63.6604 30.9521C63.6324 30.9521 63.6148 30.9526 63.6101 30.9528L45.4212 30.4653C45.3352 30.4633 45.2673 30.3917 45.2696 30.3058C45.2718 30.2239 45.3317 30.1538 45.4164 30.1538C45.4207 30.1538 45.4252 30.1541 45.4297 30.1543L63.6076 30.6418C63.6206 30.6411 63.6461 30.6401 63.6827 30.6401C63.9659 30.6401 64.9003 30.6959 65.547 31.3151C65.9577 31.7085 66.1677 32.2501 66.1707 32.9251L66.0261 42.766C66.0248 42.8511 65.9554 42.9192 65.8705 42.9192Z" fill="white"/>
</mask>
<g mask="url(#mask3_1_114)">
<path d="M65.8705 42.9192H65.8682C65.782 42.9179 65.7134 42.8471 65.7146 42.7612L65.8592 32.9236C65.8565 32.3392 65.679 31.8725 65.3315 31.54C64.7564 30.9894 63.8812 30.9521 63.6604 30.9521C63.6324 30.9521 63.6148 30.9526 63.6101 30.9528L45.4212 30.4653C45.3352 30.4633 45.2673 30.3917 45.2696 30.3058C45.2718 30.2239 45.3317 30.1538 45.4164 30.1538C45.4207 30.1538 45.4252 30.1541 45.4297 30.1543L63.6076 30.6418C63.6206 30.6411 63.6461 30.6401 63.6827 30.6401C63.9659 30.6401 64.9003 30.6959 65.547 31.3151C65.9577 31.7085 66.1677 32.2501 66.1707 32.9251L66.0261 42.766C66.0248 42.8511 65.9554 42.9192 65.8705 42.9192Z" fill="url(#paint2_linear_1_114)"/>
</g>
<mask id="mask4_1_114" style="mask-type:luminance" maskUnits="userSpaceOnUse" x="0" y="66" width="72" height="4">
<path d="M0.141649 69.354H71.4865C71.5644 69.354 71.6283 69.2904 71.6283 69.2125V66.4302C71.6283 66.3523 71.5644 66.2885 71.4865 66.2885H0.141649C0.0637453 66.2885 0 66.3523 0 66.4302V69.2125C0 69.2904 0.0637453 69.354 0.141649 69.354Z" fill="white"/>
</mask>
<g mask="url(#mask4_1_114)">
<path d="M0.141649 69.354H71.4865C71.5644 69.354 71.6283 69.2904 71.6283 69.2125V66.4302C71.6283 66.3523 71.5644 66.2885 71.4865 66.2885H0.141649C0.0637453 66.2885 0 66.3523 0 66.4302V69.2125C0 69.2904 0.0637453 69.354 0.141649 69.354Z" fill="#00094F"/>
</g>
<path d="M46.907 2.83264C46.7216 2.7753 46.5372 2.72022 46.3545 2.66713C46.4079 2.62657 46.4617 2.58626 46.5159 2.54695C46.561 2.5139 46.6136 2.49812 46.6655 2.49812C46.7441 2.49812 46.8216 2.53418 46.8712 2.60254C46.9215 2.67139 46.9321 2.75727 46.907 2.83264Z" fill="#EBF1FE"/>
<mask id="mask5_1_114" style="mask-type:luminance" maskUnits="userSpaceOnUse" x="42" y="9" width="1" height="2">
<path d="M42.6342 10.0585C42.6261 10.0585 42.6181 10.0582 42.6099 10.0572C42.47 10.0439 42.3676 9.91975 42.3811 9.78004C42.3941 9.64282 42.4104 9.50336 42.4294 9.36589C42.447 9.2387 42.5555 9.1463 42.6808 9.1463C42.6925 9.1463 42.7041 9.14705 42.7161 9.1488C42.8552 9.16783 42.9524 9.29603 42.9333 9.43525C42.9153 9.5657 42.9 9.69816 42.8875 9.82861C42.8752 9.95456 42.7732 10.0502 42.6507 10.058C42.6452 10.0582 42.6397 10.0585 42.6342 10.0585Z" fill="white"/>
</mask>
<g mask="url(#mask5_1_114)">
<path d="M42.6342 10.0585C42.6261 10.0585 42.6181 10.0582 42.6099 10.0572C42.47 10.0439 42.3676 9.91975 42.3811 9.78004C42.3941 9.64282 42.4104 9.50336 42.4294 9.36589C42.447 9.2387 42.5555 9.1463 42.6808 9.1463C42.6925 9.1463 42.7041 9.14705 42.7161 9.1488C42.8552 9.16783 42.9524 9.29603 42.9333 9.43525C42.9153 9.5657 42.9 9.69816 42.8875 9.82861C42.8752 9.95456 42.7732 10.0502 42.6507 10.058C42.6452 10.0582 42.6397 10.0585 42.6342 10.0585Z" fill="url(#paint3_linear_1_114)"/>
</g>
<path d="M50.3191 8.97435L11.9242 8.73923C10.6624 8.73172 9.65315 9.78486 9.71564 11.0443L12.287 64.1069C12.3262 64.9175 12.9952 65.5542 13.8072 65.5542H53.6274C54.4428 65.5542 55.1146 64.9147 55.1541 64.1012L57.4559 16.8524L50.3191 8.97435Z" fill="#91B3FA"/>
<path d="M51.9157 16.6191C50.6648 16.575 49.7034 15.4979 49.8019 14.2512L50.2136 9.04607L57.4634 16.8207L51.9157 16.6191Z" fill="#7D97F4"/>
<mask id="mask6_1_114" style="mask-type:luminance" maskUnits="userSpaceOnUse" x="17" y="18" width="34" height="4">
<path d="M18.4109 18.7815C23.7321 18.9307 44.1591 19.4821 49.3171 19.6213C49.9679 19.6389 50.485 20.056 50.46 20.5423C50.4362 21.0052 49.927 21.36 49.3079 21.3453L18.4157 20.6181C17.8205 20.6041 17.3242 20.2528 17.2705 19.8081L17.2568 19.6954C17.1954 19.1866 17.7306 18.7625 18.4109 18.7815Z" fill="white"/>
</mask>
<g mask="url(#mask6_1_114)">
<path d="M18.4109 18.7815C23.7321 18.9307 44.1591 19.4821 49.3171 19.6213C49.9679 19.6389 50.485 20.056 50.46 20.5423C50.4362 21.0052 49.927 21.36 49.3079 21.3453L18.4157 20.6181C17.8205 20.6041 17.3242 20.2528 17.2705 19.8081L17.2568 19.6954C17.1954 19.1866 17.7306 18.7625 18.4109 18.7815Z" fill="url(#paint4_linear_1_114)"/>
</g>
<mask id="mask7_1_114" style="mask-type:luminance" maskUnits="userSpaceOnUse" x="17" y="22" width="23" height="4">
<path d="M17.8036 24.1719C17.8881 24.2896 18.0492 24.3662 18.2253 24.3725L39.4251 25.1157C39.6912 25.1252 39.9125 24.9734 39.9225 24.7744L39.9764 23.7303C39.9869 23.5227 39.7651 23.3449 39.4875 23.3384L18.8666 22.8569C17.9482 22.8356 17.3639 23.5582 17.8036 24.1719Z" fill="white"/>
</mask>
<g mask="url(#mask7_1_114)">
<path d="M17.8036 24.1719C17.8881 24.2896 18.0492 24.3662 18.2253 24.3725L39.4251 25.1157C39.6912 25.1252 39.9125 24.9734 39.9225 24.7744L39.9764 23.7303C39.9869 23.5227 39.7651 23.3449 39.4875 23.3384L18.8666 22.8569C17.9482 22.8356 17.3639 23.5582 17.8036 24.1719Z" fill="url(#paint5_linear_1_114)"/>
</g>
<mask id="mask8_1_114" style="mask-type:luminance" maskUnits="userSpaceOnUse" x="16" y="28" width="34" height="3">
<path d="M17.8943 28.2271C23.2155 28.3763 43.6425 28.9277 48.8005 29.0669C49.4513 29.0844 49.9682 29.5016 49.9434 29.9878C49.9196 30.4508 49.4104 30.8056 48.791 30.7908L17.8991 30.0637C17.3039 30.0497 16.8076 29.6984 16.7537 29.2537L16.7402 29.141C16.6788 28.6322 17.214 28.208 17.8943 28.2271Z" fill="white"/>
</mask>
<g mask="url(#mask8_1_114)">
<path d="M17.8943 28.2271C23.2155 28.3763 43.6425 28.9277 48.8005 29.0669C49.4513 29.0844 49.9682 29.5016 49.9434 29.9878C49.9196 30.4508 49.4104 30.8056 48.791 30.7908L17.8991 30.0637C17.3039 30.0497 16.8076 29.6984 16.7537 29.2537L16.7402 29.141C16.6788 28.6322 17.214 28.208 17.8943 28.2271Z" fill="url(#paint6_linear_1_114)"/>
</g>
<mask id="mask9_1_114" style="mask-type:luminance" maskUnits="userSpaceOnUse" x="17" y="32" width="23" height="3">
<path d="M17.2802 33.6171C17.3647 33.7348 17.5258 33.8114 17.7019 33.8177L38.9014 34.5609C39.1678 34.5704 39.3888 34.4186 39.3991 34.2196L39.4527 33.1755C39.4635 32.9679 39.2415 32.7901 38.9638 32.7836L18.3432 32.3021C17.4245 32.2808 16.8405 33.0034 17.2802 33.6171Z" fill="white"/>
</mask>
<g mask="url(#mask9_1_114)">
<path d="M17.2802 33.6171C17.3647 33.7348 17.5258 33.8114 17.7019 33.8177L38.9014 34.5609C39.1678 34.5704 39.3888 34.4186 39.3991 34.2196L39.4527 33.1755C39.4635 32.9679 39.2415 32.7901 38.9638 32.7836L18.3432 32.3021C17.4245 32.2808 16.8405 33.0034 17.2802 33.6171Z" fill="url(#paint7_linear_1_114)"/>
</g>
<mask id="mask10_1_114" style="mask-type:luminance" maskUnits="userSpaceOnUse" x="19" y="39" width="26" height="17">
<path d="M19.82 50.7961C20.0011 48.487 20.7844 46.2232 22.0148 44.2376C22.6327 43.2458 23.3593 42.3168 24.1915 41.4888C24.405 41.2872 24.6132 41.0799 24.8317 40.8836C25.0565 40.6948 25.276 40.4988 25.506 40.3157C25.7413 40.1395 25.9738 39.9589 26.2156 39.7912L26.5845 39.548L26.7689 39.4268L26.8613 39.366C26.8947 39.3452 26.9395 39.3184 26.9796 39.2971C27.6276 38.9398 28.5577 38.9231 29.1862 39.5538C29.339 39.7053 29.4458 39.8873 29.5249 40.0661C29.561 40.1562 29.5964 40.2471 29.6172 40.3358C29.6442 40.4262 29.6587 40.5133 29.6738 40.6009C29.7294 40.9507 29.7134 41.2755 29.681 41.5897C29.6645 41.7465 29.639 41.9004 29.6114 42.0504L29.5272 42.4738C29.4731 42.7565 29.4099 43.0375 29.3483 43.3187C29.224 43.8805 29.0832 44.4389 28.9353 44.9953C28.334 47.2177 27.5376 49.3871 26.5526 51.4676L26.1755 52.2438C26.0435 52.4995 25.9149 52.7569 25.7801 53.011L25.5757 53.3911L25.4734 53.5811L25.3609 53.7794C25.2053 54.0434 25.0312 54.2993 24.8287 54.5431C24.625 54.7858 24.395 55.0191 24.108 55.2152C23.8236 55.409 23.4653 55.5665 23.0674 55.5858C22.9689 55.5958 22.8707 55.5855 22.7722 55.575C22.6725 55.5697 22.5813 55.5374 22.4868 55.5151C22.2987 55.4643 22.1207 55.3732 21.9641 55.2628C21.6489 55.0394 21.4226 54.7302 21.2823 54.3972C21.147 54.0679 21.0876 53.7244 21.0851 53.3906C21.0811 53.0566 21.1312 52.7388 21.1999 52.4389C21.27 52.1381 21.3567 51.8567 21.453 51.5813L21.5945 51.1656L21.7539 50.7567C22.1811 49.667 22.7467 48.6364 23.4074 47.6749C24.0657 46.7109 24.843 45.8318 25.6989 45.0413L25.8588 44.8924L26.0254 44.7509L26.3594 44.469C26.473 44.3778 26.5897 44.2907 26.7047 44.2013C26.8205 44.1131 26.9338 44.0215 27.055 43.9404C27.2938 43.7734 27.5301 43.6034 27.7794 43.4526L27.9641 43.3359L28.0566 43.2778C28.0729 43.2678 28.0849 43.2593 28.1049 43.2478L28.1658 43.214C28.3302 43.1274 28.5099 43.0698 28.6955 43.0502C29.0649 43.0067 29.464 43.1166 29.7515 43.3785C29.8995 43.509 30.0181 43.696 30.0719 43.888C30.1288 44.0813 30.1271 44.2669 30.1103 44.4339C30.0925 44.6019 30.0567 44.7556 30.0183 44.9004L29.9026 45.3145L29.672 46.1348C29.3671 47.229 29.0501 48.3199 28.7391 49.4129L28.7384 49.4154L28.2585 49.3295C28.2941 48.9619 28.3933 48.5904 28.5963 48.2571C28.6998 48.0916 28.8261 47.9381 28.985 47.8107C29.1436 47.681 29.328 47.5903 29.5222 47.5327C29.7174 47.4781 29.9261 47.4584 30.1348 47.4929C30.2388 47.5099 30.3431 47.539 30.441 47.5851C30.4909 47.6058 30.5373 47.6344 30.5841 47.6619L30.6808 47.7228C30.9159 47.855 31.209 47.8798 31.4501 47.7736C31.511 47.7493 31.5669 47.7145 31.6197 47.6762C31.645 47.6552 31.6721 47.6364 31.6944 47.6121L31.731 47.5768L31.7746 47.53L32.1244 47.1571L32.824 46.4115L33.5236 45.6658L33.8734 45.293C33.9593 45.2026 34.0826 45.123 34.2199 45.0957C34.357 45.0664 34.4991 45.0859 34.6201 45.1407C34.7416 45.1958 34.8466 45.2855 34.918 45.4029C34.9899 45.5196 35.021 45.6663 35.0047 45.8005C35.003 45.8353 34.9955 45.8671 34.9867 45.8984C34.9787 45.9282 34.9676 45.9673 34.9616 45.9816L34.9198 46.0992L34.8404 46.3361C34.7376 46.6529 34.6509 46.9749 34.5783 47.2999C34.5063 47.6251 34.4492 47.9536 34.4081 48.2841C34.4036 48.3247 34.3973 48.3683 34.3941 48.4066L34.3911 48.5075C34.3868 48.5415 34.3928 48.5741 34.3976 48.6066C34.4039 48.6387 34.4008 48.6732 34.4134 48.7038C34.4412 48.8322 34.5096 48.9472 34.5935 49.0478C34.6775 49.15 34.794 49.2249 34.9163 49.2767C34.9769 49.3065 35.0431 49.3178 35.1075 49.3345C35.1736 49.34 35.2395 49.3503 35.3052 49.342C35.4355 49.3315 35.5655 49.2977 35.6763 49.2236L35.7196 49.1993L35.7585 49.167L35.8376 49.1027L36.0183 48.9259C36.4994 48.4534 36.96 47.9601 37.397 47.4463C38.2695 46.4182 39.0505 45.3123 39.7263 44.1459L39.9741 43.7053L40.0939 43.4824L40.1538 43.3712L40.1686 43.3434C40.1696 43.3402 40.168 43.3419 40.168 43.3419C40.1708 43.3407 40.1668 43.3442 40.1683 43.347C40.1675 43.3657 40.1758 43.3695 40.1736 43.3677C40.1736 43.3677 40.1773 43.3702 40.1848 43.3695C40.1924 43.3677 40.2024 43.366 40.2021 43.3645L40.2011 43.3642L40.1796 43.3863L40.1365 43.4298C40.1077 43.4586 40.0796 43.4884 40.0515 43.5185C39.9952 43.5776 39.941 43.6392 39.8872 43.7005C39.6734 43.9486 39.479 44.2136 39.3076 44.493C39.2221 44.6327 39.142 44.7757 39.067 44.9217C39.0302 44.9948 38.9941 45.0684 38.96 45.143L38.9099 45.2552L38.8851 45.3115L38.8688 45.3618C38.7716 45.6258 38.7701 45.917 38.8909 46.1673C39.0086 46.416 39.2236 46.6276 39.485 46.7222C39.6128 46.7788 39.7521 46.7903 39.8884 46.7941C40.0245 46.781 40.1623 46.7593 40.2888 46.6944L40.385 46.6503L40.4935 46.5875C40.5655 46.5449 40.6386 46.5044 40.7095 46.4598C40.8526 46.3734 40.9937 46.2835 41.1335 46.1919C42.2503 45.455 43.2506 44.5416 44.082 43.4952L44.0825 43.4947C44.1665 43.3888 44.3203 43.3712 44.4263 43.4551C44.532 43.539 44.5498 43.693 44.4656 43.7987C43.6012 44.8869 42.5625 45.8348 41.4034 46.5998C41.258 46.6952 41.1117 46.7883 40.9629 46.878C40.8895 46.9243 40.8135 46.9663 40.7386 47.0104L40.6258 47.076L40.4903 47.1399C40.3111 47.229 40.1072 47.2678 39.9049 47.2828C39.7022 47.2813 39.4955 47.258 39.3086 47.1782C38.9275 47.0367 38.6193 46.7382 38.4466 46.3724C38.269 46.0058 38.2702 45.5619 38.4103 45.1911L38.4346 45.1202L38.4614 45.0596L38.5155 44.9384C38.5523 44.8581 38.5912 44.7787 38.631 44.6998C38.7117 44.5423 38.7984 44.3881 38.8906 44.2371C39.0758 43.9356 39.2855 43.6492 39.5168 43.381C39.5752 43.3144 39.6338 43.2478 39.695 43.1837C39.725 43.1511 39.7556 43.1191 39.7869 43.0878L39.8335 43.0405L39.8568 43.0169C39.8719 43.0032 39.8887 42.9891 39.9052 42.9759C39.9726 42.9243 40.0638 42.8842 40.1573 42.8812C40.25 42.8765 40.3387 42.9 40.4134 42.9416C40.5607 43.0214 40.6709 43.1935 40.6562 43.384C40.6514 43.4283 40.6431 43.4754 40.6266 43.5135C40.6191 43.5325 40.6098 43.554 40.602 43.5703L40.5868 43.5986L40.5256 43.7125L40.4033 43.9401L40.15 44.3903C39.4592 45.5827 38.6614 46.7124 37.7698 47.7631C37.3233 48.2879 36.8527 48.7919 36.3611 49.2747L36.1764 49.4555L36.0581 49.5536L35.9978 49.6017L35.9304 49.6415C35.7555 49.7552 35.5455 49.8148 35.338 49.8298C35.2333 49.8406 35.1295 49.8285 35.026 49.8165C34.925 49.7937 34.8231 49.772 34.7286 49.7284C34.5389 49.6483 34.3613 49.5311 34.2262 49.3708C34.0911 49.2128 33.9839 49.0245 33.9378 48.8187C33.9208 48.7686 33.9203 48.7158 33.9117 48.6645C33.9047 48.6127 33.8974 48.5608 33.9017 48.5095L33.9075 48.355L33.9228 48.2235C33.9656 47.8778 34.0252 47.5342 34.1007 47.1942C34.1766 46.8542 34.2673 46.5174 34.3748 46.1859L34.4577 45.9382L34.5016 45.815C34.5114 45.7898 34.5094 45.787 34.5129 45.776C34.5161 45.7665 34.5194 45.757 34.5184 45.7487C34.5224 45.7141 34.5166 45.6853 34.4996 45.656C34.4823 45.6275 34.4522 45.6012 34.4184 45.5862C34.3457 45.5576 34.2921 45.5679 34.2305 45.6275L33.8807 46.0003L33.1811 46.746L32.4815 47.4917L32.1317 47.8645L32.0878 47.9111L32.0332 47.9651C31.9968 48.0027 31.9548 48.0343 31.9139 48.0671C31.8295 48.1291 31.7388 48.184 31.6415 48.2235C31.2536 48.3926 30.7979 48.351 30.44 48.1484L30.3203 48.0738C30.2932 48.0588 30.2674 48.0413 30.2383 48.03C30.1822 48.003 30.1203 47.9859 30.0564 47.9754C29.9281 47.9536 29.7895 47.9659 29.6567 48.0027C29.3879 48.0786 29.1671 48.2614 29.013 48.5132C28.8602 48.7631 28.7752 49.0661 28.7457 49.3751L28.2656 49.2892L28.2663 49.2867C28.5414 48.1845 28.8101 47.0805 29.0909 45.9798L29.2997 45.1538L29.4027 44.7444C29.4337 44.6139 29.458 44.4892 29.4668 44.3743C29.4756 44.2596 29.4698 44.1552 29.442 44.0761C29.4149 43.9962 29.3741 43.9354 29.3082 43.8788C29.1701 43.7598 28.9719 43.7073 28.7787 43.7358C28.6818 43.7481 28.587 43.7824 28.5013 43.8305L28.4698 43.8492L28.4284 43.8763L28.342 43.9341L28.1691 44.0498C27.9358 44.199 27.7153 44.3673 27.4923 44.5315C27.379 44.6114 27.2738 44.7018 27.1658 44.7884C27.0588 44.8763 26.95 44.962 26.8443 45.0514L26.5343 45.3278L26.379 45.4655L26.2294 45.6095C25.4288 46.3734 24.7044 47.219 24.096 48.1422C23.4851 49.0629 22.9662 50.0454 22.5805 51.0782L22.4365 51.4653L22.3099 51.8585C22.2227 52.1206 22.1468 52.384 22.0924 52.6377C21.9799 53.145 21.9762 53.632 22.1488 54.0283C22.2317 54.2164 22.3603 54.3784 22.5124 54.4808C22.5888 54.5319 22.668 54.5724 22.7557 54.5917C22.8439 54.6142 22.9298 54.628 23.0163 54.6193C23.1882 54.6095 23.3729 54.5376 23.5558 54.4114C23.7379 54.2855 23.9121 54.1112 24.071 53.9177C24.2303 53.7231 24.3754 53.507 24.5065 53.2807L24.6027 53.1076L24.7007 52.9216L24.8968 52.5495C25.0261 52.3009 25.1494 52.049 25.276 51.7989L25.6373 51.0394C26.5752 49.003 27.3475 46.8897 27.9273 44.7246C28.0696 44.1825 28.2052 43.6389 28.3247 43.0913C28.3841 42.8176 28.4447 42.5442 28.4966 42.2688L28.5773 41.8566C28.6006 41.7272 28.6214 41.6007 28.6342 41.475C28.66 41.2254 28.6672 40.977 28.6311 40.7652C28.5958 40.5524 28.5267 40.3813 28.4282 40.2857C28.3828 40.2314 28.3202 40.1976 28.2505 40.1612C28.1721 40.133 28.0927 40.1027 28.005 40.0991C27.8328 40.0836 27.6424 40.1242 27.4722 40.2153C27.4494 40.2273 27.4332 40.2366 27.4063 40.2531L27.3201 40.3092L27.148 40.4211L26.8035 40.6445C26.5767 40.798 26.3617 40.9682 26.1377 41.1265C25.9199 41.2928 25.7117 41.4718 25.4977 41.6435C25.29 41.8228 25.0918 42.0131 24.8878 42.1972C24.0978 42.9606 23.3821 43.8062 22.7675 44.7228C21.5321 46.5529 20.6822 48.6522 20.3058 50.8559C20.2833 50.9891 20.1567 51.079 20.0234 51.0565C19.8979 51.0354 19.811 50.9205 19.82 50.7961Z" fill="white"/>
</mask>
<g mask="url(#mask10_1_114)">
<path d="M19.82 50.7961C20.0011 48.487 20.7844 46.2232 22.0148 44.2376C22.6327 43.2458 23.3593 42.3168 24.1915 41.4888C24.405 41.2872 24.6132 41.0799 24.8317 40.8836C25.0565 40.6948 25.276 40.4988 25.506 40.3157C25.7413 40.1395 25.9738 39.9589 26.2156 39.7912L26.5845 39.548L26.7689 39.4268L26.8613 39.366C26.8947 39.3452 26.9395 39.3184 26.9796 39.2971C27.6276 38.9398 28.5577 38.9231 29.1862 39.5538C29.339 39.7053 29.4458 39.8873 29.5249 40.0661C29.561 40.1562 29.5964 40.2471 29.6172 40.3358C29.6442 40.4262 29.6587 40.5133 29.6738 40.6009C29.7294 40.9507 29.7134 41.2755 29.681 41.5897C29.6645 41.7465 29.639 41.9004 29.6114 42.0504L29.5272 42.4738C29.4731 42.7565 29.4099 43.0375 29.3483 43.3187C29.224 43.8805 29.0832 44.4389 28.9353 44.9953C28.334 47.2177 27.5376 49.3871 26.5526 51.4676L26.1755 52.2438C26.0435 52.4995 25.9149 52.7569 25.7801 53.011L25.5757 53.3911L25.4734 53.5811L25.3609 53.7794C25.2053 54.0434 25.0312 54.2993 24.8287 54.5431C24.625 54.7858 24.395 55.0191 24.108 55.2152C23.8236 55.409 23.4653 55.5665 23.0674 55.5858C22.9689 55.5958 22.8707 55.5855 22.7722 55.575C22.6725 55.5697 22.5813 55.5374 22.4868 55.5151C22.2987 55.4643 22.1207 55.3732 21.9641 55.2628C21.6489 55.0394 21.4226 54.7302 21.2823 54.3972C21.147 54.0679 21.0876 53.7244 21.0851 53.3906C21.0811 53.0566 21.1312 52.7388 21.1999 52.4389C21.27 52.1381 21.3567 51.8567 21.453 51.5813L21.5945 51.1656L21.7539 50.7567C22.1811 49.667 22.7467 48.6364 23.4074 47.6749C24.0657 46.7109 24.843 45.8318 25.6989 45.0413L25.8588 44.8924L26.0254 44.7509L26.3594 44.469C26.473 44.3778 26.5897 44.2907 26.7047 44.2013C26.8205 44.1131 26.9338 44.0215 27.055 43.9404C27.2938 43.7734 27.5301 43.6034 27.7794 43.4526L27.9641 43.3359L28.0566 43.2778C28.0729 43.2678 28.0849 43.2593 28.1049 43.2478L28.1658 43.214C28.3302 43.1274 28.5099 43.0698 28.6955 43.0502C29.0649 43.0067 29.464 43.1166 29.7515 43.3785C29.8995 43.509 30.0181 43.696 30.0719 43.888C30.1288 44.0813 30.1271 44.2669 30.1103 44.4339C30.0925 44.6019 30.0567 44.7556 30.0183 44.9004L29.9026 45.3145L29.672 46.1348C29.3671 47.229 29.0501 48.3199 28.7391 49.4129L28.7384 49.4154L28.2585 49.3295C28.2941 48.9619 28.3933 48.5904 28.5963 48.2571C28.6998 48.0916 28.8261 47.9381 28.985 47.8107C29.1436 47.681 29.328 47.5903 29.5222 47.5327C29.7174 47.4781 29.9261 47.4584 30.1348 47.4929C30.2388 47.5099 30.3431 47.539 30.441 47.5851C30.4909 47.6058 30.5373 47.6344 30.5841 47.6619L30.6808 47.7228C30.9159 47.855 31.209 47.8798 31.4501 47.7736C31.511 47.7493 31.5669 47.7145 31.6197 47.6762C31.645 47.6552 31.6721 47.6364 31.6944 47.6121L31.731 47.5768L31.7746 47.53L32.1244 47.1571L32.824 46.4115L33.5236 45.6658L33.8734 45.293C33.9593 45.2026 34.0826 45.123 34.2199 45.0957C34.357 45.0664 34.4991 45.0859 34.6201 45.1407C34.7416 45.1958 34.8466 45.2855 34.918 45.4029C34.9899 45.5196 35.021 45.6663 35.0047 45.8005C35.003 45.8353 34.9955 45.8671 34.9867 45.8984C34.9787 45.9282 34.9676 45.9673 34.9616 45.9816L34.9198 46.0992L34.8404 46.3361C34.7376 46.6529 34.6509 46.9749 34.5783 47.2999C34.5063 47.6251 34.4492 47.9536 34.4081 48.2841C34.4036 48.3247 34.3973 48.3683 34.3941 48.4066L34.3911 48.5075C34.3868 48.5415 34.3928 48.5741 34.3976 48.6066C34.4039 48.6387 34.4008 48.6732 34.4134 48.7038C34.4412 48.8322 34.5096 48.9472 34.5935 49.0478C34.6775 49.15 34.794 49.2249 34.9163 49.2767C34.9769 49.3065 35.0431 49.3178 35.1075 49.3345C35.1736 49.34 35.2395 49.3503 35.3052 49.342C35.4355 49.3315 35.5655 49.2977 35.6763 49.2236L35.7196 49.1993L35.7585 49.167L35.8376 49.1027L36.0183 48.9259C36.4994 48.4534 36.96 47.9601 37.397 47.4463C38.2695 46.4182 39.0505 45.3123 39.7263 44.1459L39.9741 43.7053L40.0939 43.4824L40.1538 43.3712L40.1686 43.3434C40.1696 43.3402 40.168 43.3419 40.168 43.3419C40.1708 43.3407 40.1668 43.3442 40.1683 43.347C40.1675 43.3657 40.1758 43.3695 40.1736 43.3677C40.1736 43.3677 40.1773 43.3702 40.1848 43.3695C40.1924 43.3677 40.2024 43.366 40.2021 43.3645L40.2011 43.3642L40.1796 43.3863L40.1365 43.4298C40.1077 43.4586 40.0796 43.4884 40.0515 43.5185C39.9952 43.5776 39.941 43.6392 39.8872 43.7005C39.6734 43.9486 39.479 44.2136 39.3076 44.493C39.2221 44.6327 39.142 44.7757 39.067 44.9217C39.0302 44.9948 38.9941 45.0684 38.96 45.143L38.9099 45.2552L38.8851 45.3115L38.8688 45.3618C38.7716 45.6258 38.7701 45.917 38.8909 46.1673C39.0086 46.416 39.2236 46.6276 39.485 46.7222C39.6128 46.7788 39.7521 46.7903 39.8884 46.7941C40.0245 46.781 40.1623 46.7593 40.2888 46.6944L40.385 46.6503L40.4935 46.5875C40.5655 46.5449 40.6386 46.5044 40.7095 46.4598C40.8526 46.3734 40.9937 46.2835 41.1335 46.1919C42.2503 45.455 43.2506 44.5416 44.082 43.4952L44.0825 43.4947C44.1665 43.3888 44.3203 43.3712 44.4263 43.4551C44.532 43.539 44.5498 43.693 44.4656 43.7987C43.6012 44.8869 42.5625 45.8348 41.4034 46.5998C41.258 46.6952 41.1117 46.7883 40.9629 46.878C40.8895 46.9243 40.8135 46.9663 40.7386 47.0104L40.6258 47.076L40.4903 47.1399C40.3111 47.229 40.1072 47.2678 39.9049 47.2828C39.7022 47.2813 39.4955 47.258 39.3086 47.1782C38.9275 47.0367 38.6193 46.7382 38.4466 46.3724C38.269 46.0058 38.2702 45.5619 38.4103 45.1911L38.4346 45.1202L38.4614 45.0596L38.5155 44.9384C38.5523 44.8581 38.5912 44.7787 38.631 44.6998C38.7117 44.5423 38.7984 44.3881 38.8906 44.2371C39.0758 43.9356 39.2855 43.6492 39.5168 43.381C39.5752 43.3144 39.6338 43.2478 39.695 43.1837C39.725 43.1511 39.7556 43.1191 39.7869 43.0878L39.8335 43.0405L39.8568 43.0169C39.8719 43.0032 39.8887 42.9891 39.9052 42.9759C39.9726 42.9243 40.0638 42.8842 40.1573 42.8812C40.25 42.8765 40.3387 42.9 40.4134 42.9416C40.5607 43.0214 40.6709 43.1935 40.6562 43.384C40.6514 43.4283 40.6431 43.4754 40.6266 43.5135C40.6191 43.5325 40.6098 43.554 40.602 43.5703L40.5868 43.5986L40.5256 43.7125L40.4033 43.9401L40.15 44.3903C39.4592 45.5827 38.6614 46.7124 37.7698 47.7631C37.3233 48.2879 36.8527 48.7919 36.3611 49.2747L36.1764 49.4555L36.0581 49.5536L35.9978 49.6017L35.9304 49.6415C35.7555 49.7552 35.5455 49.8148 35.338 49.8298C35.2333 49.8406 35.1295 49.8285 35.026 49.8165C34.925 49.7937 34.8231 49.772 34.7286 49.7284C34.5389 49.6483 34.3613 49.5311 34.2262 49.3708C34.0911 49.2128 33.9839 49.0245 33.9378 48.8187C33.9208 48.7686 33.9203 48.7158 33.9117 48.6645C33.9047 48.6127 33.8974 48.5608 33.9017 48.5095L33.9075 48.355L33.9228 48.2235C33.9656 47.8778 34.0252 47.5342 34.1007 47.1942C34.1766 46.8542 34.2673 46.5174 34.3748 46.1859L34.4577 45.9382L34.5016 45.815C34.5114 45.7898 34.5094 45.787 34.5129 45.776C34.5161 45.7665 34.5194 45.757 34.5184 45.7487C34.5224 45.7141 34.5166 45.6853 34.4996 45.656C34.4823 45.6275 34.4522 45.6012 34.4184 45.5862C34.3457 45.5576 34.2921 45.5679 34.2305 45.6275L33.8807 46.0003L33.1811 46.746L32.4815 47.4917L32.1317 47.8645L32.0878 47.9111L32.0332 47.9651C31.9968 48.0027 31.9548 48.0343 31.9139 48.0671C31.8295 48.1291 31.7388 48.184 31.6415 48.2235C31.2536 48.3926 30.7979 48.351 30.44 48.1484L30.3203 48.0738C30.2932 48.0588 30.2674 48.0413 30.2383 48.03C30.1822 48.003 30.1203 47.9859 30.0564 47.9754C29.9281 47.9536 29.7895 47.9659 29.6567 48.0027C29.3879 48.0786 29.1671 48.2614 29.013 48.5132C28.8602 48.7631 28.7752 49.0661 28.7457 49.3751L28.2656 49.2892L28.2663 49.2867C28.5414 48.1845 28.8101 47.0805 29.0909 45.9798L29.2997 45.1538L29.4027 44.7444C29.4337 44.6139 29.458 44.4892 29.4668 44.3743C29.4756 44.2596 29.4698 44.1552 29.442 44.0761C29.4149 43.9962 29.3741 43.9354 29.3082 43.8788C29.1701 43.7598 28.9719 43.7073 28.7787 43.7358C28.6818 43.7481 28.587 43.7824 28.5013 43.8305L28.4698 43.8492L28.4284 43.8763L28.342 43.9341L28.1691 44.0498C27.9358 44.199 27.7153 44.3673 27.4923 44.5315C27.379 44.6114 27.2738 44.7018 27.1658 44.7884C27.0588 44.8763 26.95 44.962 26.8443 45.0514L26.5343 45.3278L26.379 45.4655L26.2294 45.6095C25.4288 46.3734 24.7044 47.219 24.096 48.1422C23.4851 49.0629 22.9662 50.0454 22.5805 51.0782L22.4365 51.4653L22.3099 51.8585C22.2227 52.1206 22.1468 52.384 22.0924 52.6377C21.9799 53.145 21.9762 53.632 22.1488 54.0283C22.2317 54.2164 22.3603 54.3784 22.5124 54.4808C22.5888 54.5319 22.668 54.5724 22.7557 54.5917C22.8439 54.6142 22.9298 54.628 23.0163 54.6193C23.1882 54.6095 23.3729 54.5376 23.5558 54.4114C23.7379 54.2855 23.9121 54.1112 24.071 53.9177C24.2303 53.7231 24.3754 53.507 24.5065 53.2807L24.6027 53.1076L24.7007 52.9216L24.8968 52.5495C25.0261 52.3009 25.1494 52.049 25.276 51.7989L25.6373 51.0394C26.5752 49.003 27.3475 46.8897 27.9273 44.7246C28.0696 44.1825 28.2052 43.6389 28.3247 43.0913C28.3841 42.8176 28.4447 42.5442 28.4966 42.2688L28.5773 41.8566C28.6006 41.7272 28.6214 41.6007 28.6342 41.475C28.66 41.2254 28.6672 40.977 28.6311 40.7652C28.5958 40.5524 28.5267 40.3813 28.4282 40.2857C28.3828 40.2314 28.3202 40.1976 28.2505 40.1612C28.1721 40.133 28.0927 40.1027 28.005 40.0991C27.8328 40.0836 27.6424 40.1242 27.4722 40.2153C27.4494 40.2273 27.4332 40.2366 27.4063 40.2531L27.3201 40.3092L27.148 40.4211L26.8035 40.6445C26.5767 40.798 26.3617 40.9682 26.1377 41.1265C25.9199 41.2928 25.7117 41.4718 25.4977 41.6435C25.29 41.8228 25.0918 42.0131 24.8878 42.1972C24.0978 42.9606 23.3821 43.8062 22.7675 44.7228C21.5321 46.5529 20.6822 48.6522 20.3058 50.8559C20.2833 50.9891 20.1567 51.079 20.0234 51.0565C19.8979 51.0354 19.811 50.9205 19.82 50.7961Z" fill="url(#paint8_linear_1_114)"/>
</g>
<mask id="mask11_1_114" style="mask-type:luminance" maskUnits="userSpaceOnUse" x="45" y="41" width="3" height="3">
<path d="M45.2751 43.3641C45.1936 43.3641 45.114 43.3233 45.0676 43.2495C44.9959 43.135 45.0305 42.984 45.145 42.9124L47.5891 41.3826C47.7034 41.3107 47.8545 41.3452 47.9261 41.4599C47.9978 41.5743 47.9632 41.7251 47.8487 41.7967L45.4049 43.3268C45.3645 43.3521 45.3194 43.3641 45.2751 43.3641Z" fill="white"/>
</mask>
<g mask="url(#mask11_1_114)">
<path d="M45.2751 43.3641C45.1936 43.3641 45.114 43.3233 45.0676 43.2495C44.9959 43.135 45.0305 42.984 45.145 42.9124L47.5891 41.3826C47.7034 41.3107 47.8545 41.3452 47.9261 41.4599C47.9978 41.5743 47.9632 41.7251 47.8487 41.7967L45.4049 43.3268C45.3645 43.3521 45.3194 43.3641 45.2751 43.3641Z" fill="url(#paint9_linear_1_114)"/>
</g>
</g>
<defs>
<linearGradient id="paint0_linear_1_114" x1="65.8908" y1="17.4995" x2="-55.9751" y2="137.904" gradientUnits="userSpaceOnUse">
<stop stop-color="#4F52FF"/>
<stop offset="1" stop-color="#4042E2"/>
</linearGradient>
<linearGradient id="paint1_linear_1_114" x1="65.8912" y1="17.4995" x2="-55.9746" y2="137.905" gradientUnits="userSpaceOnUse">
<stop stop-color="#7B93FC"/>
<stop offset="1" stop-color="#768EF2"/>
</linearGradient>
<linearGradient id="paint2_linear_1_114" x1="65.8903" y1="17.4994" x2="-55.9756" y2="137.904" gradientUnits="userSpaceOnUse">
<stop stop-color="#7B93FC"/>
<stop offset="1" stop-color="#768EF2"/>
</linearGradient>
<linearGradient id="paint3_linear_1_114" x1="74.9542" y1="70.9935" x2="23.7832" y2="26.1865" gradientUnits="userSpaceOnUse">
<stop stop-color="#D1DDFD"/>
<stop offset="1" stop-color="#DCE6FC"/>
</linearGradient>
<linearGradient id="paint4_linear_1_114" x1="17.252" y1="20.0633" x2="50.4607" y2="20.0633" gradientUnits="userSpaceOnUse">
<stop stop-color="#DAE3FE"/>
<stop offset="1" stop-color="#E9EFFD"/>
</linearGradient>
<linearGradient id="paint5_linear_1_114" x1="17.6543" y1="23.9864" x2="39.9767" y2="23.9864" gradientUnits="userSpaceOnUse">
<stop stop-color="#DAE3FE"/>
<stop offset="1" stop-color="#E9EFFD"/>
</linearGradient>
<linearGradient id="paint6_linear_1_114" x1="16.7354" y1="29.5088" x2="49.9441" y2="29.5088" gradientUnits="userSpaceOnUse">
<stop stop-color="#DAE3FE"/>
<stop offset="1" stop-color="#E9EFFD"/>
</linearGradient>
<linearGradient id="paint7_linear_1_114" x1="17.1309" y1="33.4316" x2="39.4533" y2="33.4316" gradientUnits="userSpaceOnUse">
<stop stop-color="#DAE3FE"/>
<stop offset="1" stop-color="#E9EFFD"/>
</linearGradient>
<linearGradient id="paint8_linear_1_114" x1="38.6849" y1="33.589" x2="27.1668" y2="55.6023" gradientUnits="userSpaceOnUse">
<stop stop-color="#09005D"/>
<stop offset="1" stop-color="#1A0F91"/>
</linearGradient>
<linearGradient id="paint9_linear_1_114" x1="45.0303" y1="42.3546" x2="47.9636" y2="42.3546" gradientUnits="userSpaceOnUse">
<stop stop-color="#09005D"/>
<stop offset="1" stop-color="#1A0F91"/>
</linearGradient>
<clipPath id="clip0_1_114">
<rect width="72" height="72" fill="white"/>
</clipPath>
</defs>
</svg>
