<svg width="72" height="72" viewBox="0 0 72 72" fill="none" xmlns="http://www.w3.org/2000/svg">
<rect width="72" height="72" fill="#F5F5F5"/>
<rect width="1440" height="12112" transform="translate(-971 -1926)" fill="white"/>
<rect x="-23.5" y="-23.5" width="359" height="359" rx="3.5" fill="white" stroke="#737373"/>
<g clip-path="url(#clip0_1_114)">
<path fill-rule="evenodd" clip-rule="evenodd" d="M8.60552 14.4239C13.1053 8.34221 19.5656 4.87509 26.8904 2.97023C35.865 0.636383 45.4707 -2.12657 53.3367 2.79143C63.1027 8.89733 72.5038 19.1081 70.9397 30.5108C69.4137 41.6352 55.6478 44.6488 46.6698 51.3926C36.4928 59.037 28.7076 74.8314 16.4257 71.4586C4.09863 68.0734 2.18942 51.3601 0.453698 38.701C-0.766653 29.8006 3.26385 21.6435 8.60552 14.4239Z" fill="#B3E3FF" fill-opacity="0.3"/>
<path d="M6 16.3729V49.6302C6 51.3117 7.20678 52.6816 8.70998 52.7066L69.3967 53.5452C70.8869 53.5699 72.1086 52.229 72.1139 50.5624L72.2157 17.602C72.2195 16.4101 71.3705 15.4336 70.305 15.4046L8.17323 14.0008C6.98166 13.9683 6 15.0396 6 16.3729Z" fill="#0E056C"/>
<path d="M7.84375 17.7832V45.6852C7.84375 47.0958 8.97605 48.2451 10.3865 48.2662L67.3274 48.9697C68.7256 48.9905 69.8719 47.8655 69.8769 46.4672L69.9723 18.8144C69.9759 17.8145 69.1793 16.9952 68.1796 16.9709L9.88284 15.7931C8.76482 15.7659 7.84375 16.6647 7.84375 17.7832Z" fill="#91B3FA"/>
<path d="M70.3053 50.1217H70.3036L7.84181 49.0576C7.79353 49.0566 7.75506 49.0168 7.75587 48.9686C7.75668 48.9201 7.79503 48.8834 7.84479 48.8826L70.3067 49.9468C70.3549 49.9477 70.3934 49.9876 70.3927 50.0358C70.3919 50.0835 70.3528 50.1217 70.3053 50.1217Z" fill="#91B3FA"/>
<mask id="mask0_1_114" style="mask-type:luminance" maskUnits="userSpaceOnUse" x="27" y="61" width="27" height="4">
<path d="M52.597 64.9661H28.319C27.6593 64.9661 27.1641 64.4966 27.2916 63.9924L27.603 62.7602C27.6968 62.3898 28.1044 62.1178 28.5886 62.1025L51.9934 61.3722C52.4994 61.3565 52.9471 61.625 53.0573 62.0102L53.6189 63.9723C53.7649 64.4823 53.2671 64.9661 52.597 64.9661Z" fill="white"/>
</mask>
<g mask="url(#mask0_1_114)">
<path d="M52.597 64.9661H28.319C27.6593 64.9661 27.1641 64.4966 27.2916 63.9924L27.603 62.7602C27.6968 62.3898 28.1044 62.1178 28.5886 62.1025L51.9934 61.3722C52.4994 61.3565 52.9471 61.625 53.0573 62.0102L53.6189 63.9723C53.7649 64.4823 53.2671 64.9661 52.597 64.9661Z" fill="#00094F"/>
</g>
<path d="M41.3881 62.4449C41.3406 62.4449 41.3015 62.4065 41.3008 62.3588C41.3001 62.3103 41.3387 62.2707 41.3869 62.27L42.39 62.2555H42.3912C42.4389 62.2555 42.4781 62.2936 42.4788 62.3416C42.4795 62.3898 42.4408 62.4297 42.3926 62.4301L41.3896 62.4449H41.3881Z" fill="#91B3FA"/>
<path d="M28.1903 64.2954C28.1855 64.2954 28.181 64.2952 28.1762 64.2945C28.1285 64.2868 28.096 64.242 28.1037 64.1942L28.2468 63.2981C28.3242 62.8127 28.7373 62.4549 29.2289 62.4478L39.8667 62.2922C39.9127 62.2905 39.9547 62.3301 39.9555 62.3783C39.9559 62.4268 39.9175 62.4664 39.8693 62.4671L29.2315 62.6225C28.8251 62.6287 28.4836 62.9244 28.4194 63.3255L28.2764 64.2217C28.2695 64.2649 28.2323 64.2954 28.1903 64.2954Z" fill="#91B3FA"/>
<mask id="mask1_1_114" style="mask-type:luminance" maskUnits="userSpaceOnUse" x="32" y="52" width="18" height="11">
<path d="M49.0219 62.3424H32.4336L32.6534 60.3707H33.4452V56.7556H33.0565L33.5636 52.2074C38.1232 52.2836 42.849 52.3557 47.3492 52.4151L49.0219 62.3424Z" fill="white"/>
</mask>
<g mask="url(#mask1_1_114)">
<path d="M49.0219 62.3424H32.4336L32.6534 60.3707H33.4452V56.7556H33.0565L33.5636 52.2074C38.1232 52.2836 42.849 52.3557 47.3492 52.4151L49.0219 62.3424Z" fill="#00094F"/>
</g>
<path d="M42.0155 51.0096C42.0608 51.3152 41.897 51.5927 41.5914 51.6377C41.2862 51.683 41.0016 51.4719 40.9566 51.1666C40.9113 50.861 41.0511 50.5575 41.3566 50.5122C41.6622 50.4672 41.9702 50.7044 42.0155 51.0096Z" fill="#91B3FA"/>
<path d="M3.66797 57.3799H43.2V49.7296H3.66797C4.51414 49.7296 4.51414 57.3799 3.66797 57.3799Z" fill="#DAE3FE"/>
<mask id="mask2_1_114" style="mask-type:luminance" maskUnits="userSpaceOnUse" x="2" y="48" width="45" height="12">
<path d="M43.2004 55.4655V51.9646C43.2004 50.7303 42.4192 49.7298 41.4554 49.7298H3.8351C3.0773 49.7298 2.46289 49.1359 2.46289 48.403C2.46289 48.1803 2.6496 48 2.87983 48H43.9959C44.939 48 46.436 49.4333 46.436 51.2015V56.0912C46.436 57.7584 44.9827 59.1099 44.0934 59.1099H3.09612C2.7464 59.1099 2.46289 58.8356 2.46289 58.4978C2.46289 57.8806 2.98041 57.3801 3.61876 57.3801H41.7055C42.5311 57.3801 43.2004 56.5231 43.2004 55.4655Z" fill="white"/>
</mask>
<g mask="url(#mask2_1_114)">
<path d="M43.2004 55.4655V51.9646C43.2004 50.7303 42.4192 49.7298 41.4554 49.7298H3.8351C3.0773 49.7298 2.46289 49.1359 2.46289 48.403C2.46289 48.1803 2.6496 48 2.87983 48H43.9959C44.939 48 46.436 49.4333 46.436 51.2015V56.0912C46.436 57.7584 44.9827 59.1099 44.0934 59.1099H3.09612C2.7464 59.1099 2.46289 58.8356 2.46289 58.4978C2.46289 57.8806 2.98041 57.3801 3.61876 57.3801H41.7055C42.5311 57.3801 43.2004 56.5231 43.2004 55.4655Z" fill="#F2575D"/>
</g>
<path d="M42.1075 51.4692H5.04111C4.96223 51.4692 4.89844 51.393 4.89844 51.299C4.89844 51.2051 4.96223 51.1288 5.04111 51.1288H42.1075C42.1864 51.1288 42.2504 51.2051 42.2504 51.299C42.2504 51.393 42.1864 51.4692 42.1075 51.4692Z" fill="#7D97F4"/>
<path d="M42.1075 52.6049H5.04111C4.96223 52.6049 4.89844 52.5286 4.89844 52.4347C4.89844 52.3412 4.96223 52.265 5.04111 52.265H42.1075C42.1864 52.265 42.2504 52.3412 42.2504 52.4347C42.2504 52.5286 42.1864 52.6049 42.1075 52.6049Z" fill="#7D97F4"/>
<path d="M42.1075 53.7399H5.04111C4.96223 53.7399 4.89844 53.6641 4.89844 53.5702C4.89844 53.4762 4.96223 53.4005 5.04111 53.4005H42.1075C42.1864 53.4005 42.2504 53.4762 42.2504 53.5702C42.2504 53.6641 42.1864 53.7399 42.1075 53.7399Z" fill="#7D97F4"/>
<path d="M42.1075 54.8755H5.04111C4.96223 54.8755 4.89844 54.7992 4.89844 54.7058C4.89844 54.6119 4.96223 54.5356 5.04111 54.5356H42.1075C42.1864 54.5356 42.2504 54.6119 42.2504 54.7058C42.2504 54.7992 42.1864 54.8755 42.1075 54.8755Z" fill="#7D97F4"/>
<path d="M42.1075 56.0111H5.04111C4.96223 56.0111 4.89844 55.9354 4.89844 55.8414C4.89844 55.7475 4.96223 55.6712 5.04111 55.6712H42.1075C42.1864 55.6712 42.2504 55.7475 42.2504 55.8414C42.2504 55.9354 42.1864 56.0111 42.1075 56.0111Z" fill="#7D97F4"/>
<mask id="mask3_1_114" style="mask-type:luminance" maskUnits="userSpaceOnUse" x="1" y="59" width="47" height="13">
<path d="M47.3773 72H1.55342C1.24778 72 1 71.6682 1 71.2586V59.9584C1 59.5488 1.24778 59.217 1.55342 59.217H47.3773C47.6831 59.217 47.9308 59.5488 47.9308 59.9584V71.2586C47.9308 71.6682 47.6831 72 47.3773 72Z" fill="white"/>
</mask>
<g mask="url(#mask3_1_114)">
<path d="M47.3773 72H1.55342C1.24778 72 1 71.6682 1 71.2586V59.9584C1 59.5488 1.24778 59.217 1.55342 59.217H47.3773C47.6831 59.217 47.9308 59.5488 47.9308 59.9584V71.2586C47.9308 71.6682 47.6831 72 47.3773 72Z" fill="#4F52FF"/>
</g>
<path d="M9.88312 70.5304H5.75061C5.18019 70.5304 4.71777 69.9794 4.71777 69.3001V61.9165C4.71777 61.2367 5.18019 60.6857 5.75061 60.6857H9.88307C10.4535 60.6857 10.9159 61.2367 10.9159 61.9165V69.3001C10.9159 69.9794 10.4535 70.5304 9.88312 70.5304Z" fill="#7D97F4"/>
<path d="M13.3147 70.5304H12.6691C12.2052 70.5304 11.8291 70.0824 11.8291 69.5294V61.6867C11.8291 61.1337 12.2052 60.6857 12.6691 60.6857H13.3147C13.7786 60.6857 14.1547 61.1337 14.1547 61.6867V69.5294C14.1547 70.0824 13.7786 70.5304 13.3147 70.5304Z" fill="#7D97F4"/>
<mask id="mask4_1_114" style="mask-type:luminance" maskUnits="userSpaceOnUse" x="60" y="46" width="1" height="2">
<path d="M60.7412 46.7346C60.7767 46.7461 60.807 46.7722 60.8228 46.8094C60.8517 46.8771 60.82 46.9556 60.7523 46.9845C60.6489 47.0281 60.545 47.0711 60.4403 47.1122C60.4104 47.1237 60.3789 47.1244 60.3506 47.1152C60.3136 47.1032 60.2826 47.0756 60.2672 47.0369C60.2403 46.9681 60.2742 46.8907 60.3425 46.8637C60.4452 46.8236 60.5466 46.7819 60.6477 46.7389C60.6786 46.7259 60.7114 46.7249 60.7412 46.7346Z" fill="white"/>
</mask>
<g mask="url(#mask4_1_114)">
<path d="M60.7412 46.7346C60.7767 46.7461 60.807 46.7722 60.8228 46.8094C60.8517 46.8771 60.82 46.9556 60.7523 46.9845C60.6489 47.0281 60.545 47.0711 60.4403 47.1122C60.4104 47.1237 60.3789 47.1244 60.3506 47.1152C60.3136 47.1032 60.2826 47.0756 60.2672 47.0369C60.2403 46.9681 60.2742 46.8907 60.3425 46.8637C60.4452 46.8236 60.5466 46.7819 60.6477 46.7389C60.6786 46.7259 60.7114 46.7249 60.7412 46.7346Z" fill="#494CF3"/>
</g>
<mask id="mask5_1_114" style="mask-type:luminance" maskUnits="userSpaceOnUse" x="44" y="24" width="24" height="23">
<path d="M46.6498 29.5123C46.6035 29.5689 46.5984 29.649 46.637 29.7111L47.7371 31.4872C47.309 32.3638 47.018 33.3152 46.8889 34.3109L44.994 35.1873C44.9278 35.218 44.8881 35.2877 44.8954 35.3604L45.1485 37.8535C45.1562 37.9264 45.2088 37.9864 45.2801 38.0033L47.3124 38.4806C47.6388 39.4302 48.1155 40.3034 48.7112 41.0759L47.9906 43.0369C47.9653 43.1058 47.9867 43.1828 48.0433 43.2291L49.9852 44.813C50.0419 44.8593 50.122 44.8644 50.1841 44.8258L51.9598 43.7255C52.8367 44.1538 53.7878 44.4447 54.7835 44.5737L55.6603 46.4688C55.691 46.535 55.7606 46.5747 55.8334 46.5674L58.3261 46.3141C58.399 46.3065 58.459 46.2539 58.4759 46.1826L58.9537 44.1501C59.9029 43.8235 60.776 43.3471 61.5489 42.7516L63.5099 43.4722C63.5784 43.4973 63.6557 43.4761 63.702 43.4195L65.2856 41.4774C65.3319 41.4208 65.337 41.3407 65.2987 41.2787L64.1986 39.5026C64.6263 38.6259 64.9178 37.6746 65.0468 36.679L66.9414 35.8024C67.0079 35.7718 67.0476 35.7022 67.04 35.6293L66.7867 33.1366C66.7795 33.0638 66.7266 33.0033 66.6552 32.9868L64.623 32.5091C64.2964 31.5599 63.8198 30.6863 63.2242 29.9138L63.9448 27.9528C63.9699 27.8843 63.9487 27.8069 63.8921 27.7606L61.9505 26.1769C61.8933 26.1308 61.8138 26.1254 61.7513 26.1639L59.9756 27.2642C59.099 26.8361 58.1476 26.545 57.1519 26.416L56.2754 24.5211C56.2448 24.4549 56.1751 24.4152 56.1024 24.4224L53.6092 24.676C53.5364 24.6832 53.4764 24.7359 53.4594 24.8075L52.982 26.8398C52.0325 27.1663 51.1593 27.643 50.3865 28.2381L48.4258 27.518C48.3569 27.4928 48.2797 27.5136 48.2333 27.5703L46.6498 29.5123Z" fill="white"/>
</mask>
<g mask="url(#mask5_1_114)">
<path d="M46.6498 29.5123C46.6035 29.5689 46.5984 29.649 46.637 29.7111L47.7371 31.4872C47.309 32.3638 47.018 33.3152 46.8889 34.3109L44.994 35.1873C44.9278 35.218 44.8881 35.2877 44.8954 35.3604L45.1485 37.8535C45.1562 37.9264 45.2088 37.9864 45.2801 38.0033L47.3124 38.4806C47.6388 39.4302 48.1155 40.3034 48.7112 41.0759L47.9906 43.0369C47.9653 43.1058 47.9867 43.1828 48.0433 43.2291L49.9852 44.813C50.0419 44.8593 50.122 44.8644 50.1841 44.8258L51.9598 43.7255C52.8367 44.1538 53.7878 44.4447 54.7835 44.5737L55.6603 46.4688C55.691 46.535 55.7606 46.5747 55.8334 46.5674L58.3261 46.3141C58.399 46.3065 58.459 46.2539 58.4759 46.1826L58.9537 44.1501C59.9029 43.8235 60.776 43.3471 61.5489 42.7516L63.5099 43.4722C63.5784 43.4973 63.6557 43.4761 63.702 43.4195L65.2856 41.4774C65.3319 41.4208 65.337 41.3407 65.2987 41.2787L64.1986 39.5026C64.6263 38.6259 64.9178 37.6746 65.0468 36.679L66.9414 35.8024C67.0079 35.7718 67.0476 35.7022 67.04 35.6293L66.7867 33.1366C66.7795 33.0638 66.7266 33.0033 66.6552 32.9868L64.623 32.5091C64.2964 31.5599 63.8198 30.6863 63.2242 29.9138L63.9448 27.9528C63.9699 27.8843 63.9487 27.8069 63.8921 27.7606L61.9505 26.1769C61.8933 26.1308 61.8138 26.1254 61.7513 26.1639L59.9756 27.2642C59.099 26.8361 58.1476 26.545 57.1519 26.416L56.2754 24.5211C56.2448 24.4549 56.1751 24.4152 56.1024 24.4224L53.6092 24.676C53.5364 24.6832 53.4764 24.7359 53.4594 24.8075L52.982 26.8398C52.0325 27.1663 51.1593 27.643 50.3865 28.2381L48.4258 27.518C48.3569 27.4928 48.2797 27.5136 48.2333 27.5703L46.6498 29.5123Z" fill="#4F52FF"/>
</g>
<mask id="path-29-outside-1_1_114" maskUnits="userSpaceOnUse" x="52.6419" y="31.489" width="7.55829" height="7.55829" fill="black">
<rect fill="white" x="52.6419" y="31.489" width="7.55829" height="7.55829"/>
<path d="M55.3293 37.4889C55.7702 37.6319 56.2429 37.6242 56.6847 37.4637C57.7691 37.0696 58.3304 35.8673 57.9366 34.7834C57.5424 33.6994 56.3401 33.1381 55.2566 33.532C54.7313 33.7226 54.3121 34.1065 54.0757 34.613C53.8395 35.1191 53.8141 35.6869 54.0048 36.2119C54.196 36.737 54.5797 37.1565 55.0858 37.3928C55.1655 37.4299 55.2471 37.4622 55.3293 37.4889ZM56.6954 33.2546C57.3638 33.4713 57.9296 33.9825 58.1875 34.6922C58.6314 35.9145 57.9984 37.2703 56.7764 37.7143C56.1843 37.9295 55.5433 37.9009 54.9728 37.6346C54.4022 37.3683 53.9692 36.8952 53.7543 36.3032C53.5391 35.7111 53.5672 35.0704 53.8339 34.5C54.1004 33.929 54.5733 33.4963 55.1654 33.2811C55.6776 33.095 56.213 33.0982 56.6954 33.2546Z"/>
</mask>
<path d="M55.3293 37.4889C55.7702 37.6319 56.2429 37.6242 56.6847 37.4637C57.7691 37.0696 58.3304 35.8673 57.9366 34.7834C57.5424 33.6994 56.3401 33.1381 55.2566 33.532C54.7313 33.7226 54.3121 34.1065 54.0757 34.613C53.8395 35.1191 53.8141 35.6869 54.0048 36.2119C54.196 36.737 54.5797 37.1565 55.0858 37.3928C55.1655 37.4299 55.2471 37.4622 55.3293 37.4889ZM56.6954 33.2546C57.3638 33.4713 57.9296 33.9825 58.1875 34.6922C58.6314 35.9145 57.9984 37.2703 56.7764 37.7143C56.1843 37.9295 55.5433 37.9009 54.9728 37.6346C54.4022 37.3683 53.9692 36.8952 53.7543 36.3032C53.5391 35.7111 53.5672 35.0704 53.8339 34.5C54.1004 33.929 54.5733 33.4963 55.1654 33.2811C55.6776 33.095 56.213 33.0982 56.6954 33.2546Z" fill="white"/>
<path d="M55.3293 37.4889C55.7702 37.6319 56.2429 37.6242 56.6847 37.4637C57.7691 37.0696 58.3304 35.8673 57.9366 34.7834C57.5424 33.6994 56.3401 33.1381 55.2566 33.532C54.7313 33.7226 54.3121 34.1065 54.0757 34.613C53.8395 35.1191 53.8141 35.6869 54.0048 36.2119C54.196 36.737 54.5797 37.1565 55.0858 37.3928C55.1655 37.4299 55.2471 37.4622 55.3293 37.4889ZM56.6954 33.2546C57.3638 33.4713 57.9296 33.9825 58.1875 34.6922C58.6314 35.9145 57.9984 37.2703 56.7764 37.7143C56.1843 37.9295 55.5433 37.9009 54.9728 37.6346C54.4022 37.3683 53.9692 36.8952 53.7543 36.3032C53.5391 35.7111 53.5672 35.0704 53.8339 34.5C54.1004 33.929 54.5733 33.4963 55.1654 33.2811C55.6776 33.095 56.213 33.0982 56.6954 33.2546Z" stroke="white" stroke-width="0.4" mask="url(#path-29-outside-1_1_114)"/>
<mask id="path-30-outside-2_1_114" maskUnits="userSpaceOnUse" x="47.4215" y="26.5935" width="17.636" height="17.636" fill="black">
<rect fill="white" x="47.4215" y="26.5935" width="17.636" height="17.636"/>
<path d="M57.9111 29.6459C60.1718 30.3791 61.906 32.39 62.1613 34.9021C62.2504 35.7805 62.1504 36.6351 61.8941 37.4253C61.1607 39.6855 59.1498 41.4197 56.6377 41.675C54.9954 41.8419 53.3864 41.3588 52.1073 40.3159C50.8284 39.2725 50.032 37.7938 49.8652 36.1515C49.8206 35.7131 49.8227 35.2707 49.8709 34.8358C49.872 34.827 49.8737 34.8179 49.8765 34.8093C49.8956 34.7504 49.9542 34.7111 50.0182 34.7181C50.0911 34.7259 50.1442 34.7923 50.1363 34.8656C50.0898 35.2815 50.0878 35.7052 50.1306 36.1246C50.1399 36.2181 50.1515 36.3111 50.1653 36.4035L50.1658 36.4045L50.1671 36.4145L50.1672 36.4166L50.1675 36.4171L50.1674 36.4175L50.1678 36.4201C50.3883 37.8726 51.1296 39.1739 52.276 40.1092C53.5005 41.1074 55.0397 41.5691 56.6108 41.4096C59.0143 41.1653 60.9384 39.5059 61.6402 37.3433C61.8854 36.5871 61.9813 35.7695 61.8957 34.9294C61.5664 31.6855 58.6591 29.315 55.4155 29.6445C54.3492 29.7526 53.3339 30.1469 52.4797 30.7849C52.4204 30.829 52.3371 30.817 52.293 30.7577C52.266 30.7214 52.2602 30.6762 52.2731 30.6366C52.2813 30.6113 52.2971 30.5881 52.3202 30.571C53.2129 29.9043 54.2741 29.4919 55.3883 29.3789C56.2667 29.2898 57.1209 29.3897 57.9111 29.6459Z"/>
</mask>
<path d="M57.9111 29.6459C60.1718 30.3791 61.906 32.39 62.1613 34.9021C62.2504 35.7805 62.1504 36.6351 61.8941 37.4253C61.1607 39.6855 59.1498 41.4197 56.6377 41.675C54.9954 41.8419 53.3864 41.3588 52.1073 40.3159C50.8284 39.2725 50.032 37.7938 49.8652 36.1515C49.8206 35.7131 49.8227 35.2707 49.8709 34.8358C49.872 34.827 49.8737 34.8179 49.8765 34.8093C49.8956 34.7504 49.9542 34.7111 50.0182 34.7181C50.0911 34.7259 50.1442 34.7923 50.1363 34.8656C50.0898 35.2815 50.0878 35.7052 50.1306 36.1246C50.1399 36.2181 50.1515 36.3111 50.1653 36.4035L50.1658 36.4045L50.1671 36.4145L50.1672 36.4166L50.1675 36.4171L50.1674 36.4175L50.1678 36.4201C50.3883 37.8726 51.1296 39.1739 52.276 40.1092C53.5005 41.1074 55.0397 41.5691 56.6108 41.4096C59.0143 41.1653 60.9384 39.5059 61.6402 37.3433C61.8854 36.5871 61.9813 35.7695 61.8957 34.9294C61.5664 31.6855 58.6591 29.315 55.4155 29.6445C54.3492 29.7526 53.3339 30.1469 52.4797 30.7849C52.4204 30.829 52.3371 30.817 52.293 30.7577C52.266 30.7214 52.2602 30.6762 52.2731 30.6366C52.2813 30.6113 52.2971 30.5881 52.3202 30.571C53.2129 29.9043 54.2741 29.4919 55.3883 29.3789C56.2667 29.2898 57.1209 29.3897 57.9111 29.6459Z" fill="white"/>
<path d="M57.9111 29.6459C60.1718 30.3791 61.906 32.39 62.1613 34.9021C62.2504 35.7805 62.1504 36.6351 61.8941 37.4253C61.1607 39.6855 59.1498 41.4197 56.6377 41.675C54.9954 41.8419 53.3864 41.3588 52.1073 40.3159C50.8284 39.2725 50.032 37.7938 49.8652 36.1515C49.8206 35.7131 49.8227 35.2707 49.8709 34.8358C49.872 34.827 49.8737 34.8179 49.8765 34.8093C49.8956 34.7504 49.9542 34.7111 50.0182 34.7181C50.0911 34.7259 50.1442 34.7923 50.1363 34.8656C50.0898 35.2815 50.0878 35.7052 50.1306 36.1246C50.1399 36.2181 50.1515 36.3111 50.1653 36.4035L50.1658 36.4045L50.1671 36.4145L50.1672 36.4166L50.1675 36.4171L50.1674 36.4175L50.1678 36.4201C50.3883 37.8726 51.1296 39.1739 52.276 40.1092C53.5005 41.1074 55.0397 41.5691 56.6108 41.4096C59.0143 41.1653 60.9384 39.5059 61.6402 37.3433C61.8854 36.5871 61.9813 35.7695 61.8957 34.9294C61.5664 31.6855 58.6591 29.315 55.4155 29.6445C54.3492 29.7526 53.3339 30.1469 52.4797 30.7849C52.4204 30.829 52.3371 30.817 52.293 30.7577C52.266 30.7214 52.2602 30.6762 52.2731 30.6366C52.2813 30.6113 52.2971 30.5881 52.3202 30.571C53.2129 29.9043 54.2741 29.4919 55.3883 29.3789C56.2667 29.2898 57.1209 29.3897 57.9111 29.6459Z" stroke="white" stroke-width="0.4" mask="url(#path-30-outside-2_1_114)"/>
<mask id="mask6_1_114" style="mask-type:luminance" maskUnits="userSpaceOnUse" x="13" y="1" width="37" height="37">
<path d="M43.7158 6.68848C43.6388 6.59615 43.5124 6.56358 43.4 6.60633L40.21 7.82589C38.9335 6.86882 37.4961 6.10829 35.9368 5.59449L35.1133 2.28191C35.0838 2.16569 34.9844 2.08045 34.8651 2.07029L30.7844 1.70923C30.6654 1.69836 30.5521 1.76467 30.5031 1.8738L29.1101 4.99036C27.4858 5.22206 25.937 5.71843 24.5123 6.43675L21.5852 4.67589C21.4832 4.61414 21.3524 4.6246 21.2601 4.70154L18.1194 7.33206C18.0282 7.40867 17.9945 7.53547 18.0376 7.64715L19.2568 10.8378C18.3001 12.1136 17.5392 13.5517 17.0258 15.1104L13.7128 15.9345C13.597 15.9633 13.5117 16.0627 13.5016 16.1821L13.1401 20.2635C13.1293 20.3824 13.196 20.495 13.3051 20.544L16.4216 21.937C16.6541 23.5618 17.15 25.1112 17.868 26.5348L16.1072 29.4619C16.0454 29.564 16.0559 29.6947 16.1328 29.787L18.7634 32.9278C18.8396 33.0197 18.9668 33.0527 19.0784 33.0095L22.2691 31.7903C23.5445 32.7477 24.983 33.5079 26.5416 34.0213L27.3658 37.3343C27.3946 37.4502 27.494 37.5354 27.613 37.5463L31.6948 37.907C31.8137 37.9179 31.9264 37.8512 31.9753 37.742L33.3679 34.6262C34.9934 34.3942 36.5421 33.8978 37.9661 33.1791L40.8932 34.9399C40.996 35.0021 41.126 34.9912 41.2179 34.915L44.3586 32.2845C44.451 32.2076 44.4835 32.0811 44.4408 31.9687L43.2212 28.7787C44.179 27.5026 44.9388 26.0648 45.4533 24.5059L48.7656 23.6813C48.8814 23.6525 48.9667 23.5531 48.9775 23.4342L49.3386 19.3535C49.3488 19.2341 49.2825 19.1208 49.1733 19.0718L46.0575 17.6792C45.8251 16.0545 45.3291 14.505 44.6104 13.0811L46.3712 10.154C46.433 10.0519 46.4225 9.92116 46.3463 9.82922L43.7158 6.68848Z" fill="white"/>
</mask>
<g mask="url(#mask6_1_114)">
<path d="M43.7158 6.68848C43.6388 6.59615 43.5124 6.56358 43.4 6.60633L40.21 7.82589C38.9335 6.86882 37.4961 6.10829 35.9368 5.59449L35.1133 2.28191C35.0838 2.16569 34.9844 2.08045 34.8651 2.07029L30.7844 1.70923C30.6654 1.69836 30.5521 1.76467 30.5031 1.8738L29.1101 4.99036C27.4858 5.22206 25.937 5.71843 24.5123 6.43675L21.5852 4.67589C21.4832 4.61414 21.3524 4.6246 21.2601 4.70154L18.1194 7.33206C18.0282 7.40867 17.9945 7.53547 18.0376 7.64715L19.2568 10.8378C18.3001 12.1136 17.5392 13.5517 17.0258 15.1104L13.7128 15.9345C13.597 15.9633 13.5117 16.0627 13.5016 16.1821L13.1401 20.2635C13.1293 20.3824 13.196 20.495 13.3051 20.544L16.4216 21.937C16.6541 23.5618 17.15 25.1112 17.868 26.5348L16.1072 29.4619C16.0454 29.564 16.0559 29.6947 16.1328 29.787L18.7634 32.9278C18.8396 33.0197 18.9668 33.0527 19.0784 33.0095L22.2691 31.7903C23.5445 32.7477 24.983 33.5079 26.5416 34.0213L27.3658 37.3343C27.3946 37.4502 27.494 37.5354 27.613 37.5463L31.6948 37.907C31.8137 37.9179 31.9264 37.8512 31.9753 37.742L33.3679 34.6262C34.9934 34.3942 36.5421 33.8978 37.9661 33.1791L40.8932 34.9399C40.996 35.0021 41.126 34.9912 41.2179 34.915L44.3586 32.2845C44.451 32.2076 44.4835 32.0811 44.4408 31.9687L43.2212 28.7787C44.179 27.5026 44.9388 26.0648 45.4533 24.5059L48.7656 23.6813C48.8814 23.6525 48.9667 23.5531 48.9775 23.4342L49.3386 19.3535C49.3488 19.2341 49.2825 19.1208 49.1733 19.0718L46.0575 17.6792C45.8251 16.0545 45.3291 14.505 44.6104 13.0811L46.3712 10.154C46.433 10.0519 46.4225 9.92116 46.3463 9.82922L43.7158 6.68848Z" fill="#4F52FF"/>
</g>
<mask id="path-33-outside-3_1_114" maskUnits="userSpaceOnUse" x="24.4162" y="12.8942" width="13.5824" height="13.5824" fill="black">
<rect fill="white" x="24.4162" y="12.8942" width="13.5824" height="13.5824"/>
<path d="M28.2905 18.1891C27.9312 18.842 27.7997 19.5907 27.9193 20.3388C28.0621 21.2264 28.5417 22.005 29.2697 22.5324C29.9973 23.0588 30.888 23.2703 31.7753 23.1282C32.6625 22.9861 33.4415 22.5058 33.9686 21.7786C34.4957 21.0495 34.7069 20.1595 34.5644 19.273C34.4227 18.385 33.9431 17.6064 33.2147 17.0797C32.4863 16.553 31.5967 16.3411 30.7095 16.4832C29.8223 16.6253 29.0429 17.1045 28.5162 17.8328C28.4325 17.9479 28.3578 18.0669 28.2905 18.1891ZM34.6728 21.6848C34.5946 21.8269 34.5067 21.9646 34.4104 22.0976C33.798 22.9446 32.8926 23.5016 31.8611 23.667C30.8295 23.8325 29.7957 23.5866 28.9499 22.9739C28.103 22.3615 27.546 21.4561 27.3801 20.4253C27.2158 19.3934 27.4606 18.3599 28.0737 17.5134C28.686 16.6664 29.5914 16.1095 30.623 15.944C32.7518 15.603 34.7618 17.0573 35.1035 19.1865C35.2431 20.0547 35.0904 20.926 34.6728 21.6848Z"/>
</mask>
<path d="M28.2905 18.1891C27.9312 18.842 27.7997 19.5907 27.9193 20.3388C28.0621 21.2264 28.5417 22.005 29.2697 22.5324C29.9973 23.0588 30.888 23.2703 31.7753 23.1282C32.6625 22.9861 33.4415 22.5058 33.9686 21.7786C34.4957 21.0495 34.7069 20.1595 34.5644 19.273C34.4227 18.385 33.9431 17.6064 33.2147 17.0797C32.4863 16.553 31.5967 16.3411 30.7095 16.4832C29.8223 16.6253 29.0429 17.1045 28.5162 17.8328C28.4325 17.9479 28.3578 18.0669 28.2905 18.1891ZM34.6728 21.6848C34.5946 21.8269 34.5067 21.9646 34.4104 22.0976C33.798 22.9446 32.8926 23.5016 31.8611 23.667C30.8295 23.8325 29.7957 23.5866 28.9499 22.9739C28.103 22.3615 27.546 21.4561 27.3801 20.4253C27.2158 19.3934 27.4606 18.3599 28.0737 17.5134C28.686 16.6664 29.5914 16.1095 30.623 15.944C32.7518 15.603 34.7618 17.0573 35.1035 19.1865C35.2431 20.0547 35.0904 20.926 34.6728 21.6848Z" fill="white"/>
<path d="M28.2905 18.1891C27.9312 18.842 27.7997 19.5907 27.9193 20.3388C28.0621 21.2264 28.5417 22.005 29.2697 22.5324C29.9973 23.0588 30.888 23.2703 31.7753 23.1282C32.6625 22.9861 33.4415 22.5058 33.9686 21.7786C34.4957 21.0495 34.7069 20.1595 34.5644 19.273C34.4227 18.385 33.9431 17.6064 33.2147 17.0797C32.4863 16.553 31.5967 16.3411 30.7095 16.4832C29.8223 16.6253 29.0429 17.1045 28.5162 17.8328C28.4325 17.9479 28.3578 18.0669 28.2905 18.1891ZM34.6728 21.6848C34.5946 21.8269 34.5067 21.9646 34.4104 22.0976C33.798 22.9446 32.8926 23.5016 31.8611 23.667C30.8295 23.8325 29.7957 23.5866 28.9499 22.9739C28.103 22.3615 27.546 21.4561 27.3801 20.4253C27.2158 19.3934 27.4606 18.3599 28.0737 17.5134C28.686 16.6664 29.5914 16.1095 30.623 15.944C32.7518 15.603 34.7618 17.0573 35.1035 19.1865C35.2431 20.0547 35.0904 20.926 34.6728 21.6848Z" stroke="white" stroke-width="0.4" mask="url(#path-33-outside-3_1_114)"/>
<mask id="path-34-outside-4_1_114" maskUnits="userSpaceOnUse" x="16.3026" y="5.14023" width="29.8812" height="29.8812" fill="black">
<rect fill="white" x="16.3026" y="5.14023" width="29.8812" height="29.8812"/>
<path d="M40.0874 24.7508C38.2039 28.1733 34.4194 30.3505 30.2849 29.9847C28.8392 29.8565 27.4909 29.4302 26.2944 28.7717C22.8724 26.8875 20.6955 23.1041 21.0613 18.9695C21.3001 16.2665 22.5778 13.8187 24.6581 12.0773C26.7391 10.3345 29.3728 9.50672 32.0754 9.74625C32.7438 9.80494 33.4046 9.92975 34.044 10.1169C34.0949 10.132 34.147 10.1467 34.1982 10.1629C34.2161 10.169 34.2329 10.1755 34.2493 10.1845C34.3601 10.2455 34.4166 10.3784 34.3778 10.5043C34.3337 10.6484 34.1802 10.7288 34.0365 10.6839C33.3871 10.4829 32.711 10.3506 32.0274 10.2892C29.6138 10.0763 27.2572 10.7622 25.3447 12.2256C25.231 12.313 25.1196 12.4026 25.0085 12.4951C23.0404 14.1437 21.8314 16.4599 21.6049 19.0178C21.2588 22.9299 23.3185 26.5109 26.5569 28.2931C27.6894 28.9164 28.9652 29.3196 30.3332 29.4411C35.6136 29.908 40.2889 25.9911 40.7557 20.7124C40.9096 18.9763 40.5907 17.2345 39.8341 15.6759C39.7683 15.5397 39.8248 15.3765 39.9606 15.3114C40.0432 15.2707 40.1362 15.2766 40.2115 15.318C40.2591 15.3442 40.2996 15.385 40.3255 15.4372C41.1247 17.085 41.4618 18.9266 41.2993 20.7608C41.1715 22.2057 40.7452 23.554 40.0874 24.7508Z"/>
</mask>
<path d="M40.0874 24.7508C38.2039 28.1733 34.4194 30.3505 30.2849 29.9847C28.8392 29.8565 27.4909 29.4302 26.2944 28.7717C22.8724 26.8875 20.6955 23.1041 21.0613 18.9695C21.3001 16.2665 22.5778 13.8187 24.6581 12.0773C26.7391 10.3345 29.3728 9.50672 32.0754 9.74625C32.7438 9.80494 33.4046 9.92975 34.044 10.1169C34.0949 10.132 34.147 10.1467 34.1982 10.1629C34.2161 10.169 34.2329 10.1755 34.2493 10.1845C34.3601 10.2455 34.4166 10.3784 34.3778 10.5043C34.3337 10.6484 34.1802 10.7288 34.0365 10.6839C33.3871 10.4829 32.711 10.3506 32.0274 10.2892C29.6138 10.0763 27.2572 10.7622 25.3447 12.2256C25.231 12.313 25.1196 12.4026 25.0085 12.4951C23.0404 14.1437 21.8314 16.4599 21.6049 19.0178C21.2588 22.9299 23.3185 26.5109 26.5569 28.2931C27.6894 28.9164 28.9652 29.3196 30.3332 29.4411C35.6136 29.908 40.2889 25.9911 40.7557 20.7124C40.9096 18.9763 40.5907 17.2345 39.8341 15.6759C39.7683 15.5397 39.8248 15.3765 39.9606 15.3114C40.0432 15.2707 40.1362 15.2766 40.2115 15.318C40.2591 15.3442 40.2996 15.385 40.3255 15.4372C41.1247 17.085 41.4618 18.9266 41.2993 20.7608C41.1715 22.2057 40.7452 23.554 40.0874 24.7508Z" fill="white"/>
<path d="M40.0874 24.7508C38.2039 28.1733 34.4194 30.3505 30.2849 29.9847C28.8392 29.8565 27.4909 29.4302 26.2944 28.7717C22.8724 26.8875 20.6955 23.1041 21.0613 18.9695C21.3001 16.2665 22.5778 13.8187 24.6581 12.0773C26.7391 10.3345 29.3728 9.50672 32.0754 9.74625C32.7438 9.80494 33.4046 9.92975 34.044 10.1169C34.0949 10.132 34.147 10.1467 34.1982 10.1629C34.2161 10.169 34.2329 10.1755 34.2493 10.1845C34.3601 10.2455 34.4166 10.3784 34.3778 10.5043C34.3337 10.6484 34.1802 10.7288 34.0365 10.6839C33.3871 10.4829 32.711 10.3506 32.0274 10.2892C29.6138 10.0763 27.2572 10.7622 25.3447 12.2256C25.231 12.313 25.1196 12.4026 25.0085 12.4951C23.0404 14.1437 21.8314 16.4599 21.6049 19.0178C21.2588 22.9299 23.3185 26.5109 26.5569 28.2931C27.6894 28.9164 28.9652 29.3196 30.3332 29.4411C35.6136 29.908 40.2889 25.9911 40.7557 20.7124C40.9096 18.9763 40.5907 17.2345 39.8341 15.6759C39.7683 15.5397 39.8248 15.3765 39.9606 15.3114C40.0432 15.2707 40.1362 15.2766 40.2115 15.318C40.2591 15.3442 40.2996 15.385 40.3255 15.4372C41.1247 17.085 41.4618 18.9266 41.2993 20.7608C41.1715 22.2057 40.7452 23.554 40.0874 24.7508Z" stroke="white" stroke-width="0.4" mask="url(#path-34-outside-4_1_114)"/>
</g>
<defs>
<clipPath id="clip0_1_114">
<rect width="72" height="72" fill="white"/>
</clipPath>
</defs>
</svg>
